<svg xmlns="http://www.w3.org/2000/svg" xmlns:xlink="http://www.w3.org/1999/xlink" xmlns:lucid="lucid" width="763.39" height="300"><g transform="translate(-558.4999999999999 -540)" lucid:page-tab-id="6Uq0Is_M4MLX"><path d="M946 780a6 6 0 0 1-6-6V626a6 6 0 0 1 6-6h368.4a6 6 0 0 1 6 6v148a6 6 0 0 1-6 6z" fill="#fff" fill-opacity="0"/><path d="M940 764v10a6 6 0 0 0 6 6h368.4a6 6 0 0 0 6-6v-10" stroke="#fff" stroke-width="3" fill="none"/><path d="M560 586a6 6 0 0 1 6-6h347.87a6 6 0 0 1 6 6v88a6 6 0 0 1-6 6H566a6 6 0 0 1-6-6z" stroke="#54c45e" stroke-width="3" fill="#54c45e"/><use xlink:href="#a" transform="matrix(1,0,0,1,564.9999999999999,585) translate(51.57877604166667 50.416666666666664)"/><use xlink:href="#b" transform="matrix(1,0,0,1,564.9999999999999,585) translate(114.02452256944446 50.416666666666664)"/><use xlink:href="#c" transform="matrix(1,0,0,1,564.9999999999999,585) translate(243.64691840277777 50.416666666666664)"/><path d="M940.13 586a6 6 0 0 1 6-6h168a6 6 0 0 1 6 6v88a6 6 0 0 1-6 6h-168a6 6 0 0 1-6-6z" stroke="#fc9432" stroke-width="3" fill="#fc9432"/><use xlink:href="#d" transform="matrix(1,0,0,1,945.130118709462,585) translate(24.752387152777786 39.166666666666664)"/><use xlink:href="#e" transform="matrix(1,0,0,1,945.130118709462,585) translate(58.11284722222223 61.388888888888886)"/><path d="M1140.4 586a6 6 0 0 1 6-6h168a6 6 0 0 1 6 6v88a6 6 0 0 1-6 6h-168a6 6 0 0 1-6-6z" stroke="#fcce14" stroke-width="3" fill="#fcce14"/><use xlink:href="#f" transform="matrix(1,0,0,1,1145.390356128386,585) translate(24.60590277777778 39.166666666666664)"/><use xlink:href="#g" transform="matrix(1,0,0,1,1145.390356128386,585) translate(103.45789930555554 39.166666666666664)"/><use xlink:href="#c" transform="matrix(1,0,0,1,1145.390356128386,585) translate(58.11284722222223 61.388888888888886)"/><path d="M600 706a6 6 0 0 1 6-6h307.87a6 6 0 0 1 6 6v48a6 6 0 0 1-6 6H606a6 6 0 0 1-6-6z" fill="none"/><use xlink:href="#h" transform="matrix(1,0,0,1,600,700) translate(4.932725694444457 24.444444444444443)"/><use xlink:href="#i" transform="matrix(1,0,0,1,600,700) translate(65.1974826388889 24.444444444444443)"/><use xlink:href="#j" transform="matrix(1,0,0,1,600,700) translate(143.97352430555554 24.444444444444443)"/><use xlink:href="#k" transform="matrix(1,0,0,1,600,700) translate(155.80078125 24.444444444444443)"/><use xlink:href="#l" transform="matrix(1,0,0,1,600,700) translate(202.00303819444446 24.444444444444443)"/><use xlink:href="#m" transform="matrix(1,0,0,1,600,700) translate(281.0720486111111 24.444444444444443)"/><use xlink:href="#n" transform="matrix(1,0,0,1,600,700) translate(120.24848090277779 46.666666666666664)"/><use xlink:href="#o" transform="matrix(1,0,0,1,600,700) translate(159.08311631944446 46.666666666666664)"/><path d="M950.13 706a6 6 0 0 1 6-6h148a6 6 0 0 1 6 6v48a6 6 0 0 1-6 6h-148a6 6 0 0 1-6-6z" fill="none"/><g><use xlink:href="#p" transform="matrix(1,0,0,1,950.1301187094621,700) translate(30.944010416666664 24.444444444444443)"/><use xlink:href="#q" transform="matrix(1,0,0,1,950.1301187094621,700) translate(47.23090277777777 24.444444444444443)"/><use xlink:href="#r" transform="matrix(1,0,0,1,950.1301187094621,700) translate(122.25260416666666 24.444444444444443)"/><use xlink:href="#s" transform="matrix(1,0,0,1,950.1301187094621,700) translate(10.235460069444443 46.666666666666664)"/><use xlink:href="#t" transform="matrix(1,0,0,1,950.1301187094621,700) translate(49.482421875 46.666666666666664)"/><use xlink:href="#u" transform="matrix(1,0,0,1,950.1301187094621,700) translate(76.01236979166667 46.666666666666664)"/></g><path d="M1150.4 706a6 6 0 0 1 6-6h148a6 6 0 0 1 6 6v48a6 6 0 0 1-6 6h-148a6 6 0 0 1-6-6z" fill="none"/><g><use xlink:href="#p" transform="matrix(1,0,0,1,1150.390356128386,700) translate(30.944010416666664 24.444444444444443)"/><use xlink:href="#q" transform="matrix(1,0,0,1,1150.390356128386,700) translate(47.23090277777777 24.444444444444443)"/><use xlink:href="#r" transform="matrix(1,0,0,1,1150.390356128386,700) translate(122.25260416666666 24.444444444444443)"/><use xlink:href="#v" transform="matrix(1,0,0,1,1150.390356128386,700) translate(22.138671875000007 46.666666666666664)"/><use xlink:href="#w" transform="matrix(1,0,0,1,1150.390356128386,700) translate(99.30881076388889 46.666666666666664)"/></g><g><path d="M566 700a6 6 0 0 1-6-6V546a6 6 0 0 1 6-6h347.87a6 6 0 0 1 6 6v148a6 6 0 0 1-6 6z" fill="#fff" fill-opacity="0"/><path d="M560 684v10a6 6 0 0 0 6 6h347.87a6 6 0 0 0 6-6v-10" stroke="#fff" stroke-width="3" fill="none"/></g><g><path d="M946 700a6 6 0 0 1-6-6V546a6 6 0 0 1 6-6h168a6 6 0 0 1 6 6v148a6 6 0 0 1-6 6z" fill="#fff" fill-opacity="0"/><path d="M940 684v10a6 6 0 0 0 6 6h168a6 6 0 0 0 6-6v-10" stroke="#fff" stroke-width="3" fill="none"/></g><g><path d="M1146.4 700a6 6 0 0 1-6-6V546a6 6 0 0 1 6-6h168a6 6 0 0 1 6 6v148a6 6 0 0 1-6 6z" fill="#fff" fill-opacity="0"/><path d="M1140.4 684v10a6 6 0 0 0 6 6h168a6 6 0 0 0 6-6v-10" stroke="#fff" stroke-width="3" fill="none"/></g><path d="M940.13 786a6 6 0 0 1 6-6h368.4a6 6 0 0 1 6 6v48a6 6 0 0 1-6 6h-368.4a6 6 0 0 1-6-6z" fill="none"/><g><use xlink:href="#x" transform="matrix(1,0,0,1,940.130118709462,780) translate(141.72612847222223 35.55555555555556)"/><use xlink:href="#y" transform="matrix(1,0,0,1,940.130118709462,780) translate(169.27604166666669 35.55555555555556)"/></g><defs><path fill="#fff" d="M1240 0h-202c-47 1-76-24-87-58l-84-261H378L295-59c-11 29-44 59-86 59H4l484-1328h268zM437-503h370c-61-196-127-384-186-583-56 202-123 386-184 583" id="z"/><path fill="#fff" d="M836-149C753-51 641 15 467 15 259 15 147-118 88-282c-42-119-44-295-4-419 59-179 186-308 419-308 153 0 247 58 325 142-30 37-55 81-89 113-66 29-96-36-151-51-19-5-41-11-69-11-164 0-199 147-204 317-6 202 85 372 277 308 37-12 60-40 86-61 24-21 64-16 84 9" id="A"/><path fill="#fff" d="M680-72c-61 52-150 86-256 87-172 2-267-108-267-279v-542c-63-2-138 16-138-53v-101l151-29 53-262c11-66 119-33 188-41v306h245v180H411v525c0 54 23 90 73 93 51 3 85-62 119-7" id="B"/><path fill="#fff" d="M379-993V0H125v-993h254zm-132-444c97 0 163 62 163 159 0 96-66 158-163 158-94 0-157-63-157-158s62-159 157-159" id="C"/><path fill="#fff" d="M600 0H369L11-993h210c36-1 65 20 72 46l145 507c21 61 37 123 49 185 14-65 34-123 52-185l150-507c9-25 34-46 68-46h201" id="D"/><path fill="#fff" d="M960-149C871-45 736 15 551 15 231 15 63-191 63-518c0-229 113-378 277-452 59-26 125-39 199-39 278 0 430 170 430 452 0 55-4 97-59 97H316c14 166 83 276 257 279 98 1 159-38 221-71 33-18 71-20 93 9zM741-612c-4-130-65-216-197-216-140 0-203 89-223 216h420" id="E"/><g id="a"><use transform="matrix(0.010850694444444444,0,0,0.010850694444444444,0,0)" xlink:href="#z"/><use transform="matrix(0.010850694444444444,0,0,0.010850694444444444,13.465711805555555,0)" xlink:href="#A"/><use transform="matrix(0.010850694444444444,0,0,0.010850694444444444,22.764756944444443,0)" xlink:href="#B"/><use transform="matrix(0.010850694444444444,0,0,0.010850694444444444,30.46875,0)" xlink:href="#C"/><use transform="matrix(0.010850694444444444,0,0,0.010850694444444444,35.92664930555556,0)" xlink:href="#D"/><use transform="matrix(0.010850694444444444,0,0,0.010850694444444444,46.23480902777778,0)" xlink:href="#E"/></g><path fill="#fff" d="M1198-932c62 158 61 378 0 536C1107-162 916 0 600 0H116v-1328h484c315 6 507 163 598 396zM600-209c264-9 377-187 377-456 0-268-114-446-377-455H380v911h220" id="F"/><path fill="#fff" d="M379-1437V0H125v-1437h254" id="G"/><path fill="#fff" d="M352-974c116-47 283-48 399 0 177 72 288 230 288 475 0 247-110 405-288 478-116 48-283 48-399 0C173-94 62-251 62-499c0-246 112-403 290-475zm-28 477c0 189 54 318 228 318 172 0 225-131 225-318s-53-318-225-318c-174 0-228 130-228 318" id="H"/><path fill="#fff" d="M615 15c-112 0-178-37-238-91v398H123V-993c65 5 149-11 197 11 31 24 28 81 42 121 74-81 161-151 314-151 265 0 360 229 360 508 0 232-93 399-248 480-52 26-109 39-173 39zm159-519c0-165-29-307-185-307-108 0-158 47-212 111v440c43 53 94 83 178 83 171 0 219-146 219-327" id="I"/><path fill="#fff" d="M559-811c-82 0-133 41-177 88V0H128v-993c65 5 150-14 196 11 30 16 27 69 39 104 67-68 139-130 270-131 135-1 210 82 248 184 57-113 162-184 324-184 235 0 350 140 350 377V0h-254v-632c0-119-53-179-160-179-110 0-172 67-172 179V0H715v-632c1-120-46-179-156-179" id="J"/><path fill="#fff" d="M582-811c-92 1-152 44-204 95V0H124v-993c65 5 150-14 196 11 30 17 27 71 39 107 74-72 158-134 301-134 225 0 332 151 332 377V0H738v-632c0-109-49-180-156-179" id="K"/><g id="b"><use transform="matrix(0.010850694444444444,0,0,0.010850694444444444,0,0)" xlink:href="#F"/><use transform="matrix(0.010850694444444444,0,0,0.010850694444444444,14.008246527777777,0)" xlink:href="#E"/><use transform="matrix(0.010850694444444444,0,0,0.010850694444444444,25.086805555555554,0)" xlink:href="#D"/><use transform="matrix(0.010850694444444444,0,0,0.010850694444444444,35.39496527777778,0)" xlink:href="#E"/><use transform="matrix(0.010850694444444444,0,0,0.010850694444444444,46.58203125,0)" xlink:href="#G"/><use transform="matrix(0.010850694444444444,0,0,0.010850694444444444,52.03993055555556,0)" xlink:href="#H"/><use transform="matrix(0.010850694444444444,0,0,0.010850694444444444,63.986545138888886,0)" xlink:href="#I"/><use transform="matrix(0.010850694444444444,0,0,0.010850694444444444,75.91145833333333,0)" xlink:href="#J"/><use transform="matrix(0.010850694444444444,0,0,0.010850694444444444,93.98871527777777,0)" xlink:href="#E"/><use transform="matrix(0.010850694444444444,0,0,0.010850694444444444,105.17578125,0)" xlink:href="#K"/><use transform="matrix(0.010850694444444444,0,0,0.010850694444444444,116.89453125,0)" xlink:href="#B"/></g><path fill="#fff" d="M1037-902c0 300-189 436-495 441H378V0H115v-1328h427c303 4 495 131 495 426zm-263 0c0-143-81-224-232-224H378v461h164c156 2 232-87 232-237" id="L"/><path fill="#fff" d="M583-811c-92 1-152 44-204 95V0H125v-1437h254v544c73-64 150-119 282-116 225 4 332 151 332 377V0H739v-632c0-109-49-180-156-179" id="M"/><path fill="#fff" d="M534-1012c240 0 371 147 371 387V0c-80-7-186 24-201-53l-22-66C598-47 516 18 362 15 183 12 73-75 73-255c0-177 142-239 303-283 75-20 169-31 281-34 9-142-26-239-155-239-97 0-149 37-209 70-49 27-108 2-128-33l-46-80c103-96 231-158 415-158zM316-268c-2 80 48 110 125 110 107 0 156-41 216-100v-160c-111 5-199 15-269 48-43 21-70 49-72 102" id="N"/><path fill="#fff" d="M80-702c6-234 206-338 457-298 93 15 166 59 220 115-26 37-46 85-79 115-8 4-17 7-28 7-73 0-113-61-203-61-94 0-160 79-107 152 93 83 270 88 356 179 39 42 70 95 69 176C761-63 553 47 286 6 191-9 109-52 51-106c29-40 47-92 85-123 77-33 115 38 178 55 22 6 48 12 80 12 81 0 133-35 133-110 0-69-60-91-116-111C252-440 75-483 80-702" id="O"/><g id="c"><use transform="matrix(0.010850694444444444,0,0,0.010850694444444444,0,0)" xlink:href="#L"/><use transform="matrix(0.010850694444444444,0,0,0.010850694444444444,11.827256944444445,0)" xlink:href="#M"/><use transform="matrix(0.010850694444444444,0,0,0.010850694444444444,23.75217013888889,0)" xlink:href="#N"/><use transform="matrix(0.010850694444444444,0,0,0.010850694444444444,34.72222222222222,0)" xlink:href="#O"/><use transform="matrix(0.010850694444444444,0,0,0.010850694444444444,43.58723958333333,0)" xlink:href="#E"/></g><path fill="#fff" d="M363-958c5 40 8 85 8 127V0H139v-1328c83 3 177-6 251 6 17 7 27 17 36 35l412 720c23 42 42 86 59 131 19-46 36-91 59-133l409-718c14-32 40-41 88-41h198V0h-231c1-296-1-596 2-890 1-21 2-42 4-64l-419 742c-28 50-62 58-128 58-41 0-70-20-92-58" id="P"/><g id="d"><use transform="matrix(0.010850694444444444,0,0,0.010850694444444444,0,0)" xlink:href="#P"/><use transform="matrix(0.010850694444444444,0,0,0.010850694444444444,19.422743055555554,0)" xlink:href="#N"/><use transform="matrix(0.010850694444444444,0,0,0.010850694444444444,30.39279513888889,0)" xlink:href="#C"/><use transform="matrix(0.010850694444444444,0,0,0.010850694444444444,35.85069444444444,0)" xlink:href="#K"/><use transform="matrix(0.010850694444444444,0,0,0.010850694444444444,47.56944444444444,0)" xlink:href="#B"/><use transform="matrix(0.010850694444444444,0,0,0.010850694444444444,55.002170138888886,0)" xlink:href="#E"/><use transform="matrix(0.010850694444444444,0,0,0.010850694444444444,66.18923611111111,0)" xlink:href="#K"/><use transform="matrix(0.010850694444444444,0,0,0.010850694444444444,78.11414930555556,0)" xlink:href="#N"/><use transform="matrix(0.010850694444444444,0,0,0.010850694444444444,89.08420138888889,0)" xlink:href="#K"/><use transform="matrix(0.010850694444444444,0,0,0.010850694444444444,101.00911458333333,0)" xlink:href="#A"/><use transform="matrix(0.010850694444444444,0,0,0.010850694444444444,110.30815972222221,0)" xlink:href="#E"/></g><g id="e"><use transform="matrix(0.010850694444444444,0,0,0.010850694444444444,0,0)" xlink:href="#L"/><use transform="matrix(0.010850694444444444,0,0,0.010850694444444444,11.827256944444445,0)" xlink:href="#M"/><use transform="matrix(0.010850694444444444,0,0,0.010850694444444444,23.75217013888889,0)" xlink:href="#N"/><use transform="matrix(0.010850694444444444,0,0,0.010850694444444444,34.72222222222222,0)" xlink:href="#O"/><use transform="matrix(0.010850694444444444,0,0,0.010850694444444444,43.58723958333333,0)" xlink:href="#E"/></g><path fill="#fff" d="M469-200c119 0 194-62 190-182-5-155-165-165-285-207C212-646 83-736 88-958c4-182 105-295 242-352 113-48 278-41 392 4 65 25 120 59 166 104l-67 124c-13 37-61 47-98 23-55-35-117-75-210-75-111 0-181 57-181 159 0 146 173 155 287 201 153 61 292 138 287 351-7 273-167 433-444 433-190 0-326-77-424-175l78-125c18-34 71-42 108-14 63 47 132 100 245 100" id="Q"/><path fill="#fff" d="M439 15c-225-4-332-150-332-377v-631h254v631c0 110 48 181 156 180 91-1 152-46 204-95v-716h254V0c-65-5-152 14-197-12-30-17-26-70-39-106C664-46 580 18 439 15" id="R"/><path fill="#fff" d="M545-767c-109 4-148 72-181 151V0H110v-993c66 5 161-12 204 14 28 28 23 102 33 150 53-94 116-183 244-183 43 0 79 10 107 31l-19 190c-6 59-87 22-134 24" id="S"/><g id="f"><use transform="matrix(0.010850694444444444,0,0,0.010850694444444444,0,0)" xlink:href="#Q"/><use transform="matrix(0.010850694444444444,0,0,0.010850694444444444,10.503472222222221,0)" xlink:href="#R"/><use transform="matrix(0.010850694444444444,0,0,0.010850694444444444,22.428385416666664,0)" xlink:href="#I"/><use transform="matrix(0.010850694444444444,0,0,0.010850694444444444,34.35329861111111,0)" xlink:href="#I"/><use transform="matrix(0.010850694444444444,0,0,0.010850694444444444,46.27821180555556,0)" xlink:href="#H"/><use transform="matrix(0.010850694444444444,0,0,0.010850694444444444,58.224826388888886,0)" xlink:href="#S"/><use transform="matrix(0.010850694444444444,0,0,0.010850694444444444,66.12413194444444,0)" xlink:href="#B"/></g><path fill="#fff" d="M1292-934c62 161 62 379 0 540-91 237-280 408-598 408S186-158 94-394c-62-161-63-379 0-540 92-237 282-409 600-409 317 0 507 173 598 409zM694-210c263 0 376-186 376-455 0-268-114-455-376-455-263 0-377 187-377 455 0 269 113 455 377 455" id="T"/><path fill="#fff" d="M467 269c-16 34-32 53-81 53H195L372-78 3-993h223c40-1 61 20 70 46 70 199 136 397 201 599 66-198 128-399 192-599 8-25 36-46 68-46h203" id="U"/><g id="g"><use transform="matrix(0.010850694444444444,0,0,0.010850694444444444,0,0)" xlink:href="#T"/><use transform="matrix(0.010850694444444444,0,0,0.010850694444444444,15.028211805555555,0)" xlink:href="#K"/><use transform="matrix(0.010850694444444444,0,0,0.010850694444444444,26.953125,0)" xlink:href="#G"/><use transform="matrix(0.010850694444444444,0,0,0.010850694444444444,32.41102430555556,0)" xlink:href="#U"/></g><path fill="#fff" d="M835-479c17 30 30 62 44 96 13-34 27-66 43-96l464-805c25-53 129-21 198-30V0h-161c1-334-2-672 1-1004 1-16 3-32 4-49L959-229c-25 56-126 55-158 0l-480-823c4 33 6 64 6 93V0H167v-1314c56 2 123-6 171 4 9 2 18 12 27 27" id="V"/><path fill="#fff" d="M323-978V0H147v-978h176zm-91-431c74 0 125 50 125 125 0 74-52 123-125 123s-122-50-122-123c0-74 48-125 122-125" id="W"/><path fill="#fff" d="M575-854c-119 2-197 63-259 134V0H140v-978c55 7 141-23 150 36l15 104c78-83 170-155 321-155 223 0 325 146 325 370V0H775v-623c0-140-61-233-200-231" id="X"/><path fill="#fff" d="M75-490c0-310 160-503 466-503s464 194 464 503c0 310-158 504-464 504C234 14 75-180 75-490zm181 1c0 215 74 366 285 366 210 0 283-152 283-366s-74-367-283-367c-211 0-285 152-285 367" id="Y"/><path fill="#fff" d="M536-823c-141 7-187 99-229 205V0H131v-978c60 8 148-26 154 48l12 144c58-123 149-234 328-202 18 3 34 11 49 21l-14 130c-12 52-78 12-124 14" id="Z"/><g id="h"><use transform="matrix(0.010850694444444444,0,0,0.010850694444444444,0,0)" xlink:href="#V"/><use transform="matrix(0.010850694444444444,0,0,0.010850694444444444,18.99956597222222,0)" xlink:href="#W"/><use transform="matrix(0.010850694444444444,0,0,0.010850694444444444,24.09939236111111,0)" xlink:href="#X"/><use transform="matrix(0.010850694444444444,0,0,0.010850694444444444,35.77473958333333,0)" xlink:href="#Y"/><use transform="matrix(0.010850694444444444,0,0,0.010850694444444444,47.49348958333333,0)" xlink:href="#Z"/></g><path fill="#fff" d="M544 14C232 14 75-190 75-509c0-226 105-376 267-447 57-25 122-37 193-37 265 0 410 167 410 437 0 47-2 68-42 68H249c7 217 94 359 310 364 110 2 183-39 248-80 70-44 93 39 123 67C847-42 716 14 544 14zm243-610c-5-164-86-266-249-269-173-3-262 113-284 269h533" id="aa"/><path fill="#fff" d="M323-1422V0H147v-1422h176" id="ab"/><path fill="#fff" d="M514-995c228 0 341 142 341 370V0c-56-5-123 17-137-41l-22-91C610-53 522 18 358 15 189 12 84-73 84-244c0-178 154-235 319-276 76-19 169-27 280-30 12-176-30-304-190-304-107 0-171 42-231 86-34 25-81 14-98-16l-32-56c98-93 207-155 382-155zM253-253c0 98 61 145 158 145 133 0 205-61 272-130v-202c-134 6-246 19-333 58-57 26-97 59-97 129" id="ac"/><path fill="#fff" d="M95-709c0-188 136-281 332-284 128-2 226 47 291 114-25 33-46 112-108 74-47-29-100-60-179-58-97 2-169 47-169 140 0 121 140 131 235 168 118 46 235 94 235 255C732-91 595 11 381 15 247 17 139-38 70-104c26-39 56-126 124-80 51 35 104 76 195 74 109-2 179-54 179-159 0-126-138-136-236-173C209-488 95-543 95-709" id="ad"/><g id="i"><use transform="matrix(0.010850694444444444,0,0,0.010850694444444444,0,0)" xlink:href="#Z"/><use transform="matrix(0.010850694444444444,0,0,0.010850694444444444,7.454427083333333,0)" xlink:href="#aa"/><use transform="matrix(0.010850694444444444,0,0,0.010850694444444444,18.51128472222222,0)" xlink:href="#ab"/><use transform="matrix(0.010850694444444444,0,0,0.010850694444444444,23.61111111111111,0)" xlink:href="#aa"/><use transform="matrix(0.010850694444444444,0,0,0.010850694444444444,34.66796875,0)" xlink:href="#ac"/><use transform="matrix(0.010850694444444444,0,0,0.010850694444444444,45.3125,0)" xlink:href="#ad"/><use transform="matrix(0.010850694444444444,0,0,0.010850694444444444,54.00390625,0)" xlink:href="#aa"/><use transform="matrix(0.010850694444444444,0,0,0.010850694444444444,65.06076388888889,0)" xlink:href="#ad"/></g><path fill="#fff" d="M75-653h478v149H75v-149" id="ae"/><use transform="matrix(0.010850694444444444,0,0,0.010850694444444444,0,0)" xlink:href="#ae" id="j"/><path fill="#fff" d="M304-1012c2 28 4 55 4 84V0H148v-1314c60 5 126-11 157 31l714 983c-2-29-5-61-5-91v-923h160V0c-61-3-126 10-156-32" id="af"/><path fill="#fff" d="M21-978c68 8 173-25 191 37 66 230 131 458 192 691 6 21 9 43 12 64 75-256 159-506 233-760 13-43 73-33 125-34 27 0 43 14 50 34 75 254 156 502 227 760 7-43 18-87 31-132l179-624c15-59 116-29 182-36L1136 0H996c-17 0-28-11-35-33-73-235-147-469-219-705-4-15-7-30-10-45-7 32-14 62-23 92L501-33C485 26 391-10 329 0" id="ag"/><g id="k"><use transform="matrix(0.010850694444444444,0,0,0.010850694444444444,0,0)" xlink:href="#af"/><use transform="matrix(0.010850694444444444,0,0,0.010850694444444444,14.344618055555555,0)" xlink:href="#aa"/><use transform="matrix(0.010850694444444444,0,0,0.010850694444444444,25.29296875,0)" xlink:href="#ag"/></g><path fill="#fff" d="M523-1269c-167-5-192 134-183 309h263v128H346V0H170v-831c-44-9-102-4-133-26-23-17-9-67-13-103h146c-18-271 76-439 324-444 44 0 83 8 117 19-9 39 11 106-29 113-15 2-34 3-59 3" id="ah"/><path fill="#fff" d="M650-73c-53 51-136 87-233 88-153 0-235-95-235-251v-596c-55-8-148 24-148-39v-70l154-20 41-301c4-50 80-28 129-33v335h269v128H358v584c-2 72 34 118 99 120 56 2 78-32 116-46 15 0 19 7 25 17" id="ai"/><path fill="#fff" d="M450 15c-223 0-325-146-325-370v-623h176v623c0 141 61 233 200 231 119-1 195-63 259-133v-721h176V0c-55-7-141 23-150-36l-16-104C692-57 602 15 450 15" id="aj"/><g id="l"><use transform="matrix(0.010850694444444444,0,0,0.010850694444444444,0,0)" xlink:href="#ah"/><use transform="matrix(0.010850694444444444,0,0,0.010850694444444444,6.228298611111111,0)" xlink:href="#aa"/><use transform="matrix(0.010850694444444444,0,0,0.010850694444444444,17.28515625,0)" xlink:href="#ac"/><use transform="matrix(0.010850694444444444,0,0,0.010850694444444444,27.72352430555556,0)" xlink:href="#ai"/><use transform="matrix(0.010850694444444444,0,0,0.010850694444444444,35.16710069444444,0)" xlink:href="#aj"/><use transform="matrix(0.010850694444444444,0,0,0.010850694444444444,46.842447916666664,0)" xlink:href="#Z"/><use transform="matrix(0.010850694444444444,0,0,0.010850694444444444,54.296875,0)" xlink:href="#aa"/><use transform="matrix(0.010850694444444444,0,0,0.010850694444444444,65.35373263888889,0)" xlink:href="#ad"/></g><path fill="#fff" d="M492-995c127 0 201 45 264 114v-541h176V0c-55-7-141 23-150-36l-18-117C688-64 595 14 440 14 170 14 74-204 74-486c0-228 88-392 242-470 52-26 111-39 176-39zM255-486c2 201 49 359 242 359 130 0 195-67 259-146v-473c-54-73-114-114-224-114-197 0-279 159-277 374" id="ak"/><g id="m"><use transform="matrix(0.010850694444444444,0,0,0.010850694444444444,0,0)" xlink:href="#ac"/><use transform="matrix(0.010850694444444444,0,0,0.010850694444444444,10.64453125,0)" xlink:href="#X"/><use transform="matrix(0.010850694444444444,0,0,0.010850694444444444,22.31987847222222,0)" xlink:href="#ak"/></g><path fill="#fff" d="M586 14c-139 0-211-58-275-138-12 47 7 124-53 124H144v-1422h176v583c74-85 165-154 314-154 264 0 368 206 368 479 0 238-85 409-243 490-51 25-109 38-173 38zm235-522c0-208-63-346-246-346-127 0-194 66-255 146v472c53 73 113 114 222 114 204 0 279-159 279-386" id="al"/><path fill="#fff" d="M107-679c0-208 143-315 355-315 85 0 156 21 210 54h256c-2 50 12 98-40 106l-104 15c21 43 31 89 31 140 0 207-143 315-353 315-43 0-82-5-118-15-46 21-87 104-30 135 178 96 598-48 598 268 0 166-119 253-254 300-155 54-396 24-493-50-56-42-101-97-101-181 0-110 73-167 160-201-52-25-92-64-89-140 3-77 56-136 120-167-84-50-148-136-148-264zm369 904c144 0 274-38 274-172C750-83 557-56 422-70c-32-3-63-4-93-9C273-48 218-8 218 71c0 125 123 154 258 154zM268-675c2 124 69 192 194 195 124 3 196-76 196-195 0-121-71-194-196-194-123 0-196 74-194 194" id="am"/><g id="n"><use transform="matrix(0.010850694444444444,0,0,0.010850694444444444,0,0)" xlink:href="#al"/><use transform="matrix(0.010850694444444444,0,0,0.010850694444444444,11.675347222222221,0)" xlink:href="#aj"/><use transform="matrix(0.010850694444444444,0,0,0.010850694444444444,23.350694444444443,0)" xlink:href="#am"/></g><path fill="#fff" d="M327-502L36-978h168c28 0 37 9 47 26l204 355c6-16 13-28 21-43l171-308c11-15 20-29 43-30h161L559-511 864 0H695c-27 1-44-19-53-36L435-406c-5 15-11 28-18 39L230-36c-11 17-23 37-50 36H23" id="an"/><g id="o"><use transform="matrix(0.010850694444444444,0,0,0.010850694444444444,0,0)" xlink:href="#ah"/><use transform="matrix(0.010850694444444444,0,0,0.010850694444444444,6.781684027777778,0)" xlink:href="#W"/><use transform="matrix(0.010850694444444444,0,0,0.010850694444444444,11.881510416666666,0)" xlink:href="#an"/><use transform="matrix(0.010850694444444444,0,0,0.010850694444444444,20.920138888888886,0)" xlink:href="#aa"/><use transform="matrix(0.010850694444444444,0,0,0.010850694444444444,31.976996527777775,0)" xlink:href="#ad"/></g><path fill="#fff" d="M523 15C238 15 92-170 92-458c0-173 68-287 155-413l322-470c36-61 157-38 250-42-146 199-294 396-439 596 80-61 238-82 352-34 142 60 235 185 235 385 0 213-110 349-263 416-54 23-115 35-181 35zm5-729c-170 0-266 117-266 287 0 178 83 297 258 297 174 0 271-117 271-293 0-177-89-291-263-291" id="ao"/><use transform="matrix(0.010850694444444444,0,0,0.010850694444444444,0,0)" xlink:href="#ao" id="p"/><path fill="#fff" d="M576-854c-119 2-194 64-257 135V0H143v-1422h176v573c76-79 163-144 308-144 223 0 324 146 324 370V0H775v-623c0-140-60-233-199-231" id="ap"/><g id="q"><use transform="matrix(0.010850694444444444,0,0,0.010850694444444444,0,0)" xlink:href="#V"/><use transform="matrix(0.010850694444444444,0,0,0.010850694444444444,18.99956597222222,0)" xlink:href="#Y"/><use transform="matrix(0.010850694444444444,0,0,0.010850694444444444,30.71831597222222,0)" xlink:href="#X"/><use transform="matrix(0.010850694444444444,0,0,0.010850694444444444,42.1875,0)" xlink:href="#ai"/><use transform="matrix(0.010850694444444444,0,0,0.010850694444444444,49.631076388888886,0)" xlink:href="#ap"/><use transform="matrix(0.010850694444444444,0,0,0.010850694444444444,61.30642361111111,0)" xlink:href="#ad"/></g><use transform="matrix(0.010850694444444444,0,0,0.010850694444444444,0,0)" xlink:href="#ae" id="r"/><path fill="#fff" d="M1026-375C1026-119 851 0 588 0H144v-1314h401c262 1 440 88 440 343 0 167-103 249-235 295 165 32 276 118 276 301zm-181-4c0-148-98-219-260-219H326v454h259c164-1 260-74 260-235zm-41-570c0-163-89-221-259-222H326v445h212c160-3 266-67 266-223" id="aq"/><g id="s"><use transform="matrix(0.010850694444444444,0,0,0.010850694444444444,0,0)" xlink:href="#aq"/><use transform="matrix(0.010850694444444444,0,0,0.010850694444444444,12.08767361111111,0)" xlink:href="#aj"/><use transform="matrix(0.010850694444444444,0,0,0.010850694444444444,23.763020833333332,0)" xlink:href="#am"/></g><g id="t"><use transform="matrix(0.010850694444444444,0,0,0.010850694444444444,0,0)" xlink:href="#ah"/><use transform="matrix(0.010850694444444444,0,0,0.010850694444444444,6.781684027777778,0)" xlink:href="#W"/><use transform="matrix(0.010850694444444444,0,0,0.010850694444444444,11.881510416666666,0)" xlink:href="#an"/></g><g id="u"><use transform="matrix(0.010850694444444444,0,0,0.010850694444444444,0,0)" xlink:href="#Z"/><use transform="matrix(0.010850694444444444,0,0,0.010850694444444444,7.454427083333333,0)" xlink:href="#aa"/><use transform="matrix(0.010850694444444444,0,0,0.010850694444444444,18.51128472222222,0)" xlink:href="#ab"/><use transform="matrix(0.010850694444444444,0,0,0.010850694444444444,23.61111111111111,0)" xlink:href="#aa"/><use transform="matrix(0.010850694444444444,0,0,0.010850694444444444,34.66796875,0)" xlink:href="#ac"/><use transform="matrix(0.010850694444444444,0,0,0.010850694444444444,45.3125,0)" xlink:href="#ad"/><use transform="matrix(0.010850694444444444,0,0,0.010850694444444444,54.00390625,0)" xlink:href="#aa"/><use transform="matrix(0.010850694444444444,0,0,0.010850694444444444,65.06076388888889,0)" xlink:href="#ad"/></g><path fill="#fff" d="M454-137c154-4 244-84 244-236 0-172-165-194-295-240-161-57-303-135-295-354 9-227 154-362 390-362 152 0 266 55 344 137l-45 85c-37 63-91-1-127-21-44-25-97-52-170-50-136 3-221 69-221 201 0 166 169 187 295 236 153 60 300 130 295 341-6 260-155 414-419 414-174 0-309-76-395-172 24-34 40-77 71-104 55-23 84 36 125 60 52 30 115 67 203 65" id="ar"/><path fill="#fff" d="M581 14c-127 0-201-47-264-114v430H141V-978c55 7 141-23 150 36l17 114c76-89 171-167 326-167 271 0 368 217 368 499 0 229-91 393-245 471-52 26-111 39-176 39zm240-510c-2-202-50-358-245-358-128 0-197 66-259 146v472c53 73 114 114 225 114 198 0 281-159 279-374" id="as"/><g id="v"><use transform="matrix(0.010850694444444444,0,0,0.010850694444444444,0,0)" xlink:href="#ar"/><use transform="matrix(0.010850694444444444,0,0,0.010850694444444444,10.210503472222221,0)" xlink:href="#aj"/><use transform="matrix(0.010850694444444444,0,0,0.010850694444444444,21.885850694444443,0)" xlink:href="#as"/><use transform="matrix(0.010850694444444444,0,0,0.010850694444444444,33.561197916666664,0)" xlink:href="#as"/><use transform="matrix(0.010850694444444444,0,0,0.010850694444444444,45.236545138888886,0)" xlink:href="#Y"/><use transform="matrix(0.010850694444444444,0,0,0.010850694444444444,56.955295138888886,0)" xlink:href="#Z"/><use transform="matrix(0.010850694444444444,0,0,0.010850694444444444,64.70269097222221,0)" xlink:href="#ai"/></g><path fill="#fff" d="M409 288c-14 65-120 35-192 42L385-58 11-978h152c30-1 46 16 53 36 86 232 175 459 256 696 80-235 169-463 250-696 20-58 122-29 191-36" id="at"/><g id="w"><use transform="matrix(0.010850694444444444,0,0,0.010850694444444444,0,0)" xlink:href="#Y"/><use transform="matrix(0.010850694444444444,0,0,0.010850694444444444,11.71875,0)" xlink:href="#X"/><use transform="matrix(0.010850694444444444,0,0,0.010850694444444444,23.39409722222222,0)" xlink:href="#ab"/><use transform="matrix(0.010850694444444444,0,0,0.010850694444444444,28.49392361111111,0)" xlink:href="#at"/></g><path fill="#fff" d="M255-128h273c2-322-4-651 3-968L308-900c-25 26-63 14-78-6l-53-73 383-339h136v1190h250V0H255v-128" id="au"/><path fill="#fff" d="M118-957c35-227 168-372 421-372 237 0 388 129 388 367 0 234-144 350-265 476L325-135c155-43 377-15 567-23 76-4 57 87 59 158H92c-1-54 1-99 31-129 169-170 344-341 501-522 70-81 131-166 131-307 0-146-81-228-225-228-138 0-213 81-243 193-11 42-31 58-82 50" id="av"/><g id="x"><use transform="matrix(0.010850694444444444,0,0,0.010850694444444444,0,0)" xlink:href="#au"/><use transform="matrix(0.010850694444444444,0,0,0.010850694444444444,11.263020833333332,0)" xlink:href="#av"/></g><g id="y"><use transform="matrix(0.010850694444444444,0,0,0.010850694444444444,0,0)" xlink:href="#V"/><use transform="matrix(0.010850694444444444,0,0,0.010850694444444444,18.99956597222222,0)" xlink:href="#Y"/><use transform="matrix(0.010850694444444444,0,0,0.010850694444444444,30.71831597222222,0)" xlink:href="#X"/><use transform="matrix(0.010850694444444444,0,0,0.010850694444444444,42.1875,0)" xlink:href="#ai"/><use transform="matrix(0.010850694444444444,0,0,0.010850694444444444,49.631076388888886,0)" xlink:href="#ap"/><use transform="matrix(0.010850694444444444,0,0,0.010850694444444444,61.30642361111111,0)" xlink:href="#ad"/></g></defs></g></svg>