<svg xmlns="http://www.w3.org/2000/svg" xmlns:xlink="http://www.w3.org/1999/xlink" xmlns:lucid="lucid" width="1792.41" height="980.89"><g transform="translate(608.0541723705401 66.52421503674054)" lucid:page-tab-id="RxZ4dIY6hwKH"><path d="M-606.55-29.02a36 36 0 0 1 36-36h1717.4a36 36 0 0 1 36 36v905.88a36 36 0 0 1-36 36h-1717.4a36 36 0 0 1-36-36z" stroke="#979ea8" stroke-width="3" fill="#979ea8"/><use xlink:href="#a" transform="matrix(1,0,0,1,-601.5541723705401,-60.02421503674054) translate(856.8815432098766 17.77777777777778)"/><path d="M-565.58 27.2a36 36 0 0 1 36-36h1636.05a36 36 0 0 1 36 36v808.85a36 36 0 0 1-36 36H-529.58a36 36 0 0 1-36-36z" stroke="#dfe3e8" stroke-width="3" fill="#dfe3e8"/><use xlink:href="#b" transform="matrix(1,0,0,1,-560.5753333963355,-3.7911905794881022) translate(835.4247530864197 17.77777777777778)"/><path d="M-501.33 429.03a19 19 0 0 1 19-19H1065.7a19 19 0 0 1 19 19v385.35a19 19 0 0 1-19 19H-482.32a19 19 0 0 1-19-19z" stroke="#edf5ff" stroke-width="3" fill="#edf5ff"/><use xlink:href="#c" transform="matrix(1,0,0,1,-496.33158264623876,415.03432797231926) translate(731.9247530864197 412.0515057777778)"/><path d="M40.33 67.54a19 19 0 0 1 19-19h456.83a19 19 0 0 1 19 19v133.3a19 19 0 0 1-19 19H59.33a19 19 0 0 1-19-19z" stroke="#edf5ff" stroke-width="3" fill="#edf5ff"/><use xlink:href="#d" transform="matrix(1,0,0,1,45.33395823726323,53.543581678050316) translate(182.03703703703704 17.77777777777778)"/><g filter="url(#e)"><path d="M536.78 474.86a.5.5 0 0 1 .5-.5h168.64a.5.5 0 0 1 .5.5v93.42a.5.5 0 0 1-.5.5H537.28a.5.5 0 0 1-.5-.5z" fill="#fff" fill-opacity="0"/><path d="M537.28 474.36a.5.5 0 0 0-.5.5v93.42a.5.5 0 0 0 .5.5h168.64a.5.5 0 0 0 .5-.5v-93.42a.5.5 0 0 0-.5-.5z" stroke="#315796" stroke-width="3" fill="#315796"/><use xlink:href="#f" transform="matrix(1,0,0,1,546.6163532650644,485.4049188151301) translate(14.283854166666664 43.166666666666664)"/></g><g filter="url(#e)"><path d="M776.78 474.86a.5.5 0 0 1 .5-.5h168.64a.5.5 0 0 1 .5.5v93.42a.5.5 0 0 1-.5.5H777.28a.5.5 0 0 1-.5-.5z" fill="#fff" fill-opacity="0"/><path d="M777.28 474.36a.5.5 0 0 0-.5.5v93.42a.5.5 0 0 0 .5.5h168.64a.5.5 0 0 0 .5-.5v-93.42a.5.5 0 0 0-.5-.5z" stroke="#315796" stroke-width="3" fill="#315796"/><use xlink:href="#g" transform="matrix(1,0,0,1,786.6163532650644,485.4049188151301) translate(14.889322916666664 43.166666666666664)"/></g><g filter="url(#e)"><path d="M-451.5 474.86a.5.5 0 0 1 .5-.5h168.65a.5.5 0 0 1 .5.5v93.42a.5.5 0 0 1-.5.5h-168.63a.5.5 0 0 1-.5-.5z" fill="#fff" fill-opacity="0"/><path d="M-451 474.36a.5.5 0 0 0-.5.5v93.42a.5.5 0 0 0 .5.5h168.65a.5.5 0 0 0 .5-.5v-93.42a.5.5 0 0 0-.5-.5z" stroke="#315796" stroke-width="3" fill="#315796"/><use xlink:href="#h" transform="matrix(1,0,0,1,-441.6462680726874,485.40491881513054) translate(14.283854166666664 43.166666666666664)"/></g><g filter="url(#e)"><path d="M-211.5 474.86a.5.5 0 0 1 .5-.5h168.65a.5.5 0 0 1 .5.5v93.42a.5.5 0 0 1-.5.5h-168.63a.5.5 0 0 1-.5-.5z" fill="#fff" fill-opacity="0"/><path d="M-211 474.36a.5.5 0 0 0-.5.5v93.42a.5.5 0 0 0 .5.5h168.65a.5.5 0 0 0 .5-.5v-93.42a.5.5 0 0 0-.5-.5z" stroke="#315796" stroke-width="3" fill="#315796"/><use xlink:href="#i" transform="matrix(1,0,0,1,-201.6462680726874,485.40491881513054) translate(14.889322916666664 43.166666666666664)"/></g><path d="M-278.85 509.05h64.37" stroke="#5e5e5e" stroke-width="3" fill="none"/><path d="M-278.8 510.52h-1.55v-2.94h1.54zM-213 510.52h-1.52v-2.95h1.53z" stroke="#5e5e5e" stroke-width=".05" fill="#5e5e5e"/><path d="M-278.85 534.1l64.37-.02" stroke="#5e5e5e" stroke-width="3" fill="none"/><path d="M-278.8 535.56h-1.55v-2.95h1.54zM-213 535.56h-1.52v-2.95h1.53z" stroke="#5e5e5e" stroke-width=".05" fill="#5e5e5e"/><path d="M709.42 509.05h64.36" stroke="#5e5e5e" stroke-width="3" fill="none"/><path d="M709.45 510.52h-1.53v-2.94h1.53zM775.28 510.52h-1.54v-2.95h1.54z" stroke="#5e5e5e" stroke-width=".05" fill="#5e5e5e"/><path d="M709.42 534.1l64.36-.02" stroke="#5e5e5e" stroke-width="3" fill="none"/><path d="M709.45 535.56h-1.53v-2.95h1.53zM775.28 535.56h-1.54v-2.95h1.54z" stroke="#5e5e5e" stroke-width=".05" fill="#5e5e5e"/><g filter="url(#e)"><path d="M63.25 92.14a.5.5 0 0 1 .5-.5H232.4a.5.5 0 0 1 .5.5v93.42a.5.5 0 0 1-.5.5H63.74a.5.5 0 0 1-.5-.5z" fill="#fff" fill-opacity="0"/><path d="M63.75 91.64a.5.5 0 0 0-.5.5v93.42a.5.5 0 0 0 .5.5H232.4a.5.5 0 0 0 .5-.5V92.14a.5.5 0 0 0-.5-.5z" stroke="#315796" stroke-width="3" fill="#315796"/><use xlink:href="#j" transform="matrix(1,0,0,1,73.09102612130147,102.68370558026727) translate(16.30208333333333 43.166666666666664)"/></g><g filter="url(#e)"><path d="M343.25 92.14a.5.5 0 0 1 .5-.5H512.4a.5.5 0 0 1 .5.5v93.42a.5.5 0 0 1-.5.5H343.74a.5.5 0 0 1-.5-.5z" fill="#fff" fill-opacity="0"/><path d="M343.75 91.64a.5.5 0 0 0-.5.5v93.42a.5.5 0 0 0 .5.5H512.4a.5.5 0 0 0 .5-.5V92.14a.5.5 0 0 0-.5-.5z" stroke="#315796" stroke-width="3" fill="#315796"/><use xlink:href="#k" transform="matrix(1,0,0,1,353.0910261213016,102.68370558026727) translate(16.30208333333333 43.166666666666664)"/></g><path d="M-299.95 471.96l381.3-283.5" stroke="#5e5e5e" stroke-width="3" fill="none"/><path d="M-299.24 472.86h-1.92l-.88-1.2 1.24-.9zM85.03 187.56l-2.82 2.1-1.56-2.1z" stroke="#5e5e5e" stroke-width=".05" fill="#5e5e5e"/><path d="M-54.83 472l411.06-283.6" stroke="#5e5e5e" stroke-width="3" fill="none"/><path d="M-54.2 472.86h-4.46l3.02-2.1zM360.07 187.56l-3.03 2.08-1.44-2.08z" stroke="#5e5e5e" stroke-width=".05" fill="#5e5e5e"/><path d="M560.16 471.92L209.5 188.5" stroke="#5e5e5e" stroke-width="3" fill="none"/><path d="M563.68 472.86h-4.33l1.7-2.12zM210.3 187.56l-1.7 2.1-2.6-2.1z" stroke="#5e5e5e" stroke-width=".05" fill="#5e5e5e"/><path d="M596.3 471.52L453.37 188.9" stroke="#5e5e5e" stroke-width="3" fill="none"/><path d="M598.62 472.86h-3.3l-.36-.7 2.63-1.34zM454.35 187.56l.36.7-2.62 1.33-1.03-2.04z" stroke="#5e5e5e" stroke-width=".05" fill="#5e5e5e"/><path d="M773.96 474.56L235.7 185.86" stroke="#5e5e5e" stroke-width="3" fill="none"/><path d="M775.6 473.76l-.24.47-.08.5v2.2l-2.06-1.1 1.4-2.6zM236.44 184.57l-1.4 2.6-.97-.52.24-.47.1-.5v-2.2z" stroke="#5e5e5e" stroke-width=".05" fill="#5e5e5e"/><path d="M805.3 471.87L484.37 188.55" stroke="#5e5e5e" stroke-width="3" fill="none"/><path d="M808.65 472.86h-4.28l1.88-2.13zM485.3 187.56l-1.88 2.12-2.4-2.13z" stroke="#5e5e5e" stroke-width=".05" fill="#5e5e5e"/><path d="M235.9 121.62h104.35" stroke="#5e5e5e" stroke-width="3" fill="none"/><path d="M235.93 123.1h-1.54v-2.95h1.53zM341.75 123.1h-1.54v-2.96h1.55z" stroke="#5e5e5e" stroke-width=".05" fill="#5e5e5e"/><path d="M235.9 146.65h104.35" stroke="#5e5e5e" stroke-width="3" fill="none"/><path d="M235.93 148.13h-1.54v-2.95h1.53zM341.75 148.13h-1.54v-2.95h1.55z" stroke="#5e5e5e" stroke-width=".05" fill="#5e5e5e"/><path d="M286.16 158c-3.8 0-6.9-10.38-6.9-23.18 0-12.8 3.1-23.18 6.9-23.18 3.82 0 6.9 10.38 6.9 23.18 0 12.8-3.08 23.18-6.9 23.18zM-246.84 544c-3.8 0-6.9-10.38-6.9-23.18 0-12.8 3.1-23.18 6.9-23.18 3.82 0 6.9 10.38 6.9 23.18 0 12.8-3.08 23.18-6.9 23.18zM740.16 545c-3.8 0-6.9-10.38-6.9-23.18 0-12.8 3.1-23.18 6.9-23.18 3.82 0 6.9 10.38 6.9 23.18 0 12.8-3.08 23.18-6.9 23.18z" stroke="#5e5e5e" stroke-width="2" fill-opacity="0"/><g filter="url(#l)"><path d="M172.27 474.6a.5.5 0 0 1 .5-.5H341.4a.5.5 0 0 1 .5.5v185.7a.5.5 0 0 1-.5.5H172.78a.5.5 0 0 1-.5-.5z" fill="#fff" fill-opacity="0"/><path d="M172.77 474.1a.5.5 0 0 0-.5.5v185.7a.5.5 0 0 0 .5.5H341.4a.5.5 0 0 0 .5-.5V474.6a.5.5 0 0 0-.5-.5z" stroke="#315796" stroke-width="3" fill="#315796"/><use xlink:href="#m" transform="matrix(1,0,0,1,182.10864530021848,495.9424796210006) translate(14.283854166666664 78.66666666666666)"/></g><g filter="url(#e)"><path d="M438.7 684.37a.5.5 0 0 1 .5-.5h168.65a.5.5 0 0 1 .5.5v93.42a.5.5 0 0 1-.5.5H439.2a.5.5 0 0 1-.5-.5z" fill="#fff" fill-opacity="0"/><path d="M439.2 683.87a.5.5 0 0 0-.5.5v93.42a.5.5 0 0 0 .5.5h168.65a.5.5 0 0 0 .5-.5v-93.43a.5.5 0 0 0-.5-.5z" stroke="#315796" stroke-width="3" fill="#315796"/><use xlink:href="#n" transform="matrix(1,0,0,1,448.55224139550677,694.9184741994867) translate(15.305989583333336 43.166666666666664)"/></g><g filter="url(#e)"><path d="M656.35 684.37a.5.5 0 0 1 .5-.5H825.5a.5.5 0 0 1 .5.5v93.42a.5.5 0 0 1-.5.5H656.84a.5.5 0 0 1-.5-.5z" fill="#fff" fill-opacity="0"/><path d="M656.85 683.87a.5.5 0 0 0-.5.5v93.42a.5.5 0 0 0 .5.5H825.5a.5.5 0 0 0 .5-.5v-93.43a.5.5 0 0 0-.5-.5z" stroke="#315796" stroke-width="3" fill="#315796"/><use xlink:href="#o" transform="matrix(1,0,0,1,666.1907624587441,694.9184741994867) translate(13.958333333333329 43.166666666666664)"/></g><g filter="url(#e)"><path d="M874 684.37a.5.5 0 0 1 .5-.5h168.63a.5.5 0 0 1 .5.5v93.42a.5.5 0 0 1-.5.5H874.5a.5.5 0 0 1-.5-.5z" fill="#fff" fill-opacity="0"/><path d="M874.5 683.87a.5.5 0 0 0-.5.5v93.42a.5.5 0 0 0 .5.5h168.63a.5.5 0 0 0 .5-.5v-93.43a.5.5 0 0 0-.5-.5z" stroke="#315796" stroke-width="3" fill="#315796"/><use xlink:href="#p" transform="matrix(1,0,0,1,883.8292835219813,694.9184741994867) translate(15.859375 43.166666666666664)"/></g><path d="M546.97 681l51.2-109.37" stroke="#5e5e5e" stroke-width="3" fill="none"/><path d="M548.32 681.6l-.36.77h-3.26l.95-2.02zM600.43 570.28l-.95 2-2.67-1.24.37-.76z" stroke="#5e5e5e" stroke-width=".05" fill="#5e5e5e"/><path d="M603.4 681.58l178.33-110.5" stroke="#5e5e5e" stroke-width="3" fill="none"/><path d="M603.94 682.37h-4.6l3.32-2.06zM785.8 570.28l-3.33 2.06-1.28-2.06z" stroke="#5e5e5e" stroke-width=".05" fill="#5e5e5e"/><path d="M712.63 681.07l-62.5-109.5" stroke="#5e5e5e" stroke-width="3" fill="none"/><path d="M715.07 682.37h-3.4l-.34-.6 2.56-1.47zM651.1 570.28l.34.6-2.56 1.46-.76-1.33 1.28-.72z" stroke="#5e5e5e" stroke-width=".05" fill="#5e5e5e"/><path d="M769.92 681.07l62.93-109.5" stroke="#5e5e5e" stroke-width="3" fill="none"/><path d="M771.2 681.77l-.33.6h-3.4l1.2-2.07zM835.3 570.28l-1.2 2.07-2.55-1.48.35-.6z" stroke="#5e5e5e" stroke-width=".05" fill="#5e5e5e"/><path d="M879.14 681.58l-177.87-110.5" stroke="#5e5e5e" stroke-width="3" fill="none"/><path d="M883.2 682.37h-4.6l1.28-2.06zM701.8 570.28l-1.28 2.06-3.32-2.06z" stroke="#5e5e5e" stroke-width=".05" fill="#5e5e5e"/><path d="M977.85 681.1l-83.5-132.4" stroke="#5e5e5e" stroke-width="3" fill="none"/><path d="M980.4 682.37h-3.5l-.32-.5 2.5-1.6z" stroke="#5e5e5e" stroke-width=".05" fill="#5e5e5e"/><path d="M894.37 548.74l-.82-1.3M238.34 471.18L133.48 174.96" stroke="#5e5e5e" stroke-width="3" fill="none"/><path d="M240.4 472.6h-3.13l-.34-.96 2.78-1z" stroke="#5e5e5e" stroke-width=".05" fill="#5e5e5e"/><path d="M133.5 175l-.53-1.45M295.5 471.2l112.58-282.25" stroke="#5e5e5e" stroke-width="3" fill="none"/><path d="M296.87 471.7l-.35.9h-3.18l.8-1.98zM410.23 187.56l-.8 1.97-2.73-1.1.35-.88z" stroke="#5e5e5e" stroke-width=".05" fill="#5e5e5e"/><defs><path fill="#333" d="M199 0l-22-63H83L61 0H9l90-248h61L250 0h-51zm-33-102l-36-108c-10 38-24 72-36 108h72" id="q"/><path fill="#333" d="M67-125c0 53 21 87 73 88 37 1 54-22 65-47l45 17C233-25 199 4 140 4 58 4 20-42 15-125 8-235 124-281 211-232c18 10 29 29 36 50l-46 12c-8-25-30-41-62-41-52 0-71 34-72 86" id="r"/><path fill="#333" d="M230 0l2-204L168 0h-37L68-204 70 0H24v-248h70l56 185 57-185h69V0h-46" id="s"/><path fill="#333" d="M24 0v-248h195v40H76v63h132v40H76v65h150V0H24" id="t"/><g id="a"><use transform="matrix(0.06172839506172839,0,0,0.06172839506172839,0,0)" xlink:href="#q"/><use transform="matrix(0.06172839506172839,0,0,0.06172839506172839,15.987654320987653,0)" xlink:href="#r"/><use transform="matrix(0.06172839506172839,0,0,0.06172839506172839,31.975308641975307,0)" xlink:href="#s"/><use transform="matrix(0.06172839506172839,0,0,0.06172839506172839,50.432098765432094,0)" xlink:href="#t"/></g><path fill="#333" d="M169-182c-1-43-94-46-97-3 18 66 151 10 154 114 3 95-165 93-204 36-6-8-10-19-12-30l50-8c3 46 112 56 116 5-17-69-150-10-154-114-4-87 153-88 188-35 5 8 8 18 10 28" id="u"/><path fill="#333" d="M23 0v-37h61v-169l-59 37v-38l62-41h46v211h57V0H23" id="v"/><g id="b"><use transform="matrix(0.06172839506172839,0,0,0.06172839506172839,0,0)" xlink:href="#u"/><use transform="matrix(0.06172839506172839,0,0,0.06172839506172839,14.814814814814813,0)" xlink:href="#v"/></g><path fill="#333" d="M-4 44V30h207v14H-4" id="w"/><path fill="#333" d="M24 0v-248h52v208h133V0H24" id="x"/><path fill="#333" d="M76-208v77h127v40H76V0H24v-248h183v40H76" id="y"/><g id="c"><use transform="matrix(0.06172839506172839,0,0,0.06172839506172839,0,0)" xlink:href="#u"/><use transform="matrix(0.06172839506172839,0,0,0.06172839506172839,14.814814814814813,0)" xlink:href="#v"/><use transform="matrix(0.06172839506172839,0,0,0.06172839506172839,27.160493827160494,0)" xlink:href="#w"/><use transform="matrix(0.06172839506172839,0,0,0.06172839506172839,39.50617283950617,0)" xlink:href="#x"/><use transform="matrix(0.06172839506172839,0,0,0.06172839506172839,53.02469135802469,0)" xlink:href="#t"/><use transform="matrix(0.06172839506172839,0,0,0.06172839506172839,67.8395061728395,0)" xlink:href="#q"/><use transform="matrix(0.06172839506172839,0,0,0.06172839506172839,83.82716049382717,0)" xlink:href="#y"/><use transform="matrix(0.06172839506172839,0,0,0.06172839506172839,97.34567901234568,0)" xlink:href="#u"/></g><path fill="#333" d="M24-248c93 1 206-16 204 79-1 75-69 88-152 82V0H24v-248zm52 121c47 0 100 7 100-41 0-47-54-39-100-39v80" id="z"/><path fill="#333" d="M24 0v-248h52V0H24" id="A"/><path fill="#333" d="M175 0L67-191c6 58 2 128 3 191H24v-248h59L193-55c-6-58-2-129-3-193h46V0h-61" id="B"/><g id="d"><use transform="matrix(0.06172839506172839,0,0,0.06172839506172839,0,0)" xlink:href="#u"/><use transform="matrix(0.06172839506172839,0,0,0.06172839506172839,14.814814814814813,0)" xlink:href="#v"/><use transform="matrix(0.06172839506172839,0,0,0.06172839506172839,27.160493827160494,0)" xlink:href="#w"/><use transform="matrix(0.06172839506172839,0,0,0.06172839506172839,39.50617283950617,0)" xlink:href="#u"/><use transform="matrix(0.06172839506172839,0,0,0.06172839506172839,54.32098765432099,0)" xlink:href="#z"/><use transform="matrix(0.06172839506172839,0,0,0.06172839506172839,69.1358024691358,0)" xlink:href="#A"/><use transform="matrix(0.06172839506172839,0,0,0.06172839506172839,75.30864197530863,0)" xlink:href="#B"/><use transform="matrix(0.06172839506172839,0,0,0.06172839506172839,91.29629629629629,0)" xlink:href="#t"/><use transform="matrix(0.06172839506172839,0,0,0.06172839506172839,106.1111111111111,0)" xlink:href="#u"/></g><path fill="#fff" d="M469-200c119 0 194-62 190-182-5-155-165-165-285-207C212-646 83-736 88-958c4-182 105-295 242-352 113-48 278-41 392 4 65 25 120 59 166 104l-67 124c-13 37-61 47-98 23-55-35-117-75-210-75-111 0-181 57-181 159 0 146 173 155 287 201 153 61 292 138 287 351-7 273-167 433-444 433-190 0-326-77-424-175l78-125c18-34 71-42 108-14 63 47 132 100 245 100" id="C"/><path fill="#fff" d="M236-180h257c2-279-3-565 3-840L323-871c-27 30-91 18-110-9l-76-104 399-346h198v1150h227V0H236v-180" id="D"/><path fill="#fff" d="M1020 122v164H0V122h1020" id="E"/><path fill="#fff" d="M371-216h461V0H108v-1328h263v1112" id="F"/><path fill="#fff" d="M928-1328v209H382v351h425v201H382v358h547L928 0H118v-1328h810" id="G"/><path fill="#fff" d="M1240 0h-202c-47 1-76-24-87-58l-84-261H378L295-59c-11 29-44 59-86 59H4l484-1328h268zM437-503h370c-61-196-127-384-186-583-56 202-123 386-184 583" id="H"/><path fill="#fff" d="M890-1328v209H373v376h433v209H373V0H109v-1328h781" id="I"/><path fill="#fff" d="M113-955c38-239 181-388 448-388 186 0 310 81 369 209 18 42 27 87 27 134 1 168-77 256-203 297 151 51 227 154 227 307C981-126 800 8 532 14 260 20 143-131 76-338c63-25 186-102 236-14 46 82 93 164 218 164 130 0 203-76 210-200 9-175-112-206-288-206v-171c158-2 269-37 269-193 0-117-60-182-173-183-99-1-165 67-190 142-19 57-44 79-118 66" id="J"/><g id="f"><use transform="matrix(0.013020833333333334,0,0,0.013020833333333334,0,0)" xlink:href="#C"/><use transform="matrix(0.013020833333333334,0,0,0.013020833333333334,12.604166666666668,0)" xlink:href="#D"/><use transform="matrix(0.013020833333333334,0,0,0.013020833333333334,26.119791666666668,0)" xlink:href="#E"/><use transform="matrix(0.013020833333333334,0,0,0.013020833333333334,39.40104166666667,0)" xlink:href="#F"/><use transform="matrix(0.013020833333333334,0,0,0.013020833333333334,50.67708333333334,0)" xlink:href="#G"/><use transform="matrix(0.013020833333333334,0,0,0.013020833333333334,63.359375,0)" xlink:href="#H"/><use transform="matrix(0.013020833333333334,0,0,0.013020833333333334,79.51822916666667,0)" xlink:href="#I"/><use transform="matrix(0.013020833333333334,0,0,0.013020833333333334,91.7578125,0)" xlink:href="#J"/><use transform="matrix(0.013020833333333334,0,0,0.013020833333333334,105.2734375,0)" xlink:href="#H"/></g><filter id="e" filterUnits="objectBoundingBox" x="-.06" y="-.04" width="1.12" height="1.21"><feOffset result="offOut" in="SourceAlpha" dy="6"/><feGaussianBlur result="blurOut" in="offOut" stdDeviation="5"/><feColorMatrix result="colorOut" in="blurOut" values="0 0 0 0 0 0 0 0 0 0 0 0 0 0 0 0 0 0 0.5019607843137255 0"/><feBlend in="SourceGraphic" in2="colorOut"/></filter><path fill="#fff" d="M1048-974c0 163-99 241-224 288 171 41 257 139 257 293C1081-125 889 0 612 0H119v-1328h451c279 2 478 84 478 354zM823-399c0-131-83-178-217-178H382v373h225c139 0 216-61 216-195zm-37-542c0-143-71-185-216-185H382v368h173c140-1 231-45 231-183" id="K"/><g id="g"><use transform="matrix(0.013020833333333334,0,0,0.013020833333333334,0,0)" xlink:href="#C"/><use transform="matrix(0.013020833333333334,0,0,0.013020833333333334,12.604166666666668,0)" xlink:href="#D"/><use transform="matrix(0.013020833333333334,0,0,0.013020833333333334,26.119791666666668,0)" xlink:href="#E"/><use transform="matrix(0.013020833333333334,0,0,0.013020833333333334,39.40104166666667,0)" xlink:href="#F"/><use transform="matrix(0.013020833333333334,0,0,0.013020833333333334,50.67708333333334,0)" xlink:href="#G"/><use transform="matrix(0.013020833333333334,0,0,0.013020833333333334,63.359375,0)" xlink:href="#H"/><use transform="matrix(0.013020833333333334,0,0,0.013020833333333334,79.51822916666667,0)" xlink:href="#I"/><use transform="matrix(0.013020833333333334,0,0,0.013020833333333334,91.7578125,0)" xlink:href="#J"/><use transform="matrix(0.013020833333333334,0,0,0.013020833333333334,105.2734375,0)" xlink:href="#K"/></g><g id="h"><use transform="matrix(0.013020833333333334,0,0,0.013020833333333334,0,0)" xlink:href="#C"/><use transform="matrix(0.013020833333333334,0,0,0.013020833333333334,12.604166666666668,0)" xlink:href="#D"/><use transform="matrix(0.013020833333333334,0,0,0.013020833333333334,26.119791666666668,0)" xlink:href="#E"/><use transform="matrix(0.013020833333333334,0,0,0.013020833333333334,39.40104166666667,0)" xlink:href="#F"/><use transform="matrix(0.013020833333333334,0,0,0.013020833333333334,50.67708333333334,0)" xlink:href="#G"/><use transform="matrix(0.013020833333333334,0,0,0.013020833333333334,63.359375,0)" xlink:href="#H"/><use transform="matrix(0.013020833333333334,0,0,0.013020833333333334,79.51822916666667,0)" xlink:href="#I"/><use transform="matrix(0.013020833333333334,0,0,0.013020833333333334,91.7578125,0)" xlink:href="#D"/><use transform="matrix(0.013020833333333334,0,0,0.013020833333333334,105.2734375,0)" xlink:href="#H"/></g><g id="i"><use transform="matrix(0.013020833333333334,0,0,0.013020833333333334,0,0)" xlink:href="#C"/><use transform="matrix(0.013020833333333334,0,0,0.013020833333333334,12.604166666666668,0)" xlink:href="#D"/><use transform="matrix(0.013020833333333334,0,0,0.013020833333333334,26.119791666666668,0)" xlink:href="#E"/><use transform="matrix(0.013020833333333334,0,0,0.013020833333333334,39.40104166666667,0)" xlink:href="#F"/><use transform="matrix(0.013020833333333334,0,0,0.013020833333333334,50.67708333333334,0)" xlink:href="#G"/><use transform="matrix(0.013020833333333334,0,0,0.013020833333333334,63.359375,0)" xlink:href="#H"/><use transform="matrix(0.013020833333333334,0,0,0.013020833333333334,79.51822916666667,0)" xlink:href="#I"/><use transform="matrix(0.013020833333333334,0,0,0.013020833333333334,91.7578125,0)" xlink:href="#D"/><use transform="matrix(0.013020833333333334,0,0,0.013020833333333334,105.2734375,0)" xlink:href="#K"/></g><path fill="#fff" d="M1037-902c0 300-189 436-495 441H378V0H115v-1328h427c303 4 495 131 495 426zm-263 0c0-143-81-224-232-224H378v461h164c156 2 232-87 232-237" id="L"/><path fill="#fff" d="M405 0H141v-1328h264V0" id="M"/><path fill="#fff" d="M122-1328c70 6 164-16 206 20 6 5 13 12 20 21l654 862c-4-44-6-86-6-125v-778h231V0c-62-4-141 10-187-10-14-6-27-18-40-35L348-902c4 41 6 80 6 115V0H122v-1328" id="N"/><g id="j"><use transform="matrix(0.013020833333333334,0,0,0.013020833333333334,0,0)" xlink:href="#C"/><use transform="matrix(0.013020833333333334,0,0,0.013020833333333334,12.604166666666668,0)" xlink:href="#D"/><use transform="matrix(0.013020833333333334,0,0,0.013020833333333334,26.119791666666668,0)" xlink:href="#E"/><use transform="matrix(0.013020833333333334,0,0,0.013020833333333334,39.40104166666667,0)" xlink:href="#C"/><use transform="matrix(0.013020833333333334,0,0,0.013020833333333334,52.00520833333334,0)" xlink:href="#L"/><use transform="matrix(0.013020833333333334,0,0,0.013020833333333334,66.19791666666667,0)" xlink:href="#M"/><use transform="matrix(0.013020833333333334,0,0,0.013020833333333334,73.30729166666667,0)" xlink:href="#N"/><use transform="matrix(0.013020833333333334,0,0,0.013020833333333334,90.87239583333334,0)" xlink:href="#G"/><use transform="matrix(0.013020833333333334,0,0,0.013020833333333334,103.88020833333334,0)" xlink:href="#D"/></g><path fill="#fff" d="M89-955c40-238 181-388 449-388 250 0 409 134 409 381 0 232-139 347-258 472L407-195c126-46 310-24 475-29 49-1 86 32 85 80V0H69c-2-76 0-138 43-180 161-160 326-321 472-494 63-74 110-153 115-281 6-143-107-217-242-175-61 19-100 69-121 131-19 56-46 79-119 66" id="O"/><g id="k"><use transform="matrix(0.013020833333333334,0,0,0.013020833333333334,0,0)" xlink:href="#C"/><use transform="matrix(0.013020833333333334,0,0,0.013020833333333334,12.604166666666668,0)" xlink:href="#D"/><use transform="matrix(0.013020833333333334,0,0,0.013020833333333334,26.119791666666668,0)" xlink:href="#E"/><use transform="matrix(0.013020833333333334,0,0,0.013020833333333334,39.40104166666667,0)" xlink:href="#C"/><use transform="matrix(0.013020833333333334,0,0,0.013020833333333334,52.00520833333334,0)" xlink:href="#L"/><use transform="matrix(0.013020833333333334,0,0,0.013020833333333334,66.19791666666667,0)" xlink:href="#M"/><use transform="matrix(0.013020833333333334,0,0,0.013020833333333334,73.30729166666667,0)" xlink:href="#N"/><use transform="matrix(0.013020833333333334,0,0,0.013020833333333334,90.87239583333334,0)" xlink:href="#G"/><use transform="matrix(0.013020833333333334,0,0,0.013020833333333334,103.88020833333334,0)" xlink:href="#O"/></g><g id="m"><use transform="matrix(0.013020833333333334,0,0,0.013020833333333334,0,0)" xlink:href="#C"/><use transform="matrix(0.013020833333333334,0,0,0.013020833333333334,12.604166666666668,0)" xlink:href="#D"/><use transform="matrix(0.013020833333333334,0,0,0.013020833333333334,26.119791666666668,0)" xlink:href="#E"/><use transform="matrix(0.013020833333333334,0,0,0.013020833333333334,39.40104166666667,0)" xlink:href="#F"/><use transform="matrix(0.013020833333333334,0,0,0.013020833333333334,50.67708333333334,0)" xlink:href="#G"/><use transform="matrix(0.013020833333333334,0,0,0.013020833333333334,63.359375,0)" xlink:href="#H"/><use transform="matrix(0.013020833333333334,0,0,0.013020833333333334,79.51822916666667,0)" xlink:href="#I"/><use transform="matrix(0.013020833333333334,0,0,0.013020833333333334,91.7578125,0)" xlink:href="#O"/><use transform="matrix(0.013020833333333334,0,0,0.013020833333333334,105.2734375,0)" xlink:href="#H"/></g><filter id="l" filterUnits="objectBoundingBox" x="-.06" y="-.02" width="1.12" height="1.11"><feOffset result="offOut" in="SourceAlpha" dy="6"/><feGaussianBlur result="blurOut" in="offOut" stdDeviation="5"/><feColorMatrix result="colorOut" in="blurOut" values="0 0 0 0 0 0 0 0 0 0 0 0 0 0 0 0 0 0 0.5019607843137255 0"/><feBlend in="SourceGraphic" in2="colorOut"/></filter><path fill="#fff" d="M1063-193C972-66 836 14 625 14 325 14 160-160 82-392c-55-162-54-387 4-546 84-230 253-399 553-405 185-4 321 74 409 173-37 47-65 102-108 143-52 29-90-19-122-42-68-49-222-71-314-21-130 72-193 222-193 425 0 205 69 355 201 427 92 51 249 32 318-20 30-23 81-99 128-48" id="P"/><g id="n"><use transform="matrix(0.013020833333333334,0,0,0.013020833333333334,0,0)" xlink:href="#C"/><use transform="matrix(0.013020833333333334,0,0,0.013020833333333334,12.604166666666668,0)" xlink:href="#D"/><use transform="matrix(0.013020833333333334,0,0,0.013020833333333334,26.119791666666668,0)" xlink:href="#E"/><use transform="matrix(0.013020833333333334,0,0,0.013020833333333334,39.40104166666667,0)" xlink:href="#F"/><use transform="matrix(0.013020833333333334,0,0,0.013020833333333334,50.67708333333334,0)" xlink:href="#G"/><use transform="matrix(0.013020833333333334,0,0,0.013020833333333334,63.359375,0)" xlink:href="#H"/><use transform="matrix(0.013020833333333334,0,0,0.013020833333333334,79.51822916666667,0)" xlink:href="#I"/><use transform="matrix(0.013020833333333334,0,0,0.013020833333333334,91.7578125,0)" xlink:href="#J"/><use transform="matrix(0.013020833333333334,0,0,0.013020833333333334,105.2734375,0)" xlink:href="#P"/></g><path fill="#fff" d="M1198-932c62 158 61 378 0 536C1107-162 916 0 600 0H116v-1328h484c315 6 507 163 598 396zM600-209c264-9 377-187 377-456 0-268-114-446-377-455H380v911h220" id="Q"/><g id="o"><use transform="matrix(0.013020833333333334,0,0,0.013020833333333334,0,0)" xlink:href="#C"/><use transform="matrix(0.013020833333333334,0,0,0.013020833333333334,12.604166666666668,0)" xlink:href="#D"/><use transform="matrix(0.013020833333333334,0,0,0.013020833333333334,26.119791666666668,0)" xlink:href="#E"/><use transform="matrix(0.013020833333333334,0,0,0.013020833333333334,39.40104166666667,0)" xlink:href="#F"/><use transform="matrix(0.013020833333333334,0,0,0.013020833333333334,50.67708333333334,0)" xlink:href="#G"/><use transform="matrix(0.013020833333333334,0,0,0.013020833333333334,63.359375,0)" xlink:href="#H"/><use transform="matrix(0.013020833333333334,0,0,0.013020833333333334,79.51822916666667,0)" xlink:href="#I"/><use transform="matrix(0.013020833333333334,0,0,0.013020833333333334,91.7578125,0)" xlink:href="#J"/><use transform="matrix(0.013020833333333334,0,0,0.013020833333333334,105.2734375,0)" xlink:href="#Q"/></g><g id="p"><use transform="matrix(0.013020833333333334,0,0,0.013020833333333334,0,0)" xlink:href="#C"/><use transform="matrix(0.013020833333333334,0,0,0.013020833333333334,12.604166666666668,0)" xlink:href="#D"/><use transform="matrix(0.013020833333333334,0,0,0.013020833333333334,26.119791666666668,0)" xlink:href="#E"/><use transform="matrix(0.013020833333333334,0,0,0.013020833333333334,39.40104166666667,0)" xlink:href="#F"/><use transform="matrix(0.013020833333333334,0,0,0.013020833333333334,50.67708333333334,0)" xlink:href="#G"/><use transform="matrix(0.013020833333333334,0,0,0.013020833333333334,63.359375,0)" xlink:href="#H"/><use transform="matrix(0.013020833333333334,0,0,0.013020833333333334,79.51822916666667,0)" xlink:href="#I"/><use transform="matrix(0.013020833333333334,0,0,0.013020833333333334,91.7578125,0)" xlink:href="#J"/><use transform="matrix(0.013020833333333334,0,0,0.013020833333333334,105.2734375,0)" xlink:href="#G"/></g></defs></g></svg>