<svg xmlns="http://www.w3.org/2000/svg" xmlns:xlink="http://www.w3.org/1999/xlink" xmlns:lucid="lucid" width="1741.18" height="1284.65"><g transform="translate(1012.6564460478539 200.53597509813648)" lucid:page-tab-id="RxZ4dIY6hwKH"><path d="M-565.4 46.14a20 20 0 0 1 20-20h857.04a20 20 0 0 1 20 20V170.9a20 20 0 0 1-20 20H-545.4a20 20 0 0 1-20-20zM-998.38 631.28a20 20 0 0 1 20-20h432.6a20 20 0 0 1 20 20v358.45a20 20 0 0 1-20 20h-432.6a20 20 0 0 1-20-20zM-492.07 631.28a20 20 0 0 1 20-20h432.6a20 20 0 0 1 20 20v358.45a20 20 0 0 1-20 20h-432.6a20 20 0 0 1-20-20zM16.25 632.76a20 20 0 0 1 20-20h670.77a20 20 0 0 1 20 20V991.2a20 20 0 0 1-20 20H36.25a20 20 0 0 1-20-20z" stroke="#ced4db" stroke-width="3" fill="#ced4db"/><path d="M-1011.66 24.8h362.8v113.03h-362.8z" fill="none"/><use xlink:href="#a" transform="matrix(1,0,0,1,-1011.6564460478539,24.79192460359718) translate(0 38.33333333333334)"/><use xlink:href="#b" transform="matrix(1,0,0,1,-1011.6564460478539,24.79192460359718) translate(0 94.33333333333331)"/><use xlink:href="#c" transform="matrix(1,0,0,1,-1011.6564460478539,24.79192460359718) translate(196.6481481481481 94.33333333333331)"/><g filter="url(#d)"><path d="M-969.88 753.72a.5.5 0 0 1 .5-.5h168.64a.5.5 0 0 1 .5.5v93.42a.5.5 0 0 1-.5.5h-168.64a.5.5 0 0 1-.5-.5z" fill="#fff" fill-opacity="0"/><path d="M-969.38 753.22a.5.5 0 0 0-.5.5v93.42a.5.5 0 0 0 .5.5h168.64a.5.5 0 0 0 .5-.5v-93.42a.5.5 0 0 0-.5-.5z" stroke="#315796" stroke-width="3" fill="#315796"/><use xlink:href="#e" transform="matrix(1,0,0,1,-960.041960947947,764.2658478416447) translate(10.5197482638889 42.05555555555556)"/></g><g filter="url(#d)"><path d="M-725.64 753.72a.5.5 0 0 1 .5-.5h168.63a.5.5 0 0 1 .5.5v93.42a.5.5 0 0 1-.5.5h-168.64a.5.5 0 0 1-.5-.5z" fill="#fff" fill-opacity="0"/><path d="M-725.14 753.22a.5.5 0 0 0-.5.5v93.42a.5.5 0 0 0 .5.5h168.63a.5.5 0 0 0 .5-.5v-93.42a.5.5 0 0 0-.5-.5z" stroke="#315796" stroke-width="3" fill="#315796"/><use xlink:href="#f" transform="matrix(1,0,0,1,-715.8046291636167,764.2658478416447) translate(11.024305555555571 42.05555555555556)"/></g><path d="M-814 776.43a.5.5 0 0 1 .5-.5h37a.5.5 0 0 1 .5.5v22.97a.5.5 0 0 1-.5.5h-37a.5.5 0 0 1-.5-.5z" fill="#fff" fill-opacity="0"/><path d="M-813.5 776.9a.5.5 0 0 0-.5.5v21.03a.5.5 0 0 0 .5.5h37a.5.5 0 0 0 .5-.5V777.4a.5.5 0 0 0-.5-.5z" stroke="#5e5e5e" fill="#fff"/><use xlink:href="#g" transform="matrix(1,0,0,1,-799.6021648460621,775.9278629900243) translate(-4.010416666666666 16.444444444444443)"/><path d="M-814 801.46a.5.5 0 0 1 .5-.5h37a.5.5 0 0 1 .5.5v22.97a.5.5 0 0 1-.5.5h-37a.5.5 0 0 1-.5-.5z" fill="#fff" fill-opacity="0"/><path d="M-813.5 801.93a.5.5 0 0 0-.5.5v21.03a.5.5 0 0 0 .5.5h37a.5.5 0 0 0 .5-.5v-21.03a.5.5 0 0 0-.5-.5z" stroke="#5e5e5e" fill="#fff"/><use xlink:href="#h" transform="matrix(1,0,0,1,-799.6021648460621,800.9591129900243) translate(-4.010416666666666 16.444444444444443)"/><path d="M-746 776.43a.5.5 0 0 1 .5-.5h37a.5.5 0 0 1 .5.5v22.97a.5.5 0 0 1-.5.5h-37a.5.5 0 0 1-.5-.5z" fill="#fff" fill-opacity="0"/><path d="M-745.5 776.9a.5.5 0 0 0-.5.5v21.03a.5.5 0 0 0 .5.5h37a.5.5 0 0 0 .5-.5V777.4a.5.5 0 0 0-.5-.5z" stroke="#5e5e5e" fill="#fff"/><use xlink:href="#g" transform="matrix(1,0,0,1,-731.6021648460621,775.9278629900243) translate(-4.010416666666666 16.444444444444443)"/><path d="M-746 801.46a.5.5 0 0 1 .5-.5h37a.5.5 0 0 1 .5.5v22.97a.5.5 0 0 1-.5.5h-37a.5.5 0 0 1-.5-.5z" fill="#fff" fill-opacity="0"/><path d="M-745.5 801.93a.5.5 0 0 0-.5.5v21.03a.5.5 0 0 0 .5.5h37a.5.5 0 0 0 .5-.5v-21.03a.5.5 0 0 0-.5-.5z" stroke="#5e5e5e" fill="#fff"/><use xlink:href="#h" transform="matrix(1,0,0,1,-731.6021648460621,800.9591129900243) translate(-4.010416666666666 16.444444444444443)"/><path d="M-774 787.9h26" stroke="#979ea8" stroke-width="3" fill="none"/><path d="M-773.97 789.4h-1.53v-2.96h1.53zM-746.5 789.4h-1.54v-2.96h1.54z" stroke="#979ea8" stroke-width=".05" fill="#979ea8"/><path d="M-774 812.94h26" stroke="#979ea8" stroke-width="3" fill="none"/><path d="M-773.97 814.42h-1.53v-2.95h1.53zM-746.5 814.42h-1.54v-2.95h1.54z" stroke="#979ea8" stroke-width=".05" fill="#979ea8"/><g filter="url(#i)"><path d="M-530.94 54.98a.5.5 0 0 1 .5-.5h359a.5.5 0 0 1 .5.5v93.42a.5.5 0 0 1-.5.5h-359a.5.5 0 0 1-.5-.5z" fill="#fff" fill-opacity="0"/><path d="M-530.44 54.48a.5.5 0 0 0-.5.5v93.42a.5.5 0 0 0 .5.5h359a.5.5 0 0 0 .5-.5V54.98a.5.5 0 0 0-.5-.5z" stroke="#315796" stroke-width="3" fill="#315796"/><use xlink:href="#j" transform="matrix(1,0,0,1,-510.0614331221951,65.52765725020136) translate(83.64192708333333 43.166666666666664)"/></g><g filter="url(#i)"><path d="M-60.27 54.98a.5.5 0 0 1 .5-.5h359a.5.5 0 0 1 .5.5v93.42a.5.5 0 0 1-.5.5h-359a.5.5 0 0 1-.5-.5z" fill="#fff" fill-opacity="0"/><path d="M-59.77 54.48a.5.5 0 0 0-.5.5v93.42a.5.5 0 0 0 .5.5h359a.5.5 0 0 0 .5-.5V54.98a.5.5 0 0 0-.5-.5z" stroke="#315796" stroke-width="3" fill="#315796"/><use xlink:href="#k" transform="matrix(1,0,0,1,-39.39476645552815,65.52765725020136) translate(83.64192708333333 43.166666666666664)"/></g><path d="M-880.65 739.8L-419 162.98" stroke="#979ea8" stroke-width="3" fill="none"/><path d="M-879.48 740.7l-.22.28h-3.78l1.7-2.12zM-417.87 163.92l-2.3-1.85.23-.28h3.77z" stroke="#979ea8" stroke-width=".05" fill="#979ea8"/><path d="M-641.56 740.02L54.26 162.75" stroke="#979ea8" stroke-width="3" fill="none"/><path d="M-640.72 740.98h-4.3l2.55-2.12zM55.18 163.9l-1.76-2.1h4.3z" stroke="#979ea8" stroke-width=".05" fill="#979ea8"/><path d="M-192.63 72.98a.5.5 0 0 1 .5-.5h37a.5.5 0 0 1 .5.5v22.97a.5.5 0 0 1-.5.5h-37a.5.5 0 0 1-.5-.5z" fill="#fff" fill-opacity="0"/><path d="M-192.13 73.45a.5.5 0 0 0-.5.5v21.03a.5.5 0 0 0 .5.5h37a.5.5 0 0 0 .5-.5V73.95a.5.5 0 0 0-.5-.5z" stroke="#5e5e5e" fill="#fff"/><use xlink:href="#l" transform="matrix(1,0,0,1,-178.22826670659762,72.48077533803325) translate(-12.335069444444443 16.444444444444443)"/><path d="M-192.63 98a.5.5 0 0 1 .5-.5h37a.5.5 0 0 1 .5.5V121a.5.5 0 0 1-.5.5h-37a.5.5 0 0 1-.5-.5z" fill="#fff" fill-opacity="0"/><path d="M-192.13 98.48a.5.5 0 0 0-.5.5V120a.5.5 0 0 0 .5.5h37a.5.5 0 0 0 .5-.5V99a.5.5 0 0 0-.5-.5z" stroke="#5e5e5e" fill="#fff"/><use xlink:href="#m" transform="matrix(1,0,0,1,-178.22826670659762,97.51202533803325) translate(-12.335069444444443 16.444444444444443)"/><path d="M-85.14 72.98a.5.5 0 0 1 .5-.5h37a.5.5 0 0 1 .5.5v22.97a.5.5 0 0 1-.5.5h-37a.5.5 0 0 1-.5-.5z" fill="#fff" fill-opacity="0"/><path d="M-84.64 73.45a.5.5 0 0 0-.5.5v21.03a.5.5 0 0 0 .5.5h37a.5.5 0 0 0 .5-.5V73.95a.5.5 0 0 0-.5-.5z" stroke="#5e5e5e" fill="#fff"/><use xlink:href="#l" transform="matrix(1,0,0,1,-70.74025601949482,72.48077533803325) translate(-12.335069444444443 16.444444444444443)"/><path d="M-85.14 98a.5.5 0 0 1 .5-.5h37a.5.5 0 0 1 .5.5V121a.5.5 0 0 1-.5.5h-37a.5.5 0 0 1-.5-.5z" fill="#fff" fill-opacity="0"/><path d="M-84.64 98.48a.5.5 0 0 0-.5.5V120a.5.5 0 0 0 .5.5h37a.5.5 0 0 0 .5-.5V99a.5.5 0 0 0-.5-.5z" stroke="#5e5e5e" fill="#fff"/><use xlink:href="#m" transform="matrix(1,0,0,1,-70.74025601949482,97.51202533803325) translate(-12.335069444444443 16.444444444444443)"/><path d="M-152.63 84.47h65.5" stroke="#979ea8" stroke-width="3" fill="none"/><path d="M-152.6 85.94h-1.53V83h1.54zM-85.64 85.94h-1.54V83h1.54z" stroke="#979ea8" stroke-width=".05" fill="#979ea8"/><path d="M-152.63 109.5h65.5" stroke="#979ea8" stroke-width="3" fill="none"/><path d="M-152.6 110.97h-1.53v-2.95h1.54zM-85.64 110.97h-1.54v-2.95h1.54z" stroke="#979ea8" stroke-width=".05" fill="#979ea8"/><path d="M-117.37 120.84c-3.8 0-6.9-10.38-6.9-23.18 0-12.8 3.1-23.18 6.9-23.18 3.82 0 6.9 10.38 6.9 23.18 0 12.8-3.08 23.18-6.9 23.18zM-762.26 823.86c-3.82 0-6.9-10.38-6.9-23.18 0-12.8 3.08-23.18 6.9-23.18 3.82 0 6.9 10.38 6.9 23.18 0 12.8-3.08 23.18-6.9 23.18z" stroke="#979ea8" stroke-width="2" fill-opacity="0"/><path d="M-950.82 833.77a.5.5 0 0 1 .5-.5h130.52a.5.5 0 0 1 .5.5v22.97a.5.5 0 0 1-.5.5h-130.52a.5.5 0 0 1-.5-.5z" fill="#fff" fill-opacity="0"/><path d="M-950.32 834.24a.5.5 0 0 0-.5.5v21.03a.5.5 0 0 0 .5.5h130.52a.5.5 0 0 0 .5-.5v-21.03a.5.5 0 0 0-.5-.5z" stroke="#5e5e5e" fill="#fff"/><use xlink:href="#n" transform="matrix(1,0,0,1,-900.9748422178621,833.2664282444305) translate(-0.2369791666666643 16.444444444444443)"/><path d="M-706.58 833.77a.5.5 0 0 1 .5-.5h130.5a.5.5 0 0 1 .5.5v22.97a.5.5 0 0 1-.5.5h-130.5a.5.5 0 0 1-.5-.5z" fill="#fff" fill-opacity="0"/><path d="M-706.08 834.24a.5.5 0 0 0-.5.5v21.03a.5.5 0 0 0 .5.5h130.5a.5.5 0 0 0 .5-.5v-21.03a.5.5 0 0 0-.5-.5z" stroke="#5e5e5e" fill="#fff"/><use xlink:href="#n" transform="matrix(1,0,0,1,-656.7375104335314,833.2664282444305) translate(-0.2369791666666643 16.444444444444443)"/><g filter="url(#o)"><path d="M-344.72 713.14a.5.5 0 0 1 .5-.5h168.64a.5.5 0 0 1 .5.5v195.72a.5.5 0 0 1-.5.5h-168.64a.5.5 0 0 1-.5-.5z" fill="#fff" fill-opacity="0"/><path d="M-344.22 712.64a.5.5 0 0 0-.5.5v195.72a.5.5 0 0 0 .5.5h168.64a.5.5 0 0 0 .5-.5V713.14a.5.5 0 0 0-.5-.5z" stroke="#315796" stroke-width="3" fill="#315796"/><use xlink:href="#p" transform="matrix(1,0,0,1,-334.8804613467135,735.6564509233518) translate(-2.3763020833333286 73.27777777777777)"/><use xlink:href="#q" transform="matrix(1,0,0,1,-334.8804613467135,735.6564509233518) translate(43.181423611111114 93.27777777777777)"/></g><path d="M-278 698.92l-95.27-535.65" stroke="#979ea8" stroke-width="3" fill="none"/><path d="M-276.24 700.4h-3l-.22-1.26 2.9-.5zM-371.8 163.05l-2.9.52-.33-1.78h3z" stroke="#979ea8" stroke-width=".05" fill="#979ea8"/><path d="M-227.8 699.12L97.5 163.08" stroke="#979ea8" stroke-width="3" fill="none"/><path d="M-226.5 699.85l-.34.55h-3.45l1.27-2.08zM98.73 163.88l-2.53-1.53.34-.56H100z" stroke="#979ea8" stroke-width=".05" fill="#979ea8"/><path d="M-325.66 899.86a.5.5 0 0 1 .5-.5h130.52a.5.5 0 0 1 .5.5v22.96a.5.5 0 0 1-.5.5h-130.52a.5.5 0 0 1-.5-.5z" fill="#fff" fill-opacity="0"/><path d="M-325.16 900.32a.5.5 0 0 0-.5.5v21.03a.5.5 0 0 0 .5.5h130.52a.5.5 0 0 0 .5-.5v-21.03a.5.5 0 0 0-.5-.5z" stroke="#5e5e5e" fill="#fff"/><use xlink:href="#r" transform="matrix(1,0,0,1,-275.8133426166282,899.3549257426155) translate(-15.788194444444436 16.444444444444443)"/><path d="M-294.66 700.9a.5.5 0 0 1 .5-.5h37a.5.5 0 0 1 .5.5v22.97a.5.5 0 0 1-.5.5h-37a.5.5 0 0 1-.5-.5z" fill="#fff" fill-opacity="0"/><path d="M-294.16 701.37a.5.5 0 0 0-.5.5v21.03a.5.5 0 0 0 .5.5h37a.5.5 0 0 0 .5-.5v-21.03a.5.5 0 0 0-.5-.5z" stroke="#5e5e5e" fill="#fff"/><use xlink:href="#s" transform="matrix(1,0,0,1,-280.25992577644615,700.4006497004482) translate(-7.829861111111111 16.444444444444443)"/><path d="M-254.66 700.9a.5.5 0 0 1 .5-.5h37a.5.5 0 0 1 .5.5v22.97a.5.5 0 0 1-.5.5h-37a.5.5 0 0 1-.5-.5z" fill="#fff" fill-opacity="0"/><path d="M-254.16 701.37a.5.5 0 0 0-.5.5v21.03a.5.5 0 0 0 .5.5h37a.5.5 0 0 0 .5-.5v-21.03a.5.5 0 0 0-.5-.5z" stroke="#5e5e5e" fill="#fff"/><use xlink:href="#t" transform="matrix(1,0,0,1,-240.26149981184992,700.4006497004482) translate(-7.829861111111111 16.444444444444443)"/><g filter="url(#d)"><path d="M158.72 633.54a.5.5 0 0 1 .5-.5h168.63a.5.5 0 0 1 .5.5v93.42a.5.5 0 0 1-.5.5H159.22a.5.5 0 0 1-.5-.5z" fill="#fff" fill-opacity="0"/><path d="M159.22 633.04a.5.5 0 0 0-.5.5v93.42a.5.5 0 0 0 .5.5h168.63a.5.5 0 0 0 .5-.5v-93.42a.5.5 0 0 0-.5-.5z" stroke="#315796" stroke-width="3" fill="#315796"/><use xlink:href="#u" transform="matrix(1,0,0,1,168.55478775992304,644.0847994353232) translate(10.5197482638889 42.05555555555556)"/></g><g filter="url(#d)"><path d="M398.72 633.54a.5.5 0 0 1 .5-.5h168.63a.5.5 0 0 1 .5.5v93.42a.5.5 0 0 1-.5.5H399.22a.5.5 0 0 1-.5-.5z" fill="#fff" fill-opacity="0"/><path d="M399.22 633.04a.5.5 0 0 0-.5.5v93.42a.5.5 0 0 0 .5.5h168.63a.5.5 0 0 0 .5-.5v-93.42a.5.5 0 0 0-.5-.5z" stroke="#315796" stroke-width="3" fill="#315796"/><use xlink:href="#v" transform="matrix(1,0,0,1,408.55478775992304,644.0847994353232) translate(11.024305555555571 42.05555555555556)"/></g><path d="M310.72 656.25a.5.5 0 0 1 .5-.5h37a.5.5 0 0 1 .5.5v22.97a.5.5 0 0 1-.5.5h-37a.5.5 0 0 1-.5-.5z" fill="#fff" fill-opacity="0"/><path d="M311.22 656.72a.5.5 0 0 0-.5.5v21.03a.5.5 0 0 0 .5.5h37a.5.5 0 0 0 .5-.5v-21.03a.5.5 0 0 0-.5-.5z" stroke="#5e5e5e" fill="#fff"/><use xlink:href="#w" transform="matrix(1,0,0,1,325.11715697883733,655.7468145837026) translate(-12.335069444444443 16.444444444444443)"/><path d="M310.72 681.28a.5.5 0 0 1 .5-.5h37a.5.5 0 0 1 .5.5v22.97a.5.5 0 0 1-.5.5h-37a.5.5 0 0 1-.5-.5z" fill="#fff" fill-opacity="0"/><path d="M311.22 681.75a.5.5 0 0 0-.5.5v21.03a.5.5 0 0 0 .5.5h37a.5.5 0 0 0 .5-.5v-21.03a.5.5 0 0 0-.5-.5z" stroke="#5e5e5e" fill="#fff"/><use xlink:href="#x" transform="matrix(1,0,0,1,325.11715697883733,680.7780645837026) translate(-12.335069444444443 16.444444444444443)"/><path d="M378.72 656.25a.5.5 0 0 1 .5-.5h37a.5.5 0 0 1 .5.5v22.97a.5.5 0 0 1-.5.5h-37a.5.5 0 0 1-.5-.5z" fill="#fff" fill-opacity="0"/><path d="M379.22 656.72a.5.5 0 0 0-.5.5v21.03a.5.5 0 0 0 .5.5h37a.5.5 0 0 0 .5-.5v-21.03a.5.5 0 0 0-.5-.5z" stroke="#5e5e5e" fill="#fff"/><use xlink:href="#w" transform="matrix(1,0,0,1,393.11715697883733,655.7468145837026) translate(-12.335069444444443 16.444444444444443)"/><path d="M378.72 681.28a.5.5 0 0 1 .5-.5h37a.5.5 0 0 1 .5.5v22.97a.5.5 0 0 1-.5.5h-37a.5.5 0 0 1-.5-.5z" fill="#fff" fill-opacity="0"/><path d="M379.22 681.75a.5.5 0 0 0-.5.5v21.03a.5.5 0 0 0 .5.5h37a.5.5 0 0 0 .5-.5v-21.03a.5.5 0 0 0-.5-.5z" stroke="#5e5e5e" fill="#fff"/><use xlink:href="#x" transform="matrix(1,0,0,1,393.11715697883733,680.7780645837026) translate(-12.335069444444443 16.444444444444443)"/><path d="M350.7 667.73h26.02" stroke="#979ea8" stroke-width="3" fill="none"/><path d="M350.75 669.2h-1.54v-2.94h1.55zM378.22 669.2h-1.54v-2.94h1.54z" stroke="#979ea8" stroke-width=".05" fill="#979ea8"/><path d="M350.7 692.76h26.02" stroke="#979ea8" stroke-width="3" fill="none"/><path d="M350.75 694.24h-1.54v-2.95h1.55zM378.22 694.24h-1.54v-2.95h1.54z" stroke="#979ea8" stroke-width=".05" fill="#979ea8"/><path d="M209.08 619.83L-327.8 162.77" stroke="#979ea8" stroke-width="3" fill="none"/><path d="M212.5 620.8h-4.3l1.8-2.12zM-328.72 163.9l-2.5-2.1h4.3z" stroke="#979ea8" stroke-width=".05" fill="#979ea8"/><path d="M494.74 619.56L185.7 163.04" stroke="#979ea8" stroke-width="3" fill="none"/><path d="M497.36 620.8h-3.56l-.3-.45 2.44-1.65zM186.94 162.24l-2.44 1.66-1.43-2.1h3.57z" stroke="#979ea8" stroke-width=".05" fill="#979ea8"/><path d="M363.36 702.68c-3.8 0-6.9-10.38-6.9-23.18 0-12.8 3.1-23.18 6.9-23.18 3.82 0 6.9 10.38 6.9 23.18 0 12.8-3.08 23.18-6.9 23.18z" stroke="#979ea8" stroke-width="2" fill-opacity="0"/><g filter="url(#d)"><path d="M38.72 887.84a.5.5 0 0 1 .5-.5h168.63a.5.5 0 0 1 .5.5v93.4a.5.5 0 0 1-.5.5H39.22a.5.5 0 0 1-.5-.5z" fill="#fff" fill-opacity="0"/><path d="M39.22 887.34a.5.5 0 0 0-.5.5v93.4a.5.5 0 0 0 .5.5h168.63a.5.5 0 0 0 .5-.5v-93.4a.5.5 0 0 0-.5-.5z" stroke="#315796" stroke-width="3" fill="#315796"/><use xlink:href="#y" transform="matrix(1,0,0,1,48.554787759923045,898.3818082789016) translate(-1.3541666666666714 43.166666666666664)"/></g><g filter="url(#d)"><path d="M278.72 887.84a.5.5 0 0 1 .5-.5h168.63a.5.5 0 0 1 .5.5v93.4a.5.5 0 0 1-.5.5H279.22a.5.5 0 0 1-.5-.5z" fill="#fff" fill-opacity="0"/><path d="M279.22 887.34a.5.5 0 0 0-.5.5v93.4a.5.5 0 0 0 .5.5h168.63a.5.5 0 0 0 .5-.5v-93.4a.5.5 0 0 0-.5-.5z" stroke="#315796" stroke-width="3" fill="#315796"/><use xlink:href="#z" transform="matrix(1,0,0,1,288.55478775992304,898.3818082789016) translate(-2.7018229166666714 43.166666666666664)"/></g><path d="M114.17 873.9l101-130.66" stroke="#979ea8" stroke-width="3" fill="none"/><path d="M115.36 874.78l-.24.32h-3.73l1.63-2.12zM216.3 744.17l-2.33-1.8.24-.32h3.74z" stroke="#979ea8" stroke-width=".05" fill="#979ea8"/><path d="M163.94 876.96l298.83-134.3" stroke="#979ea8" stroke-width="3" fill="none"/><path d="M164.58 878.3l-2 .9v-2.68l-.05-.27-.1-.22.94-.43zM467.47 742.17l-4.14 1.86-.88-1.98h4.97z" stroke="#979ea8" stroke-width=".05" fill="#979ea8"/><path d="M336.9 873.75L271.95 743.4" stroke="#979ea8" stroke-width="3" fill="none"/><path d="M339.2 875.1h-3.28l-.36-.72 2.64-1.32zM273.3 742.77l-2.65 1.32-1-2.05h3.28z" stroke="#979ea8" stroke-width=".05" fill="#979ea8"/><path d="M393.78 873.94L501.46 743.2" stroke="#979ea8" stroke-width="3" fill="none"/><path d="M394.95 874.85l-.2.25h-3.83l1.75-2.13zM502.57 744.18l-2.28-1.88.2-.25h3.82z" stroke="#979ea8" stroke-width=".05" fill="#979ea8"/><path d="M85 875.6a.5.5 0 0 1 .5-.5h37a.5.5 0 0 1 .5.5v22.96a.5.5 0 0 1-.5.5h-37a.5.5 0 0 1-.5-.5z" fill="#fff" fill-opacity="0"/><path d="M85.5 876.06a.5.5 0 0 0-.5.5v21.03a.5.5 0 0 0 .5.5h37a.5.5 0 0 0 .5-.5v-21.04a.5.5 0 0 0-.5-.5z" stroke="#5e5e5e" fill="#fff"/><use xlink:href="#A" transform="matrix(1,0,0,1,99.39543434164104,875.0947793061871) translate(-12.335069444444443 16.444444444444443)"/><path d="M124.08 875.6a.5.5 0 0 1 .5-.5h37a.5.5 0 0 1 .5.5v22.96a.5.5 0 0 1-.5.5h-37a.5.5 0 0 1-.5-.5z" fill="#fff" fill-opacity="0"/><path d="M124.58 876.06a.5.5 0 0 0-.5.5v21.03a.5.5 0 0 0 .5.5h37a.5.5 0 0 0 .5-.5v-21.04a.5.5 0 0 0-.5-.5z" stroke="#5e5e5e" fill="#fff"/><use xlink:href="#B" transform="matrix(1,0,0,1,138.47897471467448,875.0947793061871) translate(-12.335069444444443 16.444444444444443)"/><path d="M205 621.3a.5.5 0 0 1 .5-.5h37a.5.5 0 0 1 .5.5v22.97a.5.5 0 0 1-.5.5h-37a.5.5 0 0 1-.5-.5z" fill="#fff" fill-opacity="0"/><path d="M205.5 621.77a.5.5 0 0 0-.5.5v21.03a.5.5 0 0 0 .5.5h37a.5.5 0 0 0 .5-.5v-21.03a.5.5 0 0 0-.5-.5z" stroke="#5e5e5e" fill="#fff"/><use xlink:href="#A" transform="matrix(1,0,0,1,219.39543434164105,620.7977704626078) translate(-12.335069444444443 16.444444444444443)"/><path d="M244.08 621.3a.5.5 0 0 1 .5-.5h37a.5.5 0 0 1 .5.5v22.97a.5.5 0 0 1-.5.5h-37a.5.5 0 0 1-.5-.5z" fill="#fff" fill-opacity="0"/><path d="M244.58 621.77a.5.5 0 0 0-.5.5v21.03a.5.5 0 0 0 .5.5h37a.5.5 0 0 0 .5-.5v-21.03a.5.5 0 0 0-.5-.5z" stroke="#5e5e5e" fill="#fff"/><use xlink:href="#B" transform="matrix(1,0,0,1,258.47897471467445,620.7977704626078) translate(-12.335069444444443 16.444444444444443)"/><path d="M444.54 621.3a.5.5 0 0 1 .5-.5h37a.5.5 0 0 1 .5.5v22.97a.5.5 0 0 1-.5.5h-37a.5.5 0 0 1-.5-.5z" fill="#fff" fill-opacity="0"/><path d="M445.04 621.77a.5.5 0 0 0-.5.5v21.03a.5.5 0 0 0 .5.5h37a.5.5 0 0 0 .5-.5v-21.03a.5.5 0 0 0-.5-.5z" stroke="#5e5e5e" fill="#fff"/><use xlink:href="#A" transform="matrix(1,0,0,1,458.9379915458592,620.7977704626078) translate(-12.335069444444443 16.444444444444443)"/><path d="M484.54 621.3a.5.5 0 0 1 .5-.5h37a.5.5 0 0 1 .5.5v22.97a.5.5 0 0 1-.5.5h-37a.5.5 0 0 1-.5-.5z" fill="#fff" fill-opacity="0"/><path d="M485.04 621.77a.5.5 0 0 0-.5.5v21.03a.5.5 0 0 0 .5.5h37a.5.5 0 0 0 .5-.5v-21.03a.5.5 0 0 0-.5-.5z" stroke="#5e5e5e" fill="#fff"/><use xlink:href="#B" transform="matrix(1,0,0,1,498.9364175104554,620.7977704626078) translate(-12.335069444444443 16.444444444444443)"/><path d="M57.78 967.88a.5.5 0 0 1 .5-.5h131.94a.5.5 0 0 1 .5.5v22.97a.5.5 0 0 1-.5.5H58.28a.5.5 0 0 1-.5-.5z" fill="#fff" fill-opacity="0"/><path d="M58.28 968.35a.5.5 0 0 0-.5.5v21.03a.5.5 0 0 0 .5.5h131.94a.5.5 0 0 0 .5-.5v-21.03a.5.5 0 0 0-.5-.5z" stroke="#5e5e5e" fill="#fff"/><use xlink:href="#C" transform="matrix(1,0,0,1,108.16163909245523,967.3823886816876) translate(0.2630208333333357 16.444444444444443)"/><path d="M296.7 967.88a.5.5 0 0 1 .5-.5h131.6a.5.5 0 0 1 .5.5v22.97a.5.5 0 0 1-.5.5H297.2a.5.5 0 0 1-.5-.5z" fill="#fff" fill-opacity="0"/><path d="M297.2 968.35a.5.5 0 0 0-.5.5v21.03a.5.5 0 0 0 .5.5h131.6a.5.5 0 0 0 .5-.5v-21.03a.5.5 0 0 0-.5-.5z" stroke="#5e5e5e" fill="#fff"/><use xlink:href="#C" transform="matrix(1,0,0,1,346.9610434598236,967.3823886816876) translate(0.2630208333333357 16.444444444444443)"/><path d="M251.64 1024.12h240v60h-240z" fill="none"/><use xlink:href="#D" transform="matrix(1,0,0,1,251.63780629846678,1024.1155107967506) translate(91.18518518518519 21.999999999999996)"/><use xlink:href="#E" transform="matrix(1,0,0,1,251.63780629846678,1024.1155107967506) translate(69.44444444444444 50.44444444444444)"/><use xlink:href="#F" transform="matrix(1,0,0,1,251.63780629846678,1024.1155107967506) translate(112.65432098765433 50.44444444444444)"/><path d="M-882.07 1024.12h240v60h-240z" fill="none"/><use xlink:href="#G" transform="matrix(1,0,0,1,-882.0730970924246,1024.1155107967506) translate(91.18518518518519 21.999999999999996)"/><use xlink:href="#H" transform="matrix(1,0,0,1,-882.0730970924246,1024.1155107967506) translate(75.61728395061729 50.44444444444444)"/><use xlink:href="#F" transform="matrix(1,0,0,1,-882.0730970924246,1024.1155107967506) translate(106.4814814814815 50.44444444444444)"/><path d="M-375.76 1024.12h240v60h-240z" fill="none"/><use xlink:href="#I" transform="matrix(1,0,0,1,-375.7643217601885,1024.1155107967506) translate(91.18518518518519 21.999999999999996)"/><use xlink:href="#J" transform="matrix(1,0,0,1,-375.7643217601885,1024.1155107967506) translate(69.44444444444444 50.44444444444444)"/><use xlink:href="#F" transform="matrix(1,0,0,1,-375.7643217601885,1024.1155107967506) translate(112.65432098765433 50.44444444444444)"/><path d="M-904.06 741.48a.5.5 0 0 1 .5-.5h37a.5.5 0 0 1 .5.5v22.97a.5.5 0 0 1-.5.5h-37a.5.5 0 0 1-.5-.5z" fill="#fff" fill-opacity="0"/><path d="M-903.56 741.95a.5.5 0 0 0-.5.5v21.03a.5.5 0 0 0 .5.5h37a.5.5 0 0 0 .5-.5v-21.03a.5.5 0 0 0-.5-.5z" stroke="#5e5e5e" fill="#fff"/><use xlink:href="#K" transform="matrix(1,0,0,1,-889.6595441797124,740.9788188689297) translate(-4.010416666666666 16.444444444444443)"/><path d="M-659.82 741.48a.5.5 0 0 1 .5-.5h37a.5.5 0 0 1 .5.5v22.97a.5.5 0 0 1-.5.5h-37a.5.5 0 0 1-.5-.5z" fill="#fff" fill-opacity="0"/><path d="M-659.32 741.95a.5.5 0 0 0-.5.5v21.03a.5.5 0 0 0 .5.5h37a.5.5 0 0 0 .5-.5v-21.03a.5.5 0 0 0-.5-.5z" stroke="#5e5e5e" fill="#fff"/><use xlink:href="#K" transform="matrix(1,0,0,1,-645.4222123953821,740.9788188689297) translate(-4.010416666666666 16.444444444444443)"/><path d="M252.38 841.34c0 6.62-28.26 12-63.13 12-34.86 0-63.13-5.38-63.13-12s28.27-11.98 63.13-11.98c34.87 0 63.13 5.36 63.13 11.98zM-382.78 537.1c0 6.67-78.1 12.08-174.43 12.08-96.35 0-174.44-5.4-174.44-12.1 0-6.66 78.1-12.07 174.43-12.07 96.32 0 174.42 5.42 174.42 12.1zM454.35 537.1c0 6.67-81.22 12.08-181.4 12.08-100.2 0-181.43-5.4-181.43-12.1 0-6.66 81.23-12.07 181.42-12.07 100.2 0 181.4 5.42 181.4 12.1zM-116.47 537.1c0 6.67-45.44 12.08-101.5 12.08-56.04 0-101.48-5.4-101.48-12.1 0-6.66 45.44-12.07 101.5-12.07 56.04 0 101.48 5.42 101.48 12.1z" stroke="#979ea8" stroke-width="2" fill-opacity="0"/><g filter="url(#d)"><path d="M518.72 887.84a.5.5 0 0 1 .5-.5h168.63a.5.5 0 0 1 .5.5v93.4a.5.5 0 0 1-.5.5H519.22a.5.5 0 0 1-.5-.5z" fill="#fff" fill-opacity="0"/><path d="M519.22 887.34a.5.5 0 0 0-.5.5v93.4a.5.5 0 0 0 .5.5h168.63a.5.5 0 0 0 .5-.5v-93.4a.5.5 0 0 0-.5-.5z" stroke="#315796" stroke-width="3" fill="#315796"/><use xlink:href="#L" transform="matrix(1,0,0,1,528.5547877599231,898.3818082789016) translate(-0.80078125 43.166666666666664)"/></g><path d="M562.8 875.45l-257.9-132.7" stroke="#979ea8" stroke-width="3" fill="none"/><path d="M565.35 875.1h-.3l-.17.02-.14.07-.1.1-.08.14-.02.15v.1l-.1.05-.22.22-.14.28-.04.27v1.22l-1.94-1 1.35-2.62zM304.26 744.07l-3.92-2.02h4.96z" stroke="#979ea8" stroke-width=".05" fill="#979ea8"/><path d="M616.85 873.78l-71.5-130.4" stroke="#979ea8" stroke-width="3" fill="none"/><path d="M619.25 875.1h-3.37l-.35-.64 2.6-1.42zM546.67 742.7l-2.6 1.4-1.12-2.05h3.37z" stroke="#979ea8" stroke-width=".05" fill="#979ea8"/><path d="M324.54 875.6a.5.5 0 0 1 .5-.5h37a.5.5 0 0 1 .5.5v22.96a.5.5 0 0 1-.5.5h-37a.5.5 0 0 1-.5-.5z" fill="#fff" fill-opacity="0"/><path d="M325.04 876.06a.5.5 0 0 0-.5.5v21.03a.5.5 0 0 0 .5.5h37a.5.5 0 0 0 .5-.5v-21.04a.5.5 0 0 0-.5-.5z" stroke="#5e5e5e" fill="#fff"/><use xlink:href="#A" transform="matrix(1,0,0,1,338.9379915458587,875.0947793061871) translate(-12.335069444444443 16.444444444444443)"/><path d="M364.54 875.6a.5.5 0 0 1 .5-.5h37a.5.5 0 0 1 .5.5v22.96a.5.5 0 0 1-.5.5h-37a.5.5 0 0 1-.5-.5z" fill="#fff" fill-opacity="0"/><path d="M365.04 876.06a.5.5 0 0 0-.5.5v21.03a.5.5 0 0 0 .5.5h37a.5.5 0 0 0 .5-.5v-21.04a.5.5 0 0 0-.5-.5z" stroke="#5e5e5e" fill="#fff"/><use xlink:href="#B" transform="matrix(1,0,0,1,378.93641751045493,875.0947793061871) translate(-12.335069444444443 16.444444444444443)"/><path d="M564.54 875.6a.5.5 0 0 1 .5-.5h37a.5.5 0 0 1 .5.5v22.96a.5.5 0 0 1-.5.5h-37a.5.5 0 0 1-.5-.5z" fill="#fff" fill-opacity="0"/><path d="M565.04 876.06a.5.5 0 0 0-.5.5v21.03a.5.5 0 0 0 .5.5h37a.5.5 0 0 0 .5-.5v-21.04a.5.5 0 0 0-.5-.5z" stroke="#5e5e5e" fill="#fff"/><use xlink:href="#A" transform="matrix(1,0,0,1,578.9379915458583,875.0947793061871) translate(-12.335069444444443 16.444444444444443)"/><path d="M604.53 875.6a.5.5 0 0 1 .5-.5h37a.5.5 0 0 1 .5.5v22.96a.5.5 0 0 1-.5.5h-37a.5.5 0 0 1-.5-.5z" fill="#fff" fill-opacity="0"/><path d="M605.03 876.06a.5.5 0 0 0-.5.5v21.03a.5.5 0 0 0 .5.5h37a.5.5 0 0 0 .5-.5v-21.04a.5.5 0 0 0-.5-.5z" stroke="#5e5e5e" fill="#fff"/><use xlink:href="#B" transform="matrix(1,0,0,1,618.9364175104545,875.0947793061871) translate(-12.335069444444443 16.444444444444443)"/><path d="M536.7 967.88a.5.5 0 0 1 .5-.5h131.6a.5.5 0 0 1 .5.5v22.97a.5.5 0 0 1-.5.5H537.2a.5.5 0 0 1-.5-.5z" fill="#fff" fill-opacity="0"/><path d="M537.2 968.35a.5.5 0 0 0-.5.5v21.03a.5.5 0 0 0 .5.5h131.6a.5.5 0 0 0 .5-.5v-21.03a.5.5 0 0 0-.5-.5z" stroke="#5e5e5e" fill="#fff"/><use xlink:href="#C" transform="matrix(1,0,0,1,586.9610434598236,967.3823886816876) translate(0.2630208333333357 16.444444444444443)"/><path d="M402.73 718.6a.5.5 0 0 1 .5-.5h40.25a.5.5 0 0 1 .5.5v22.95a.5.5 0 0 1-.5.5h-40.25a.5.5 0 0 1-.5-.5z" fill="#fff" fill-opacity="0"/><path d="M403.23 719.05a.5.5 0 0 0-.5.5v21.04a.5.5 0 0 0 .5.5h40.25a.5.5 0 0 0 .5-.5v-21.05a.5.5 0 0 0-.5-.5z" stroke="#5e5e5e" fill="#fff"/><use xlink:href="#C" transform="matrix(1,0,0,1,418.363550672799,718.0853798381088) translate(-11.236979166666664 16.444444444444443)"/><path d="M446.34 718.6a.5.5 0 0 1 .5-.5h37a.5.5 0 0 1 .5.5v22.95a.5.5 0 0 1-.5.5h-37a.5.5 0 0 1-.5-.5z" fill="#fff" fill-opacity="0"/><path d="M446.84 719.05a.5.5 0 0 0-.5.5v21.04a.5.5 0 0 0 .5.5h37a.5.5 0 0 0 .5-.5v-21.05a.5.5 0 0 0-.5-.5z" stroke="#5e5e5e" fill="#fff"/><use xlink:href="#M" transform="matrix(1,0,0,1,460.7419176534729,718.0853798381088) translate(-12.335069444444443 16.444444444444443)"/><path d="M486.3 718.6a.5.5 0 0 1 .5-.5h37a.5.5 0 0 1 .5.5v22.95a.5.5 0 0 1-.5.5h-36.98a.5.5 0 0 1-.5-.5z" fill="#fff" fill-opacity="0"/><path d="M486.8 719.05a.5.5 0 0 0-.5.5v21.04a.5.5 0 0 0 .5.5h37a.5.5 0 0 0 .5-.5v-21.05a.5.5 0 0 0-.5-.5z" stroke="#5e5e5e" fill="#fff"/><use xlink:href="#N" transform="matrix(1,0,0,1,500.71597091167337,718.0853798381088) translate(-12.335069444444443 16.444444444444443)"/><path d="M526.34 718.6a.5.5 0 0 1 .5-.5h37a.5.5 0 0 1 .5.5v22.95a.5.5 0 0 1-.5.5h-37a.5.5 0 0 1-.5-.5z" fill="#fff" fill-opacity="0"/><path d="M526.84 719.05a.5.5 0 0 0-.5.5v21.04a.5.5 0 0 0 .5.5h37a.5.5 0 0 0 .5-.5v-21.05a.5.5 0 0 0-.5-.5z" stroke="#5e5e5e" fill="#fff"/><use xlink:href="#O" transform="matrix(1,0,0,1,540.7434916888767,718.0853798381088) translate(-12.335069444444443 16.444444444444443)"/><path d="M162.73 718.6a.5.5 0 0 1 .5-.5h40.25a.5.5 0 0 1 .5.5v22.95a.5.5 0 0 1-.5.5h-40.25a.5.5 0 0 1-.5-.5z" fill="#fff" fill-opacity="0"/><path d="M163.23 719.05a.5.5 0 0 0-.5.5v21.04a.5.5 0 0 0 .5.5h40.25a.5.5 0 0 0 .5-.5v-21.05a.5.5 0 0 0-.5-.5z" stroke="#5e5e5e" fill="#fff"/><use xlink:href="#C" transform="matrix(1,0,0,1,178.36355067279993,718.0853798381088) translate(-11.236979166666664 16.444444444444443)"/><path d="M206.34 718.6a.5.5 0 0 1 .5-.5h37a.5.5 0 0 1 .5.5v22.95a.5.5 0 0 1-.5.5h-37a.5.5 0 0 1-.5-.5z" fill="#fff" fill-opacity="0"/><path d="M206.84 719.05a.5.5 0 0 0-.5.5v21.04a.5.5 0 0 0 .5.5h37a.5.5 0 0 0 .5-.5v-21.05a.5.5 0 0 0-.5-.5z" stroke="#5e5e5e" fill="#fff"/><use xlink:href="#M" transform="matrix(1,0,0,1,220.74191765347385,718.0853798381088) translate(-12.335069444444443 16.444444444444443)"/><path d="M246.3 718.6a.5.5 0 0 1 .5-.5h37a.5.5 0 0 1 .5.5v22.95a.5.5 0 0 1-.5.5h-37a.5.5 0 0 1-.5-.5z" fill="#fff" fill-opacity="0"/><path d="M246.8 719.05a.5.5 0 0 0-.5.5v21.04a.5.5 0 0 0 .5.5h37a.5.5 0 0 0 .5-.5v-21.05a.5.5 0 0 0-.5-.5z" stroke="#5e5e5e" fill="#fff"/><use xlink:href="#N" transform="matrix(1,0,0,1,260.7159709116738,718.0853798381088) translate(-12.335069444444443 16.444444444444443)"/><path d="M286.34 718.6a.5.5 0 0 1 .5-.5h37a.5.5 0 0 1 .5.5v22.95a.5.5 0 0 1-.5.5h-37a.5.5 0 0 1-.5-.5z" fill="#fff" fill-opacity="0"/><path d="M286.84 719.05a.5.5 0 0 0-.5.5v21.04a.5.5 0 0 0 .5.5h37a.5.5 0 0 0 .5-.5v-21.05a.5.5 0 0 0-.5-.5z" stroke="#5e5e5e" fill="#fff"/><use xlink:href="#O" transform="matrix(1,0,0,1,300.7434916888776,718.0853798381088) translate(-12.335069444444443 16.444444444444443)"/><path d="M432.38 841.34c0 6.62-28.26 12-63.13 12-34.86 0-63.13-5.38-63.13-12s28.27-11.98 63.13-11.98c34.87 0 63.13 5.36 63.13 11.98zM612.38 841.34c0 6.62-28.26 12-63.13 12-34.86 0-63.13-5.38-63.13-12s28.27-11.98 63.13-11.98c34.87 0 63.13 5.36 63.13 11.98z" stroke="#979ea8" stroke-width="2" fill-opacity="0"/><path d="M259.65 619.34l-116.37-456.1" stroke="#979ea8" stroke-width="3" fill="none"/><path d="M261.54 620.8h-3.04l-.3-1.13 2.87-.73zM144.72 162.92l-2.86.73-.47-1.86h3.03z" stroke="#979ea8" stroke-width=".05" fill="#979ea8"/><path d="M458.26 620l-743.8-457.42" stroke="#979ea8" stroke-width="3" fill="none"/><path d="M462.36 620.8h-4.62l1.26-2.06zM-286.28 163.86l-3.36-2.07h4.63z" stroke="#979ea8" stroke-width=".05" fill="#979ea8"/><path d="M-433.2 138.33a.5.5 0 0 1 .5-.5h37a.5.5 0 0 1 .5.5v22.96a.5.5 0 0 1-.5.5h-37a.5.5 0 0 1-.5-.5z" fill="#fff" fill-opacity="0"/><path d="M-432.7 138.8a.5.5 0 0 0-.5.5v21.03a.5.5 0 0 0 .5.5h37a.5.5 0 0 0 .5-.5V139.3a.5.5 0 0 0-.5-.5z" stroke="#5e5e5e" fill="#fff"/><use xlink:href="#P" transform="matrix(1,0,0,1,-418.8039539044032,137.82621308412797) translate(0.49479166666666696 16.444444444444443)"/><path d="M-392.2 138.33a.5.5 0 0 1 .5-.5h37a.5.5 0 0 1 .5.5v22.96a.5.5 0 0 1-.5.5h-37a.5.5 0 0 1-.5-.5z" fill="#fff" fill-opacity="0"/><path d="M-391.7 138.8a.5.5 0 0 0-.5.5v21.03a.5.5 0 0 0 .5.5h37a.5.5 0 0 0 .5-.5V139.3a.5.5 0 0 0-.5-.5z" stroke="#5e5e5e" fill="#fff"/><use xlink:href="#Q" transform="matrix(1,0,0,1,-377.8039539044032,137.82621308412797) translate(-12.335069444444443 16.444444444444443)"/><path d="M-349.8 138.33a.5.5 0 0 1 .5-.5h36.98a.5.5 0 0 1 .5.5v22.96a.5.5 0 0 1-.5.5h-37a.5.5 0 0 1-.5-.5z" fill="#fff" fill-opacity="0"/><path d="M-349.3 138.8a.5.5 0 0 0-.5.5v21.03a.5.5 0 0 0 .5.5h36.98a.5.5 0 0 0 .5-.5V139.3a.5.5 0 0 0-.5-.5z" stroke="#5e5e5e" fill="#fff"/><use xlink:href="#R" transform="matrix(1,0,0,1,-335.41338714466224,137.82621308412797) translate(-12.335069444444443 16.444444444444443)"/><path d="M-306.68 138.33a.5.5 0 0 1 .5-.5h37a.5.5 0 0 1 .5.5v22.96a.5.5 0 0 1-.5.5h-37a.5.5 0 0 1-.5-.5z" fill="#fff" fill-opacity="0"/><path d="M-306.18 138.8a.5.5 0 0 0-.5.5v21.03a.5.5 0 0 0 .5.5h37a.5.5 0 0 0 .5-.5V139.3a.5.5 0 0 0-.5-.5z" stroke="#5e5e5e" fill="#fff"/><use xlink:href="#S" transform="matrix(1,0,0,1,-292.27453142341915,137.82621308412797) translate(-12.335069444444443 16.444444444444443)"/><path d="M37.46 138.33a.5.5 0 0 1 .5-.5h37a.5.5 0 0 1 .5.5v22.96a.5.5 0 0 1-.5.5h-37a.5.5 0 0 1-.5-.5z" fill="#fff" fill-opacity="0"/><path d="M37.96 138.8a.5.5 0 0 0-.5.5v21.03a.5.5 0 0 0 .5.5h37a.5.5 0 0 0 .5-.5V139.3a.5.5 0 0 0-.5-.5z" stroke="#5e5e5e" fill="#fff"/><use xlink:href="#P" transform="matrix(1,0,0,1,51.86271276226377,137.82621308412797) translate(0.49479166666666696 16.444444444444443)"/><path d="M78.46 138.33a.5.5 0 0 1 .5-.5h37a.5.5 0 0 1 .5.5v22.96a.5.5 0 0 1-.5.5h-37a.5.5 0 0 1-.5-.5z" fill="#fff" fill-opacity="0"/><path d="M78.96 138.8a.5.5 0 0 0-.5.5v21.03a.5.5 0 0 0 .5.5h37a.5.5 0 0 0 .5-.5V139.3a.5.5 0 0 0-.5-.5z" stroke="#5e5e5e" fill="#fff"/><use xlink:href="#Q" transform="matrix(1,0,0,1,92.86271276226377,137.82621308412797) translate(-12.335069444444443 16.444444444444443)"/><path d="M120.85 138.33a.5.5 0 0 1 .5-.5h37a.5.5 0 0 1 .5.5v22.96a.5.5 0 0 1-.5.5h-37a.5.5 0 0 1-.5-.5z" fill="#fff" fill-opacity="0"/><path d="M121.35 138.8a.5.5 0 0 0-.5.5v21.03a.5.5 0 0 0 .5.5h37a.5.5 0 0 0 .5-.5V139.3a.5.5 0 0 0-.5-.5z" stroke="#5e5e5e" fill="#fff"/><use xlink:href="#R" transform="matrix(1,0,0,1,135.25327952200522,137.82621308412797) translate(-12.335069444444443 16.444444444444443)"/><path d="M164 138.33a.5.5 0 0 1 .5-.5h37a.5.5 0 0 1 .5.5v22.96a.5.5 0 0 1-.5.5h-37a.5.5 0 0 1-.5-.5z" fill="#fff" fill-opacity="0"/><path d="M164.5 138.8a.5.5 0 0 0-.5.5v21.03a.5.5 0 0 0 .5.5h37a.5.5 0 0 0 .5-.5V139.3a.5.5 0 0 0-.5-.5z" stroke="#5e5e5e" fill="#fff"/><use xlink:href="#S" transform="matrix(1,0,0,1,178.3921352432483,137.82621308412797) translate(-12.335069444444443 16.444444444444443)"/><path d="M364.54 81.56h104.8v60h-104.8z" fill="none"/><use xlink:href="#T" transform="matrix(1,0,0,1,364.5350140698729,81.56509539027638) translate(0 35.33333333333333)"/><path d="M-369.94 41.57a.5.5 0 0 1 .5-.5h37a.5.5 0 0 1 .5.5v22.97a.5.5 0 0 1-.5.5h-37a.5.5 0 0 1-.5-.5z" fill="#fff" fill-opacity="0"/><path d="M-369.44 42.04a.5.5 0 0 0-.5.5v21.03a.5.5 0 0 0 .5.5h37a.5.5 0 0 0 .5-.5V42.54a.5.5 0 0 0-.5-.5z" stroke="#5e5e5e" fill="#fff"/><use xlink:href="#U" transform="matrix(1,0,0,1,-355.5392426639112,41.07186257831245) translate(-12.335069444444443 16.444444444444443)"/><path d="M100.73 41.57a.5.5 0 0 1 .5-.5h37a.5.5 0 0 1 .5.5v22.97a.5.5 0 0 1-.5.5h-37a.5.5 0 0 1-.5-.5z" fill="#fff" fill-opacity="0"/><path d="M101.23 42.04a.5.5 0 0 0-.5.5v21.03a.5.5 0 0 0 .5.5h37a.5.5 0 0 0 .5-.5V42.54a.5.5 0 0 0-.5-.5z" stroke="#5e5e5e" fill="#fff"/><use xlink:href="#U" transform="matrix(1,0,0,1,115.1274240027558,41.07186257831245) translate(-12.335069444444443 16.444444444444443)"/><path d="M-42.24-63.22L101.94 40.2" stroke="#979ea8" stroke-width="3" fill="none"/><path d="M-41.35-64.4l-1.72 2.4-1.93-1.4 1.27-.55 1.7-.94zM105.69 41.07h-4.44l1.5-2.1z" stroke="#979ea8" stroke-width=".05" fill="#979ea8"/><path d="M-196.8-94.46c-16.72 0-30.28-13.56-30.28-30.3 0-13.37 8.2-24.66 20.93-28.8-.74-39.33 49.74-46.9 69.93-31.76 10.1-22.72 60.57-15.14 60.57 7.57 30.3-7.57 60.57 22.72 40.38 60.57 20.2 30.3 0 68.15-40.38 53-10.1 19.7-50.48 19.7-60.57 0-20.2 15.15-60.58 7.58-60.58-30.28z" stroke="#000" stroke-opacity="0" stroke-width="3" fill="#fff"/><g><use xlink:href="#V" transform="matrix(1,0,0,1,-222.0819864701425,-195.46405892457375) translate(40.938271604938265 75.46527777777777)"/></g><path d="M-192.5-72.5L-334.6 40.15" stroke="#979ea8" stroke-width="3" fill="none"/><path d="M-191.34-73.42l.2.36.62.88-1.1.87-1.84-2.32 1.2-.96zM-333.82 41.07h-4.34l2.66-2.1z" stroke="#979ea8" stroke-width=".05" fill="#979ea8"/><defs><path fill="#ced4db" d="M24 0v-248h195v40H76v63h132v40H76v65h150V0H24" id="W"/><path fill="#ced4db" d="M144 0l-44-69L55 0H2l70-98-66-92h53l41 62 40-62h54l-67 91 71 99h-54" id="X"/><path fill="#ced4db" d="M133-34C117-15 103 5 69 4 32 3 11-16 11-54c-1-60 55-63 116-61 1-26-3-47-28-47-18 1-26 9-28 27l-52-2c7-38 36-58 82-57s74 22 75 68l1 82c-1 14 12 18 25 15v27c-30 8-71 5-69-32zm-48 3c29 0 43-24 42-57-32 0-66-3-65 30 0 17 8 27 23 27" id="Y"/><path fill="#ced4db" d="M220-157c-53 9-28 100-34 157h-49v-107c1-27-5-49-29-50C55-147 81-57 75 0H25l-1-190h47c2 12-1 28 3 38 10-53 101-56 108 0 13-22 24-43 59-42 82 1 51 116 57 194h-49v-107c-1-25-5-48-29-50" id="Z"/><path fill="#ced4db" d="M135-194c53 0 70 44 70 98 0 56-19 98-73 100-31 1-45-17-59-34 3 33 2 69 2 105H25l-1-265h48c2 10 0 23 3 31 11-24 29-35 60-35zM114-30c33 0 39-31 40-66 0-38-9-64-40-64-56 0-55 130 0 130" id="aa"/><path fill="#ced4db" d="M25 0v-261h50V0H25" id="ab"/><path fill="#ced4db" d="M185-48c-13 30-37 53-82 52C43 2 14-33 14-96s30-98 90-98c62 0 83 45 84 108H66c0 31 8 55 39 56 18 0 30-7 34-22zm-45-69c5-46-57-63-70-21-2 6-4 13-4 21h74" id="ac"/><g id="a"><use transform="matrix(0.12962962962962957,0,0,0.12962962962962957,0,0)" xlink:href="#W"/><use transform="matrix(0.12962962962962957,0,0,0.12962962962962957,31.111111111111097,0)" xlink:href="#X"/><use transform="matrix(0.12962962962962957,0,0,0.12962962962962957,57.03703703703701,0)" xlink:href="#Y"/><use transform="matrix(0.12962962962962957,0,0,0.12962962962962957,82.96296296296292,0)" xlink:href="#Z"/><use transform="matrix(0.12962962962962957,0,0,0.12962962962962957,124.44444444444437,0)" xlink:href="#aa"/><use transform="matrix(0.12962962962962957,0,0,0.12962962962962957,152.83333333333326,0)" xlink:href="#ab"/><use transform="matrix(0.12962962962962957,0,0,0.12962962962962957,165.79629629629622,0)" xlink:href="#ac"/></g><path fill="#ced4db" d="M67-125c0 53 21 87 73 88 37 1 54-22 65-47l45 17C233-25 199 4 140 4 58 4 20-42 15-125 8-235 124-281 211-232c18 10 29 29 36 50l-46 12c-8-25-30-41-62-41-52 0-71 34-72 86" id="ad"/><path fill="#ced4db" d="M85 4C-2 5 27-109 22-190h50c7 57-23 150 33 157 60-5 35-97 40-157h50l1 190h-47c-2-12 1-28-3-38-12 25-28 42-61 42" id="ae"/><path fill="#ced4db" d="M137-138c1-29-70-34-71-4 15 46 118 7 119 86 1 83-164 76-172 9l43-7c4 19 20 25 44 25 33 8 57-30 24-41C81-84 22-81 20-136c-2-80 154-74 161-7" id="af"/><g id="b"><use transform="matrix(0.12962962962962957,0,0,0.12962962962962957,0,0)" xlink:href="#ad"/><use transform="matrix(0.12962962962962957,0,0,0.12962962962962957,33.574074074074055,0)" xlink:href="#Y"/><use transform="matrix(0.12962962962962957,0,0,0.12962962962962957,59.49999999999997,0)" xlink:href="#Z"/><use transform="matrix(0.12962962962962957,0,0,0.12962962962962957,100.98148148148144,0)" xlink:href="#aa"/><use transform="matrix(0.12962962962962957,0,0,0.12962962962962957,129.37037037037032,0)" xlink:href="#ae"/><use transform="matrix(0.12962962962962957,0,0,0.12962962962962957,157.7592592592592,0)" xlink:href="#af"/></g><path fill="#ced4db" d="M76-208v77h127v40H76V0H24v-248h183v40H76" id="ag"/><path fill="#ced4db" d="M135-194c52 0 70 43 70 98 0 56-19 99-73 100-30 1-46-15-58-35L72 0H24l1-261h50v104c11-23 29-37 60-37zM114-30c31 0 40-27 40-66 0-37-7-63-39-63s-41 28-41 65c0 36 8 64 40 64" id="ah"/><path fill="#ced4db" d="M135-150c-39-12-60 13-60 57V0H25l-1-190h47c2 13-1 29 3 40 6-28 27-53 61-41v41" id="ai"/><path fill="#ced4db" d="M25-224v-37h50v37H25zM25 0v-190h50V0H25" id="aj"/><path fill="#ced4db" d="M190-63c-7 42-38 67-86 67-59 0-84-38-90-98-12-110 154-137 174-36l-49 2c-2-19-15-32-35-32-30 0-35 28-38 64-6 74 65 87 74 30" id="ak"/><g id="c"><use transform="matrix(0.12962962962962957,0,0,0.12962962962962957,0,0)" xlink:href="#ag"/><use transform="matrix(0.12962962962962957,0,0,0.12962962962962957,28.388888888888875,0)" xlink:href="#Y"/><use transform="matrix(0.12962962962962957,0,0,0.12962962962962957,54.31481481481479,0)" xlink:href="#ah"/><use transform="matrix(0.12962962962962957,0,0,0.12962962962962957,82.70370370370367,0)" xlink:href="#ai"/><use transform="matrix(0.12962962962962957,0,0,0.12962962962962957,100.8518518518518,0)" xlink:href="#aj"/><use transform="matrix(0.12962962962962957,0,0,0.12962962962962957,113.81481481481475,0)" xlink:href="#ak"/></g><path fill="#fff" d="M469-200c119 0 194-62 190-182-5-155-165-165-285-207C212-646 83-736 88-958c4-182 105-295 242-352 113-48 278-41 392 4 65 25 120 59 166 104l-67 124c-13 37-61 47-98 23-55-35-117-75-210-75-111 0-181 57-181 159 0 146 173 155 287 201 153 61 292 138 287 351-7 273-167 433-444 433-190 0-326-77-424-175l78-125c18-34 71-42 108-14 63 47 132 100 245 100" id="al"/><path fill="#fff" d="M405 0H141v-1328h264V0" id="am"/><path fill="#fff" d="M996-1328v214H638V0H376v-1114H18v-214h978" id="an"/><path fill="#fff" d="M928-1328v209H382v351h425v201H382v358h547L928 0H118v-1328h810" id="ao"/><path fill="#fff" d="M236-180h257c2-279-3-565 3-840L323-871c-27 30-91 18-110-9l-76-104 399-346h198v1150h227V0H236v-180" id="ap"/><path fill="#fff" d="M1020 122v164H0V122h1020" id="aq"/><path fill="#fff" d="M371-216h461V0H108v-1328h263v1112" id="ar"/><path fill="#fff" d="M1240 0h-202c-47 1-76-24-87-58l-84-261H378L295-59c-11 29-44 59-86 59H4l484-1328h268zM437-503h370c-61-196-127-384-186-583-56 202-123 386-184 583" id="as"/><path fill="#fff" d="M890-1328v209H373v376h433v209H373V0H109v-1328h781" id="at"/><g id="e"><use transform="matrix(0.010850694444444444,0,0,0.010850694444444444,0,0)" xlink:href="#al"/><use transform="matrix(0.010850694444444444,0,0,0.010850694444444444,10.503472222222221,0)" xlink:href="#am"/><use transform="matrix(0.010850694444444444,0,0,0.010850694444444444,16.427951388888886,0)" xlink:href="#an"/><use transform="matrix(0.010850694444444444,0,0,0.010850694444444444,27.43055555555555,0)" xlink:href="#ao"/><use transform="matrix(0.010850694444444444,0,0,0.010850694444444444,38.27039930555555,0)" xlink:href="#ap"/><use transform="matrix(0.010850694444444444,0,0,0.010850694444444444,49.533420138888886,0)" xlink:href="#aq"/><use transform="matrix(0.010850694444444444,0,0,0.010850694444444444,60.60112847222221,0)" xlink:href="#ar"/><use transform="matrix(0.010850694444444444,0,0,0.010850694444444444,69.9978298611111,0)" xlink:href="#ao"/><use transform="matrix(0.010850694444444444,0,0,0.010850694444444444,80.56640624999999,0)" xlink:href="#as"/><use transform="matrix(0.010850694444444444,0,0,0.010850694444444444,94.03211805555556,0)" xlink:href="#at"/><use transform="matrix(0.010850694444444444,0,0,0.010850694444444444,104.23177083333331,0)" xlink:href="#ap"/><use transform="matrix(0.010850694444444444,0,0,0.010850694444444444,115.49479166666664,0)" xlink:href="#as"/></g><filter id="d" filterUnits="objectBoundingBox" x="-.06" y="-.04" width="1.12" height="1.21"><feOffset result="offOut" in="SourceAlpha" dy="6"/><feGaussianBlur result="blurOut" in="offOut" stdDeviation="5"/><feColorMatrix result="colorOut" in="blurOut" values="0 0 0 0 0 0 0 0 0 0 0 0 0 0 0 0 0 0 0.5019607843137255 0"/><feBlend in="SourceGraphic" in2="colorOut"/></filter><path fill="#fff" d="M1048-974c0 163-99 241-224 288 171 41 257 139 257 293C1081-125 889 0 612 0H119v-1328h451c279 2 478 84 478 354zM823-399c0-131-83-178-217-178H382v373h225c139 0 216-61 216-195zm-37-542c0-143-71-185-216-185H382v368h173c140-1 231-45 231-183" id="au"/><g id="f"><use transform="matrix(0.010850694444444444,0,0,0.010850694444444444,0,0)" xlink:href="#al"/><use transform="matrix(0.010850694444444444,0,0,0.010850694444444444,10.503472222222221,0)" xlink:href="#am"/><use transform="matrix(0.010850694444444444,0,0,0.010850694444444444,16.427951388888886,0)" xlink:href="#an"/><use transform="matrix(0.010850694444444444,0,0,0.010850694444444444,27.43055555555555,0)" xlink:href="#ao"/><use transform="matrix(0.010850694444444444,0,0,0.010850694444444444,38.27039930555555,0)" xlink:href="#ap"/><use transform="matrix(0.010850694444444444,0,0,0.010850694444444444,49.533420138888886,0)" xlink:href="#aq"/><use transform="matrix(0.010850694444444444,0,0,0.010850694444444444,60.60112847222221,0)" xlink:href="#ar"/><use transform="matrix(0.010850694444444444,0,0,0.010850694444444444,69.9978298611111,0)" xlink:href="#ao"/><use transform="matrix(0.010850694444444444,0,0,0.010850694444444444,80.56640624999999,0)" xlink:href="#as"/><use transform="matrix(0.010850694444444444,0,0,0.010850694444444444,94.03211805555556,0)" xlink:href="#at"/><use transform="matrix(0.010850694444444444,0,0,0.010850694444444444,104.23177083333331,0)" xlink:href="#ap"/><use transform="matrix(0.010850694444444444,0,0,0.010850694444444444,115.49479166666664,0)" xlink:href="#au"/></g><path fill="#4c535d" d="M463-670c-69 0-128 14-183 34l-149-41 108-651h650v101c-3 78-52 116-142 116H407l-44 261c53-11 103-16 152-16 263 0 419 147 419 406 0 232-122 371-292 440-125 51-309 39-418-14-62-30-119-68-165-112l74-102c44-65 117-14 161 14 42 27 94 49 166 47 158-4 231-103 233-261 2-143-84-223-230-222" id="av"/><path fill="#4c535d" d="M113-955c38-239 181-388 448-388 186 0 310 81 369 209 18 42 27 87 27 134 1 168-77 256-203 297 151 51 227 154 227 307C981-126 800 8 532 14 260 20 143-131 76-338c63-25 186-102 236-14 46 82 93 164 218 164 130 0 203-76 210-200 9-175-112-206-288-206v-171c158-2 269-37 269-193 0-117-60-182-173-183-99-1-165 67-190 142-19 57-44 79-118 66" id="aw"/><g id="g"><use transform="matrix(0.008680555555555554,0,0,0.008680555555555554,0,0)" xlink:href="#av"/><use transform="matrix(0.008680555555555554,0,0,0.008680555555555554,9.010416666666666,0)" xlink:href="#aw"/></g><path fill="#4c535d" d="M1007-505c-9 70 29 185-49 186H854V0H644v-319H105c-83-4-69-108-90-173l609-837h230v824h153zm-363 0c3-182-8-376 8-546L269-505h375" id="ax"/><g id="h"><use transform="matrix(0.008680555555555554,0,0,0.008680555555555554,0,0)" xlink:href="#av"/><use transform="matrix(0.008680555555555554,0,0,0.008680555555555554,9.010416666666666,0)" xlink:href="#ax"/></g><path fill="#fff" d="M1037-902c0 300-189 436-495 441H378V0H115v-1328h427c303 4 495 131 495 426zm-263 0c0-143-81-224-232-224H378v461h164c156 2 232-87 232-237" id="ay"/><path fill="#fff" d="M122-1328c70 6 164-16 206 20 6 5 13 12 20 21l654 862c-4-44-6-86-6-125v-778h231V0c-62-4-141 10-187-10-14-6-27-18-40-35L348-902c4 41 6 80 6 115V0H122v-1328" id="az"/><g id="j"><use transform="matrix(0.013020833333333334,0,0,0.013020833333333334,0,0)" xlink:href="#al"/><use transform="matrix(0.013020833333333334,0,0,0.013020833333333334,12.604166666666668,0)" xlink:href="#am"/><use transform="matrix(0.013020833333333334,0,0,0.013020833333333334,19.713541666666668,0)" xlink:href="#an"/><use transform="matrix(0.013020833333333334,0,0,0.013020833333333334,32.91666666666667,0)" xlink:href="#ao"/><use transform="matrix(0.013020833333333334,0,0,0.013020833333333334,45.92447916666667,0)" xlink:href="#ap"/><use transform="matrix(0.013020833333333334,0,0,0.013020833333333334,59.44010416666667,0)" xlink:href="#aq"/><use transform="matrix(0.013020833333333334,0,0,0.013020833333333334,72.72135416666667,0)" xlink:href="#al"/><use transform="matrix(0.013020833333333334,0,0,0.013020833333333334,85.32552083333334,0)" xlink:href="#ay"/><use transform="matrix(0.013020833333333334,0,0,0.013020833333333334,99.51822916666667,0)" xlink:href="#am"/><use transform="matrix(0.013020833333333334,0,0,0.013020833333333334,106.62760416666667,0)" xlink:href="#az"/><use transform="matrix(0.013020833333333334,0,0,0.013020833333333334,124.19270833333334,0)" xlink:href="#ao"/><use transform="matrix(0.013020833333333334,0,0,0.013020833333333334,137.20052083333334,0)" xlink:href="#ap"/></g><filter id="i" filterUnits="objectBoundingBox" x="-.03" y="-.04" width="1.06" height="1.21"><feOffset result="offOut" in="SourceAlpha" dy="6"/><feGaussianBlur result="blurOut" in="offOut" stdDeviation="5"/><feColorMatrix result="colorOut" in="blurOut" values="0 0 0 0 0 0 0 0 0 0 0 0 0 0 0 0 0 0 0.5019607843137255 0"/><feBlend in="SourceGraphic" in2="colorOut"/></filter><path fill="#fff" d="M89-955c40-238 181-388 449-388 250 0 409 134 409 381 0 232-139 347-258 472L407-195c126-46 310-24 475-29 49-1 86 32 85 80V0H69c-2-76 0-138 43-180 161-160 326-321 472-494 63-74 110-153 115-281 6-143-107-217-242-175-61 19-100 69-121 131-19 56-46 79-119 66" id="aA"/><g id="k"><use transform="matrix(0.013020833333333334,0,0,0.013020833333333334,0,0)" xlink:href="#al"/><use transform="matrix(0.013020833333333334,0,0,0.013020833333333334,12.604166666666668,0)" xlink:href="#am"/><use transform="matrix(0.013020833333333334,0,0,0.013020833333333334,19.713541666666668,0)" xlink:href="#an"/><use transform="matrix(0.013020833333333334,0,0,0.013020833333333334,32.91666666666667,0)" xlink:href="#ao"/><use transform="matrix(0.013020833333333334,0,0,0.013020833333333334,45.92447916666667,0)" xlink:href="#ap"/><use transform="matrix(0.013020833333333334,0,0,0.013020833333333334,59.44010416666667,0)" xlink:href="#aq"/><use transform="matrix(0.013020833333333334,0,0,0.013020833333333334,72.72135416666667,0)" xlink:href="#al"/><use transform="matrix(0.013020833333333334,0,0,0.013020833333333334,85.32552083333334,0)" xlink:href="#ay"/><use transform="matrix(0.013020833333333334,0,0,0.013020833333333334,99.51822916666667,0)" xlink:href="#am"/><use transform="matrix(0.013020833333333334,0,0,0.013020833333333334,106.62760416666667,0)" xlink:href="#az"/><use transform="matrix(0.013020833333333334,0,0,0.013020833333333334,124.19270833333334,0)" xlink:href="#ao"/><use transform="matrix(0.013020833333333334,0,0,0.013020833333333334,137.20052083333334,0)" xlink:href="#aA"/></g><path fill="#4c535d" d="M225-1c-20 54-71 94-136 94H-18l680-1441c20-52 64-88 131-89h107" id="aB"/><path fill="#4c535d" d="M236-180h257c2-279-3-565 3-840L323-871c-27 30-91 18-110-9l-76-104 399-346h198v1150h227V0H236v-180" id="aC"/><g id="l"><use transform="matrix(0.008680555555555554,0,0,0.008680555555555554,0,0)" xlink:href="#av"/><use transform="matrix(0.008680555555555554,0,0,0.008680555555555554,9.010416666666666,0)" xlink:href="#av"/><use transform="matrix(0.008680555555555554,0,0,0.008680555555555554,18.020833333333332,0)" xlink:href="#aB"/><use transform="matrix(0.008680555555555554,0,0,0.008680555555555554,25.65972222222222,0)" xlink:href="#aC"/></g><path fill="#4c535d" d="M456-845c80-38 203-43 294-6 146 60 243 188 243 393 0 223-117 364-277 436-109 49-273 49-382 1C168-93 67-246 67-479c0-175 67-295 150-418l300-442c25-33 77-59 136-59h226c-141 184-282 368-423 553zm64 158c-139 0-209 104-209 247 0 149 63 249 209 249 141 0 219-103 219-248 0-149-72-248-219-248" id="aD"/><g id="m"><use transform="matrix(0.008680555555555554,0,0,0.008680555555555554,0,0)" xlink:href="#av"/><use transform="matrix(0.008680555555555554,0,0,0.008680555555555554,9.010416666666666,0)" xlink:href="#aD"/><use transform="matrix(0.008680555555555554,0,0,0.008680555555555554,18.020833333333332,0)" xlink:href="#aB"/><use transform="matrix(0.008680555555555554,0,0,0.008680555555555554,25.65972222222222,0)" xlink:href="#aC"/></g><path fill="#4c535d" d="M61-690h505v212H61v-212" id="aE"/><path fill="#4c535d" d="M977-395c0 272-183 410-458 410S61-123 61-395c0-179 82-285 228-334-115-51-185-151-185-308 0-185 109-293 248-348 99-39 235-39 334 0 140 55 248 162 248 348 0 158-70 257-186 308 146 49 229 155 229 334zm-654-4c0 133 63 217 196 217s196-84 196-217c0-142-55-224-196-224-140 0-196 84-196 224zm28-633c0 123 44 210 168 210 123 0 168-87 168-210 0-114-53-191-168-191s-168 77-168 191" id="aF"/><g id="n"><use transform="matrix(0.008680555555555554,0,0,0.008680555555555554,0,0)" xlink:href="#aC"/><use transform="matrix(0.008680555555555554,0,0,0.008680555555555554,9.010416666666666,0)" xlink:href="#aE"/><use transform="matrix(0.008680555555555554,0,0,0.008680555555555554,14.453124999999998,0)" xlink:href="#ax"/><use transform="matrix(0.008680555555555554,0,0,0.008680555555555554,23.463541666666664,0)" xlink:href="#aF"/></g><g id="p"><use transform="matrix(0.013020833333333334,0,0,0.013020833333333334,0,0)" xlink:href="#al"/><use transform="matrix(0.013020833333333334,0,0,0.013020833333333334,12.604166666666668,0)" xlink:href="#am"/><use transform="matrix(0.013020833333333334,0,0,0.013020833333333334,19.713541666666668,0)" xlink:href="#an"/><use transform="matrix(0.013020833333333334,0,0,0.013020833333333334,32.91666666666667,0)" xlink:href="#ao"/><use transform="matrix(0.013020833333333334,0,0,0.013020833333333334,45.92447916666667,0)" xlink:href="#ap"/><use transform="matrix(0.013020833333333334,0,0,0.013020833333333334,59.44010416666667,0)" xlink:href="#aq"/><use transform="matrix(0.013020833333333334,0,0,0.013020833333333334,72.72135416666667,0)" xlink:href="#ar"/><use transform="matrix(0.013020833333333334,0,0,0.013020833333333334,83.99739583333334,0)" xlink:href="#ao"/><use transform="matrix(0.013020833333333334,0,0,0.013020833333333334,96.67968750000001,0)" xlink:href="#as"/><use transform="matrix(0.013020833333333334,0,0,0.013020833333333334,112.8385416666667,0)" xlink:href="#at"/><use transform="matrix(0.013020833333333334,0,0,0.013020833333333334,125.078125,0)" xlink:href="#aA"/><use transform="matrix(0.013020833333333334,0,0,0.013020833333333334,138.59375,0)" xlink:href="#as"/></g><path fill="#fff" d="M363-958c5 40 8 85 8 127V0H139v-1328c83 3 177-6 251 6 17 7 27 17 36 35l412 720c23 42 42 86 59 131 19-46 36-91 59-133l409-718c14-32 40-41 88-41h198V0h-231c1-296-1-596 2-890 1-21 2-42 4-64l-419 742c-28 50-62 58-128 58-41 0-70-20-92-58" id="aG"/><path fill="#fff" d="M352-974c116-47 283-48 399 0 177 72 288 230 288 475 0 247-110 405-288 478-116 48-283 48-399 0C173-94 62-251 62-499c0-246 112-403 290-475zm-28 477c0 189 54 318 228 318 172 0 225-131 225-318s-53-318-225-318c-174 0-228 130-228 318" id="aH"/><path fill="#fff" d="M483-1012c112 0 179 37 238 92v-517h254V0H818c-73 2-64-82-83-135C661-54 570 15 422 15 157 15 63-214 63-494c0-232 92-397 247-478 52-26 110-40 173-40zM325-494c0 166 29 308 186 308 106 0 161-51 210-111v-438c-43-55-93-85-178-85-170 0-218 146-218 326" id="aI"/><path fill="#fff" d="M439 15c-225-4-332-150-332-377v-631h254v631c0 110 48 181 156 180 91-1 152-46 204-95v-716h254V0c-65-5-152 14-197-12-30-17-26-70-39-106C664-46 580 18 439 15" id="aJ"/><path fill="#fff" d="M379-1437V0H125v-1437h254" id="aK"/><path fill="#fff" d="M534-1012c240 0 371 147 371 387V0c-80-7-186 24-201-53l-22-66C598-47 516 18 362 15 183 12 73-75 73-255c0-177 142-239 303-283 75-20 169-31 281-34 9-142-26-239-155-239-97 0-149 37-209 70-49 27-108 2-128-33l-46-80c103-96 231-158 415-158zM316-268c-2 80 48 110 125 110 107 0 156-41 216-100v-160c-111 5-199 15-269 48-43 21-70 49-72 102" id="aL"/><path fill="#fff" d="M545-767c-109 4-148 72-181 151V0H110v-993c66 5 161-12 204 14 28 28 23 102 33 150 53-94 116-183 244-183 43 0 79 10 107 31l-19 190c-6 59-87 22-134 24" id="aM"/><g id="q"><use transform="matrix(0.008680555555555554,0,0,0.008680555555555554,0,0)" xlink:href="#aG"/><use transform="matrix(0.008680555555555554,0,0,0.008680555555555554,15.538194444444443,0)" xlink:href="#aH"/><use transform="matrix(0.008680555555555554,0,0,0.008680555555555554,25.095486111111107,0)" xlink:href="#aI"/><use transform="matrix(0.008680555555555554,0,0,0.008680555555555554,34.63541666666666,0)" xlink:href="#aJ"/><use transform="matrix(0.008680555555555554,0,0,0.008680555555555554,44.175347222222214,0)" xlink:href="#aK"/><use transform="matrix(0.008680555555555554,0,0,0.008680555555555554,48.54166666666666,0)" xlink:href="#aL"/><use transform="matrix(0.008680555555555554,0,0,0.008680555555555554,57.31770833333332,0)" xlink:href="#aM"/></g><filter id="o" filterUnits="objectBoundingBox" x="-.06" y="-.02" width="1.12" height="1.1"><feOffset result="offOut" in="SourceAlpha" dy="6"/><feGaussianBlur result="blurOut" in="offOut" stdDeviation="5"/><feColorMatrix result="colorOut" in="blurOut" values="0 0 0 0 0 0 0 0 0 0 0 0 0 0 0 0 0 0 0.5019607843137255 0"/><feBlend in="SourceGraphic" in2="colorOut"/></filter><path fill="#4c535d" d="M137-1111c-27 1-55-27-55-55v-162h902c1 84-3 171-29 226L478-82C454-38 420 0 351 0H175l488-997c23-44 44-80 76-114H137" id="aN"/><g id="r"><use transform="matrix(0.008680555555555554,0,0,0.008680555555555554,0,0)" xlink:href="#aw"/><use transform="matrix(0.008680555555555554,0,0,0.008680555555555554,9.010416666666666,0)" xlink:href="#aE"/><use transform="matrix(0.008680555555555554,0,0,0.008680555555555554,14.453124999999998,0)" xlink:href="#aN"/><use transform="matrix(0.008680555555555554,0,0,0.008680555555555554,23.463541666666664,0)" xlink:href="#aB"/><use transform="matrix(0.008680555555555554,0,0,0.008680555555555554,31.10243055555555,0)" xlink:href="#aC"/><use transform="matrix(0.008680555555555554,0,0,0.008680555555555554,40.112847222222214,0)" xlink:href="#aE"/><use transform="matrix(0.008680555555555554,0,0,0.008680555555555554,45.55555555555554,0)" xlink:href="#ax"/><use transform="matrix(0.008680555555555554,0,0,0.008680555555555554,54.56597222222221,0)" xlink:href="#aF"/></g><g id="s"><use transform="matrix(0.008680555555555554,0,0,0.008680555555555554,0,0)" xlink:href="#aC"/><use transform="matrix(0.008680555555555554,0,0,0.008680555555555554,9.010416666666666,0)" xlink:href="#aB"/><use transform="matrix(0.008680555555555554,0,0,0.008680555555555554,16.649305555555554,0)" xlink:href="#aC"/></g><g id="t"><use transform="matrix(0.008680555555555554,0,0,0.008680555555555554,0,0)" xlink:href="#aC"/><use transform="matrix(0.008680555555555554,0,0,0.008680555555555554,9.010416666666666,0)" xlink:href="#aB"/><use transform="matrix(0.008680555555555554,0,0,0.008680555555555554,16.649305555555554,0)" xlink:href="#aw"/></g><path fill="#fff" d="M113-955c38-239 181-388 448-388 186 0 310 81 369 209 18 42 27 87 27 134 1 168-77 256-203 297 151 51 227 154 227 307C981-126 800 8 532 14 260 20 143-131 76-338c63-25 186-102 236-14 46 82 93 164 218 164 130 0 203-76 210-200 9-175-112-206-288-206v-171c158-2 269-37 269-193 0-117-60-182-173-183-99-1-165 67-190 142-19 57-44 79-118 66" id="aO"/><g id="u"><use transform="matrix(0.010850694444444444,0,0,0.010850694444444444,0,0)" xlink:href="#al"/><use transform="matrix(0.010850694444444444,0,0,0.010850694444444444,10.503472222222221,0)" xlink:href="#am"/><use transform="matrix(0.010850694444444444,0,0,0.010850694444444444,16.427951388888886,0)" xlink:href="#an"/><use transform="matrix(0.010850694444444444,0,0,0.010850694444444444,27.43055555555555,0)" xlink:href="#ao"/><use transform="matrix(0.010850694444444444,0,0,0.010850694444444444,38.27039930555555,0)" xlink:href="#ap"/><use transform="matrix(0.010850694444444444,0,0,0.010850694444444444,49.533420138888886,0)" xlink:href="#aq"/><use transform="matrix(0.010850694444444444,0,0,0.010850694444444444,60.60112847222221,0)" xlink:href="#ar"/><use transform="matrix(0.010850694444444444,0,0,0.010850694444444444,69.9978298611111,0)" xlink:href="#ao"/><use transform="matrix(0.010850694444444444,0,0,0.010850694444444444,80.56640624999999,0)" xlink:href="#as"/><use transform="matrix(0.010850694444444444,0,0,0.010850694444444444,94.03211805555556,0)" xlink:href="#at"/><use transform="matrix(0.010850694444444444,0,0,0.010850694444444444,104.23177083333331,0)" xlink:href="#aO"/><use transform="matrix(0.010850694444444444,0,0,0.010850694444444444,115.49479166666664,0)" xlink:href="#as"/></g><g id="v"><use transform="matrix(0.010850694444444444,0,0,0.010850694444444444,0,0)" xlink:href="#al"/><use transform="matrix(0.010850694444444444,0,0,0.010850694444444444,10.503472222222221,0)" xlink:href="#am"/><use transform="matrix(0.010850694444444444,0,0,0.010850694444444444,16.427951388888886,0)" xlink:href="#an"/><use transform="matrix(0.010850694444444444,0,0,0.010850694444444444,27.43055555555555,0)" xlink:href="#ao"/><use transform="matrix(0.010850694444444444,0,0,0.010850694444444444,38.27039930555555,0)" xlink:href="#ap"/><use transform="matrix(0.010850694444444444,0,0,0.010850694444444444,49.533420138888886,0)" xlink:href="#aq"/><use transform="matrix(0.010850694444444444,0,0,0.010850694444444444,60.60112847222221,0)" xlink:href="#ar"/><use transform="matrix(0.010850694444444444,0,0,0.010850694444444444,69.9978298611111,0)" xlink:href="#ao"/><use transform="matrix(0.010850694444444444,0,0,0.010850694444444444,80.56640624999999,0)" xlink:href="#as"/><use transform="matrix(0.010850694444444444,0,0,0.010850694444444444,94.03211805555556,0)" xlink:href="#at"/><use transform="matrix(0.010850694444444444,0,0,0.010850694444444444,104.23177083333331,0)" xlink:href="#aO"/><use transform="matrix(0.010850694444444444,0,0,0.010850694444444444,115.49479166666664,0)" xlink:href="#au"/></g><path fill="#4c535d" d="M558-1343c315 4 477 226 426 559-19 123-74 216-134 304L560-55C509 26 342-7 215 0c152-194 307-385 457-581-80 52-225 75-333 30-135-54-228-169-228-358 0-206 113-334 264-399 55-23 116-35 183-35zm-4 636c137 0 210-84 210-219 0-137-73-221-209-221-132 0-201 87-204 219-3 139 67 221 203 221" id="aP"/><g id="w"><use transform="matrix(0.008680555555555554,0,0,0.008680555555555554,0,0)" xlink:href="#aP"/><use transform="matrix(0.008680555555555554,0,0,0.008680555555555554,9.010416666666666,0)" xlink:href="#aF"/><use transform="matrix(0.008680555555555554,0,0,0.008680555555555554,18.020833333333332,0)" xlink:href="#aB"/><use transform="matrix(0.008680555555555554,0,0,0.008680555555555554,25.65972222222222,0)" xlink:href="#aw"/></g><g id="x"><use transform="matrix(0.008680555555555554,0,0,0.008680555555555554,0,0)" xlink:href="#aP"/><use transform="matrix(0.008680555555555554,0,0,0.008680555555555554,9.010416666666666,0)" xlink:href="#aF"/><use transform="matrix(0.008680555555555554,0,0,0.008680555555555554,18.020833333333332,0)" xlink:href="#aB"/><use transform="matrix(0.008680555555555554,0,0,0.008680555555555554,25.65972222222222,0)" xlink:href="#ax"/></g><path fill="#fff" d="M1063-193C972-66 836 14 625 14 325 14 160-160 82-392c-55-162-54-387 4-546 84-230 253-399 553-405 185-4 321 74 409 173-37 47-65 102-108 143-52 29-90-19-122-42-68-49-222-71-314-21-130 72-193 222-193 425 0 205 69 355 201 427 92 51 249 32 318-20 30-23 81-99 128-48" id="aQ"/><g id="y"><use transform="matrix(0.013020833333333334,0,0,0.013020833333333334,0,0)" xlink:href="#al"/><use transform="matrix(0.013020833333333334,0,0,0.013020833333333334,12.604166666666668,0)" xlink:href="#am"/><use transform="matrix(0.013020833333333334,0,0,0.013020833333333334,19.713541666666668,0)" xlink:href="#an"/><use transform="matrix(0.013020833333333334,0,0,0.013020833333333334,32.91666666666667,0)" xlink:href="#ao"/><use transform="matrix(0.013020833333333334,0,0,0.013020833333333334,45.92447916666667,0)" xlink:href="#ap"/><use transform="matrix(0.013020833333333334,0,0,0.013020833333333334,59.44010416666667,0)" xlink:href="#aq"/><use transform="matrix(0.013020833333333334,0,0,0.013020833333333334,72.72135416666667,0)" xlink:href="#ar"/><use transform="matrix(0.013020833333333334,0,0,0.013020833333333334,83.99739583333334,0)" xlink:href="#ao"/><use transform="matrix(0.013020833333333334,0,0,0.013020833333333334,96.67968750000001,0)" xlink:href="#as"/><use transform="matrix(0.013020833333333334,0,0,0.013020833333333334,112.8385416666667,0)" xlink:href="#at"/><use transform="matrix(0.013020833333333334,0,0,0.013020833333333334,125.078125,0)" xlink:href="#aO"/><use transform="matrix(0.013020833333333334,0,0,0.013020833333333334,138.59375,0)" xlink:href="#aQ"/></g><path fill="#fff" d="M1198-932c62 158 61 378 0 536C1107-162 916 0 600 0H116v-1328h484c315 6 507 163 598 396zM600-209c264-9 377-187 377-456 0-268-114-446-377-455H380v911h220" id="aR"/><g id="z"><use transform="matrix(0.013020833333333334,0,0,0.013020833333333334,0,0)" xlink:href="#al"/><use transform="matrix(0.013020833333333334,0,0,0.013020833333333334,12.604166666666668,0)" xlink:href="#am"/><use transform="matrix(0.013020833333333334,0,0,0.013020833333333334,19.713541666666668,0)" xlink:href="#an"/><use transform="matrix(0.013020833333333334,0,0,0.013020833333333334,32.91666666666667,0)" xlink:href="#ao"/><use transform="matrix(0.013020833333333334,0,0,0.013020833333333334,45.92447916666667,0)" xlink:href="#ap"/><use transform="matrix(0.013020833333333334,0,0,0.013020833333333334,59.44010416666667,0)" xlink:href="#aq"/><use transform="matrix(0.013020833333333334,0,0,0.013020833333333334,72.72135416666667,0)" xlink:href="#ar"/><use transform="matrix(0.013020833333333334,0,0,0.013020833333333334,83.99739583333334,0)" xlink:href="#ao"/><use transform="matrix(0.013020833333333334,0,0,0.013020833333333334,96.67968750000001,0)" xlink:href="#as"/><use transform="matrix(0.013020833333333334,0,0,0.013020833333333334,112.8385416666667,0)" xlink:href="#at"/><use transform="matrix(0.013020833333333334,0,0,0.013020833333333334,125.078125,0)" xlink:href="#aO"/><use transform="matrix(0.013020833333333334,0,0,0.013020833333333334,138.59375,0)" xlink:href="#aR"/></g><g id="A"><use transform="matrix(0.008680555555555554,0,0,0.008680555555555554,0,0)" xlink:href="#aP"/><use transform="matrix(0.008680555555555554,0,0,0.008680555555555554,9.010416666666666,0)" xlink:href="#aN"/><use transform="matrix(0.008680555555555554,0,0,0.008680555555555554,18.020833333333332,0)" xlink:href="#aB"/><use transform="matrix(0.008680555555555554,0,0,0.008680555555555554,25.65972222222222,0)" xlink:href="#aC"/></g><path fill="#4c535d" d="M89-955c40-238 181-388 449-388 250 0 409 134 409 381 0 232-139 347-258 472L407-195c126-46 310-24 475-29 49-1 86 32 85 80V0H69c-2-76 0-138 43-180 161-160 326-321 472-494 63-74 110-153 115-281 6-143-107-217-242-175-61 19-100 69-121 131-19 56-46 79-119 66" id="aS"/><g id="B"><use transform="matrix(0.008680555555555554,0,0,0.008680555555555554,0,0)" xlink:href="#aP"/><use transform="matrix(0.008680555555555554,0,0,0.008680555555555554,9.010416666666666,0)" xlink:href="#aN"/><use transform="matrix(0.008680555555555554,0,0,0.008680555555555554,18.020833333333332,0)" xlink:href="#aB"/><use transform="matrix(0.008680555555555554,0,0,0.008680555555555554,25.65972222222222,0)" xlink:href="#aS"/></g><g id="C"><use transform="matrix(0.008680555555555554,0,0,0.008680555555555554,0,0)" xlink:href="#aC"/><use transform="matrix(0.008680555555555554,0,0,0.008680555555555554,9.010416666666666,0)" xlink:href="#aE"/><use transform="matrix(0.008680555555555554,0,0,0.008680555555555554,14.453124999999998,0)" xlink:href="#aP"/><use transform="matrix(0.008680555555555554,0,0,0.008680555555555554,23.463541666666664,0)" xlink:href="#aD"/></g><path fill="#ced4db" d="M24 0v-248h52V0H24" id="aT"/><path fill="#ced4db" d="M24-248c120-7 223 5 221 122C244-46 201 0 124 0H24v-248zM76-40c74 7 117-18 117-86 0-67-45-88-117-82v168" id="aU"/><path fill="#ced4db" d="M128-127c34 4 56 21 59 58 7 91-148 94-172 28-4-9-6-17-7-26l51-5c1 24 16 35 40 36 23 0 39-12 38-36-1-31-31-36-65-34v-40c32 2 59-3 59-33 0-20-13-33-34-33s-33 13-35 32l-50-3c6-44 37-68 86-68 50 0 83 20 83 66 0 35-22 52-53 58" id="aV"/><g id="D"><use transform="matrix(0.07407407407407407,0,0,0.07407407407407407,0,0)" xlink:href="#aT"/><use transform="matrix(0.07407407407407407,0,0,0.07407407407407407,7.4074074074074066,0)" xlink:href="#aU"/><use transform="matrix(0.07407407407407407,0,0,0.07407407407407407,26.592592592592588,0)" xlink:href="#ag"/><use transform="matrix(0.07407407407407407,0,0,0.07407407407407407,42.81481481481481,0)" xlink:href="#aV"/></g><path fill="#ced4db" d="M155-56V0h-30v-56H8v-25l114-167h33v167h35v25h-35zm-30-156c-27 46-58 90-88 131h88v-131" id="aW"/><path fill="#ced4db" d="M134-131c28 9 52 24 51 62-1 50-34 73-85 73S17-19 16-69c0-36 21-54 49-61-75-25-45-126 34-121 46 3 78 18 79 63 0 33-17 51-44 57zm-34-11c31 1 46-15 46-44 0-28-17-43-47-42-29 0-46 13-45 42 1 28 16 44 46 44zm1 122c35 0 51-18 51-52 0-30-18-46-53-46-33 0-51 17-51 47 0 34 19 51 53 51" id="aX"/><path fill="#ced4db" d="M101-251c68 0 85 55 85 127S166 4 100 4C33 4 14-52 14-124c0-73 17-127 87-127zm-1 229c47 0 54-49 54-102s-4-102-53-102c-51 0-55 48-55 102 0 53 5 102 54 102" id="aY"/><g id="E"><use transform="matrix(0.06172839506172839,0,0,0.06172839506172839,0,0)" xlink:href="#aW"/><use transform="matrix(0.06172839506172839,0,0,0.06172839506172839,12.345679012345679,0)" xlink:href="#aX"/><use transform="matrix(0.06172839506172839,0,0,0.06172839506172839,24.691358024691358,0)" xlink:href="#aY"/></g><path fill="#ced4db" d="M232-93c-1 65-40 97-104 97C67 4 28-28 28-90v-158h33c8 89-33 224 67 224 102 0 64-133 71-224h33v155" id="aZ"/><path fill="#ced4db" d="M135-143c-3-34-86-38-87 0 15 53 115 12 119 90S17 21 10-45l28-5c4 36 97 45 98 0-10-56-113-15-118-90-4-57 82-63 122-42 12 7 21 19 24 35" id="ba"/><path fill="#ced4db" d="M100-194c63 0 86 42 84 106H49c0 40 14 67 53 68 26 1 43-12 49-29l28 8c-11 28-37 45-77 45C44 4 14-33 15-96c1-61 26-98 85-98zm52 81c6-60-76-77-97-28-3 7-6 17-6 28h103" id="bb"/><path fill="#ced4db" d="M114-163C36-179 61-72 57 0H25l-1-190h30c1 12-1 29 2 39 6-27 23-49 58-41v29" id="bc"/><g id="F"><use transform="matrix(0.06172839506172839,0,0,0.06172839506172839,0,0)" xlink:href="#aZ"/><use transform="matrix(0.06172839506172839,0,0,0.06172839506172839,15.987654320987653,0)" xlink:href="#ba"/><use transform="matrix(0.06172839506172839,0,0,0.06172839506172839,27.098765432098766,0)" xlink:href="#bb"/><use transform="matrix(0.06172839506172839,0,0,0.06172839506172839,39.44444444444444,0)" xlink:href="#bc"/><use transform="matrix(0.06172839506172839,0,0,0.06172839506172839,46.79012345679012,0)" xlink:href="#ba"/></g><path fill="#ced4db" d="M23 0v-37h61v-169l-59 37v-38l62-41h46v211h57V0H23" id="bd"/><g id="G"><use transform="matrix(0.07407407407407407,0,0,0.07407407407407407,0,0)" xlink:href="#aT"/><use transform="matrix(0.07407407407407407,0,0,0.07407407407407407,7.4074074074074066,0)" xlink:href="#aU"/><use transform="matrix(0.07407407407407407,0,0,0.07407407407407407,26.592592592592588,0)" xlink:href="#ag"/><use transform="matrix(0.07407407407407407,0,0,0.07407407407407407,42.81481481481481,0)" xlink:href="#bd"/></g><path fill="#ced4db" d="M99-251c64 0 84 50 84 122C183-37 130 33 47-8c-14-7-20-23-25-40l30-5c6 39 69 39 84 7 9-19 16-44 16-74-10 22-31 35-62 35-49 0-73-33-73-83 0-54 28-83 82-83zm-1 141c31-1 51-18 51-49 0-36-14-67-51-67-34 0-49 23-49 58 0 34 15 58 49 58" id="be"/><path fill="#ced4db" d="M110-160c48 1 74 30 74 79 0 53-28 85-80 85-65 0-83-55-86-122-5-90 50-162 133-122 14 7 22 21 27 39l-31 6c-5-40-67-38-82-6-9 19-15 44-15 74 11-20 30-34 60-33zm-7 138c34 0 49-23 49-58s-16-56-50-56c-29 0-50 16-49 49 1 36 15 65 50 65" id="bf"/><g id="H"><use transform="matrix(0.06172839506172839,0,0,0.06172839506172839,0,0)" xlink:href="#be"/><use transform="matrix(0.06172839506172839,0,0,0.06172839506172839,12.345679012345679,0)" xlink:href="#bf"/></g><path fill="#ced4db" d="M182-182c0 78-84 86-111 141h115V0H12c-6-101 99-100 120-180 1-22-12-31-33-32-23 0-32 14-35 34l-49-3c5-45 32-70 84-70 51 0 83 22 83 69" id="bg"/><g id="I"><use transform="matrix(0.07407407407407407,0,0,0.07407407407407407,0,0)" xlink:href="#aT"/><use transform="matrix(0.07407407407407407,0,0,0.07407407407407407,7.4074074074074066,0)" xlink:href="#aU"/><use transform="matrix(0.07407407407407407,0,0,0.07407407407407407,26.592592592592588,0)" xlink:href="#ag"/><use transform="matrix(0.07407407407407407,0,0,0.07407407407407407,42.81481481481481,0)" xlink:href="#bg"/></g><path fill="#ced4db" d="M101-251c82-7 93 87 43 132L82-64C71-53 59-42 53-27h129V0H18c2-99 128-94 128-182 0-28-16-43-45-43s-46 15-49 41l-32-3c6-41 34-60 81-64" id="bh"/><g id="J"><use transform="matrix(0.06172839506172839,0,0,0.06172839506172839,0,0)" xlink:href="#bh"/><use transform="matrix(0.06172839506172839,0,0,0.06172839506172839,12.345679012345679,0)" xlink:href="#aW"/><use transform="matrix(0.06172839506172839,0,0,0.06172839506172839,24.691358024691358,0)" xlink:href="#aY"/></g><g id="K"><use transform="matrix(0.008680555555555554,0,0,0.008680555555555554,0,0)" xlink:href="#av"/><use transform="matrix(0.008680555555555554,0,0,0.008680555555555554,9.010416666666666,0)" xlink:href="#aC"/></g><g id="L"><use transform="matrix(0.013020833333333334,0,0,0.013020833333333334,0,0)" xlink:href="#al"/><use transform="matrix(0.013020833333333334,0,0,0.013020833333333334,12.604166666666668,0)" xlink:href="#am"/><use transform="matrix(0.013020833333333334,0,0,0.013020833333333334,19.713541666666668,0)" xlink:href="#an"/><use transform="matrix(0.013020833333333334,0,0,0.013020833333333334,32.91666666666667,0)" xlink:href="#ao"/><use transform="matrix(0.013020833333333334,0,0,0.013020833333333334,45.92447916666667,0)" xlink:href="#ap"/><use transform="matrix(0.013020833333333334,0,0,0.013020833333333334,59.44010416666667,0)" xlink:href="#aq"/><use transform="matrix(0.013020833333333334,0,0,0.013020833333333334,72.72135416666667,0)" xlink:href="#ar"/><use transform="matrix(0.013020833333333334,0,0,0.013020833333333334,83.99739583333334,0)" xlink:href="#ao"/><use transform="matrix(0.013020833333333334,0,0,0.013020833333333334,96.67968750000001,0)" xlink:href="#as"/><use transform="matrix(0.013020833333333334,0,0,0.013020833333333334,112.8385416666667,0)" xlink:href="#at"/><use transform="matrix(0.013020833333333334,0,0,0.013020833333333334,125.078125,0)" xlink:href="#aO"/><use transform="matrix(0.013020833333333334,0,0,0.013020833333333334,138.59375,0)" xlink:href="#ao"/></g><g id="M"><use transform="matrix(0.008680555555555554,0,0,0.008680555555555554,0,0)" xlink:href="#aP"/><use transform="matrix(0.008680555555555554,0,0,0.008680555555555554,9.010416666666666,0)" xlink:href="#aN"/><use transform="matrix(0.008680555555555554,0,0,0.008680555555555554,18.020833333333332,0)" xlink:href="#aB"/><use transform="matrix(0.008680555555555554,0,0,0.008680555555555554,25.65972222222222,0)" xlink:href="#aw"/></g><g id="N"><use transform="matrix(0.008680555555555554,0,0,0.008680555555555554,0,0)" xlink:href="#aP"/><use transform="matrix(0.008680555555555554,0,0,0.008680555555555554,9.010416666666666,0)" xlink:href="#aN"/><use transform="matrix(0.008680555555555554,0,0,0.008680555555555554,18.020833333333332,0)" xlink:href="#aB"/><use transform="matrix(0.008680555555555554,0,0,0.008680555555555554,25.65972222222222,0)" xlink:href="#ax"/></g><g id="O"><use transform="matrix(0.008680555555555554,0,0,0.008680555555555554,0,0)" xlink:href="#aP"/><use transform="matrix(0.008680555555555554,0,0,0.008680555555555554,9.010416666666666,0)" xlink:href="#aF"/><use transform="matrix(0.008680555555555554,0,0,0.008680555555555554,18.020833333333332,0)" xlink:href="#aB"/><use transform="matrix(0.008680555555555554,0,0,0.008680555555555554,25.65972222222222,0)" xlink:href="#aC"/></g><use transform="matrix(0.008680555555555554,0,0,0.008680555555555554,0,0)" xlink:href="#aC" id="P"/><g id="Q"><use transform="matrix(0.008680555555555554,0,0,0.008680555555555554,0,0)" xlink:href="#ax"/><use transform="matrix(0.008680555555555554,0,0,0.008680555555555554,9.010416666666666,0)" xlink:href="#aP"/><use transform="matrix(0.008680555555555554,0,0,0.008680555555555554,18.020833333333332,0)" xlink:href="#aB"/><use transform="matrix(0.008680555555555554,0,0,0.008680555555555554,25.65972222222222,0)" xlink:href="#aC"/></g><path fill="#4c535d" d="M960-966c48 161 48 442 0 603C896-149 775 14 517 14 261 14 140-150 78-363c-47-161-48-443 0-603 63-213 183-377 439-377s380 165 443 377zM602-206c161-87 169-454 126-694-24-133-71-244-211-244-138 0-184 113-207 244-41 238-36 607 122 694 54 29 116 28 170 0" id="bi"/><g id="R"><use transform="matrix(0.008680555555555554,0,0,0.008680555555555554,0,0)" xlink:href="#av"/><use transform="matrix(0.008680555555555554,0,0,0.008680555555555554,9.010416666666666,0)" xlink:href="#bi"/><use transform="matrix(0.008680555555555554,0,0,0.008680555555555554,18.020833333333332,0)" xlink:href="#aB"/><use transform="matrix(0.008680555555555554,0,0,0.008680555555555554,25.65972222222222,0)" xlink:href="#aC"/></g><g id="S"><use transform="matrix(0.008680555555555554,0,0,0.008680555555555554,0,0)" xlink:href="#av"/><use transform="matrix(0.008680555555555554,0,0,0.008680555555555554,9.010416666666666,0)" xlink:href="#aC"/><use transform="matrix(0.008680555555555554,0,0,0.008680555555555554,18.020833333333332,0)" xlink:href="#aB"/><use transform="matrix(0.008680555555555554,0,0,0.008680555555555554,25.65972222222222,0)" xlink:href="#aC"/></g><path fill="#ced4db" d="M230 0l2-204L168 0h-37L68-204 70 0H24v-248h70l56 185 57-185h69V0h-46" id="bj"/><g id="T"><use transform="matrix(0.07407407407407407,0,0,0.07407407407407407,0,0)" xlink:href="#bj"/><use transform="matrix(0.07407407407407407,0,0,0.07407407407407407,22.148148148148145,0)" xlink:href="#aU"/><use transform="matrix(0.07407407407407407,0,0,0.07407407407407407,41.33333333333333,0)" xlink:href="#ag"/></g><g id="U"><use transform="matrix(0.008680555555555554,0,0,0.008680555555555554,0,0)" xlink:href="#av"/><use transform="matrix(0.008680555555555554,0,0,0.008680555555555554,9.010416666666666,0)" xlink:href="#aS"/><use transform="matrix(0.008680555555555554,0,0,0.008680555555555554,18.020833333333332,0)" xlink:href="#aB"/><use transform="matrix(0.008680555555555554,0,0,0.008680555555555554,25.65972222222222,0)" xlink:href="#aC"/></g><path fill="#333" d="M266 0h-40l-56-210L115 0H75L2-248h35L96-30l15-64 43-154h32l59 218 59-218h35" id="bk"/><path fill="#333" d="M205 0l-28-72H64L36 0H1l101-248h38L239 0h-34zm-38-99l-47-123c-12 45-31 82-46 123h93" id="bl"/><path fill="#333" d="M190 0L58-211 59 0H30v-248h39L202-35l-2-213h31V0h-41" id="bm"/><path fill="#333" d="M0 4l72-265h28L28 4H0" id="bn"/><path fill="#333" d="M212-179c-10-28-35-45-73-45-59 0-87 40-87 99 0 60 29 101 89 101 43 0 62-24 78-52l27 14C228-24 195 4 139 4 59 4 22-46 18-125c-6-104 99-153 187-111 19 9 31 26 39 46" id="bo"/><path fill="#333" d="M100-194c62-1 85 37 85 99 1 63-27 99-86 99S16-35 15-95c0-66 28-99 85-99zM99-20c44 1 53-31 53-75 0-43-8-75-51-75s-53 32-53 75 10 74 51 75" id="bp"/><path fill="#333" d="M114-163C36-179 61-72 57 0H25l-1-190h30c1 12-1 29 2 39 6-27 23-49 58-41v29" id="bq"/><path fill="#333" d="M100-194c63 0 86 42 84 106H49c0 40 14 67 53 68 26 1 43-12 49-29l28 8c-11 28-37 45-77 45C44 4 14-33 15-96c1-61 26-98 85-98zm52 81c6-60-76-77-97-28-3 7-6 17-6 28h103" id="br"/><g id="V"><use transform="matrix(0.06172839506172839,0,0,0.06172839506172839,0,0)" xlink:href="#bk"/><use transform="matrix(0.06172839506172839,0,0,0.06172839506172839,20.123456790123456,0)" xlink:href="#bl"/><use transform="matrix(0.06172839506172839,0,0,0.06172839506172839,34.938271604938265,0)" xlink:href="#bm"/><use transform="matrix(0.06172839506172839,0,0,0.06172839506172839,50.92592592592592,0)" xlink:href="#bn"/><use transform="matrix(0.06172839506172839,0,0,0.06172839506172839,57.09876543209876,0)" xlink:href="#bo"/><use transform="matrix(0.06172839506172839,0,0,0.06172839506172839,73.08641975308642,0)" xlink:href="#bp"/><use transform="matrix(0.06172839506172839,0,0,0.06172839506172839,85.4320987654321,0)" xlink:href="#bq"/><use transform="matrix(0.06172839506172839,0,0,0.06172839506172839,92.77777777777779,0)" xlink:href="#br"/></g></defs></g></svg>