<svg xmlns="http://www.w3.org/2000/svg" xmlns:xlink="http://www.w3.org/1999/xlink" xmlns:lucid="lucid" width="1741.18" height="1284.65"><g transform="translate(1359.2610002798315 741.380530143626)" lucid:page-tab-id="RxZ4dIY6hwKH"><path d="M-912-494.7a20 20 0 0 1 20-20h857.04a20 20 0 0 1 20 20v124.76a20 20 0 0 1-20 20H-892a20 20 0 0 1-20-20zM-1344.98 90.44a20 20 0 0 1 20-20h432.6a20 20 0 0 1 20 20V448.9a20 20 0 0 1-20 20h-432.6a20 20 0 0 1-20-20zM-838.67 90.44a20 20 0 0 1 20-20h432.6a20 20 0 0 1 20 20V448.9a20 20 0 0 1-20 20h-432.6a20 20 0 0 1-20-20zM-330.35 91.92a20 20 0 0 1 20-20h670.77a20 20 0 0 1 20 20v358.45a20 20 0 0 1-20 20h-670.77a20 20 0 0 1-20-20z" stroke="#ced4db" stroke-width="3" fill="#ced4db"/><path d="M-1358.26-516.05h362.8v113.03h-362.8z" fill="none"/><use xlink:href="#a" transform="matrix(1,0,0,1,-1358.2610002798315,-516.0526304418922) translate(0 38.33333333333334)"/><use xlink:href="#b" transform="matrix(1,0,0,1,-1358.2610002798315,-516.0526304418922) translate(0 94.33333333333331)"/><use xlink:href="#c" transform="matrix(1,0,0,1,-1358.2610002798315,-516.0526304418922) translate(196.6481481481481 94.33333333333331)"/><g filter="url(#d)"><path d="M-1316.5 212.87a.5.5 0 0 1 .5-.5h168.65a.5.5 0 0 1 .5.5v93.42a.5.5 0 0 1-.5.5H-1316a.5.5 0 0 1-.5-.5z" fill="#fff" fill-opacity="0"/><path d="M-1316 212.37a.5.5 0 0 0-.5.5v93.42a.5.5 0 0 0 .5.5h168.65a.5.5 0 0 0 .5-.5v-93.43a.5.5 0 0 0-.5-.5z" stroke="#315796" stroke-width="3" fill="#315796"/><use xlink:href="#e" transform="matrix(1,0,0,1,-1306.6465151799246,223.42129279615511) translate(10.5197482638889 42.05555555555556)"/></g><g filter="url(#d)"><path d="M-1072.25 212.87a.5.5 0 0 1 .5-.5h168.64a.5.5 0 0 1 .5.5v93.42a.5.5 0 0 1-.5.5h-168.65a.5.5 0 0 1-.5-.5z" fill="#fff" fill-opacity="0"/><path d="M-1071.75 212.37a.5.5 0 0 0-.5.5v93.42a.5.5 0 0 0 .5.5h168.64a.5.5 0 0 0 .5-.5v-93.43a.5.5 0 0 0-.5-.5z" stroke="#315796" stroke-width="3" fill="#315796"/><use xlink:href="#f" transform="matrix(1,0,0,1,-1062.4091833955943,223.42129279615511) translate(11.024305555555571 42.05555555555556)"/></g><path d="M-1160.6 235.58a.5.5 0 0 1 .5-.5h37a.5.5 0 0 1 .5.5v22.97a.5.5 0 0 1-.5.5h-37a.5.5 0 0 1-.5-.5z" fill="#fff" fill-opacity="0"/><path d="M-1160.1 236.05a.5.5 0 0 0-.5.5v21.03a.5.5 0 0 0 .5.5h37a.5.5 0 0 0 .5-.5v-21.03a.5.5 0 0 0-.5-.5z" stroke="#5e5e5e" fill="#fff"/><use xlink:href="#g" transform="matrix(1,0,0,1,-1146.2067190780397,235.0833079445349) translate(-4.010416666666666 16.444444444444443)"/><path d="M-1160.6 260.6a.5.5 0 0 1 .5-.5h37a.5.5 0 0 1 .5.5v22.98a.5.5 0 0 1-.5.5h-37a.5.5 0 0 1-.5-.5z" fill="#fff" fill-opacity="0"/><path d="M-1160.1 261.08a.5.5 0 0 0-.5.5v21.03a.5.5 0 0 0 .5.5h37a.5.5 0 0 0 .5-.5V261.6a.5.5 0 0 0-.5-.5z" stroke="#5e5e5e" fill="#fff"/><use xlink:href="#h" transform="matrix(1,0,0,1,-1146.2067190780397,260.1145579445349) translate(-4.010416666666666 16.444444444444443)"/><path d="M-1092.6 235.58a.5.5 0 0 1 .5-.5h37a.5.5 0 0 1 .5.5v22.97a.5.5 0 0 1-.5.5h-37a.5.5 0 0 1-.5-.5z" fill="#fff" fill-opacity="0"/><path d="M-1092.1 236.05a.5.5 0 0 0-.5.5v21.03a.5.5 0 0 0 .5.5h37a.5.5 0 0 0 .5-.5v-21.03a.5.5 0 0 0-.5-.5z" stroke="#5e5e5e" fill="#fff"/><use xlink:href="#g" transform="matrix(1,0,0,1,-1078.2067190780397,235.0833079445349) translate(-4.010416666666666 16.444444444444443)"/><path d="M-1092.6 260.6a.5.5 0 0 1 .5-.5h37a.5.5 0 0 1 .5.5v22.98a.5.5 0 0 1-.5.5h-37a.5.5 0 0 1-.5-.5z" fill="#fff" fill-opacity="0"/><path d="M-1092.1 261.08a.5.5 0 0 0-.5.5v21.03a.5.5 0 0 0 .5.5h37a.5.5 0 0 0 .5-.5V261.6a.5.5 0 0 0-.5-.5z" stroke="#5e5e5e" fill="#fff"/><use xlink:href="#h" transform="matrix(1,0,0,1,-1078.2067190780397,260.1145579445349) translate(-4.010416666666666 16.444444444444443)"/><path d="M-1120.6 247.07h26" stroke="#979ea8" stroke-width="3" fill="none"/><path d="M-1120.57 248.54h-1.54v-2.95h1.53zM-1093.1 248.54h-1.55v-2.95h1.54z" stroke="#979ea8" stroke-width=".05" fill="#979ea8"/><path d="M-1120.6 272.1h26" stroke="#979ea8" stroke-width="3" fill="none"/><path d="M-1120.57 273.57h-1.54v-2.95h1.53zM-1093.1 273.57h-1.55v-2.95h1.54z" stroke="#979ea8" stroke-width=".05" fill="#979ea8"/><g filter="url(#i)"><path d="M-877.55-485.86a.5.5 0 0 1 .5-.5h359a.5.5 0 0 1 .5.5v93.4a.5.5 0 0 1-.5.5h-359a.5.5 0 0 1-.5-.5z" fill="#fff" fill-opacity="0"/><path d="M-877.05-486.36a.5.5 0 0 0-.5.5v93.4a.5.5 0 0 0 .5.5h359a.5.5 0 0 0 .5-.5v-93.4a.5.5 0 0 0-.5-.5z" stroke="#315796" stroke-width="3" fill="#315796"/><use xlink:href="#j" transform="matrix(1,0,0,1,-856.6659873541727,-475.3168977952881) translate(83.64192708333333 43.166666666666664)"/></g><g filter="url(#i)"><path d="M-406.88-485.86a.5.5 0 0 1 .5-.5h359a.5.5 0 0 1 .5.5v93.4a.5.5 0 0 1-.5.5h-359a.5.5 0 0 1-.5-.5z" fill="#fff" fill-opacity="0"/><path d="M-406.38-486.36a.5.5 0 0 0-.5.5v93.4a.5.5 0 0 0 .5.5h359a.5.5 0 0 0 .5-.5v-93.4a.5.5 0 0 0-.5-.5z" stroke="#315796" stroke-width="3" fill="#315796"/><use xlink:href="#k" transform="matrix(1,0,0,1,-385.9993206875057,-475.3168977952881) translate(83.64192708333333 43.166666666666664)"/></g><path d="M-1227.26 198.96l461.66-576.84" stroke="#979ea8" stroke-width="3" fill="none"/><path d="M-1226.08 199.85l-.22.28h-3.78l1.7-2.12zM-764.47-376.93l-2.3-1.84.22-.28h3.78z" stroke="#979ea8" stroke-width=".05" fill="#979ea8"/><path d="M-988.16 199.18l695.82-577.27" stroke="#979ea8" stroke-width="3" fill="none"/><path d="M-987.32 200.13h-4.3l2.54-2.1zM-291.43-376.93l-1.75-2.12h4.3z" stroke="#979ea8" stroke-width=".05" fill="#979ea8"/><path d="M-539.23-467.86a.5.5 0 0 1 .5-.5h37a.5.5 0 0 1 .5.5v22.97a.5.5 0 0 1-.5.5h-37a.5.5 0 0 1-.5-.5z" fill="#fff" fill-opacity="0"/><path d="M-538.73-467.4a.5.5 0 0 0-.5.5v21.04a.5.5 0 0 0 .5.5h37a.5.5 0 0 0 .5-.5v-21.03a.5.5 0 0 0-.5-.5z" stroke="#5e5e5e" fill="#fff"/><use xlink:href="#l" transform="matrix(1,0,0,1,-524.8328209385752,-468.3637797074562) translate(-12.335069444444443 16.444444444444443)"/><path d="M-539.23-442.83a.5.5 0 0 1 .5-.5h37a.5.5 0 0 1 .5.5v22.97a.5.5 0 0 1-.5.5h-37a.5.5 0 0 1-.5-.5z" fill="#fff" fill-opacity="0"/><path d="M-538.73-442.36a.5.5 0 0 0-.5.5v21.03a.5.5 0 0 0 .5.5h37a.5.5 0 0 0 .5-.5v-21.03a.5.5 0 0 0-.5-.5z" stroke="#5e5e5e" fill="#fff"/><use xlink:href="#m" transform="matrix(1,0,0,1,-524.8328209385752,-443.3325297074562) translate(-12.335069444444443 16.444444444444443)"/><path d="M-431.75-467.86a.5.5 0 0 1 .5-.5h37a.5.5 0 0 1 .5.5v22.97a.5.5 0 0 1-.5.5h-37a.5.5 0 0 1-.5-.5z" fill="#fff" fill-opacity="0"/><path d="M-431.25-467.4a.5.5 0 0 0-.5.5v21.04a.5.5 0 0 0 .5.5h37a.5.5 0 0 0 .5-.5v-21.03a.5.5 0 0 0-.5-.5z" stroke="#5e5e5e" fill="#fff"/><use xlink:href="#l" transform="matrix(1,0,0,1,-417.3448102514724,-468.3637797074562) translate(-12.335069444444443 16.444444444444443)"/><path d="M-431.75-442.83a.5.5 0 0 1 .5-.5h37a.5.5 0 0 1 .5.5v22.97a.5.5 0 0 1-.5.5h-37a.5.5 0 0 1-.5-.5z" fill="#fff" fill-opacity="0"/><path d="M-431.25-442.36a.5.5 0 0 0-.5.5v21.03a.5.5 0 0 0 .5.5h37a.5.5 0 0 0 .5-.5v-21.03a.5.5 0 0 0-.5-.5z" stroke="#5e5e5e" fill="#fff"/><use xlink:href="#m" transform="matrix(1,0,0,1,-417.3448102514724,-443.3325297074562) translate(-12.335069444444443 16.444444444444443)"/><path d="M-499.24-456.38h65.5" stroke="#979ea8" stroke-width="3" fill="none"/><path d="M-499.2-454.9h-1.54v-2.95h1.54zM-432.25-454.9h-1.54v-2.95h1.55z" stroke="#979ea8" stroke-width=".05" fill="#979ea8"/><path d="M-499.24-431.35h65.5" stroke="#979ea8" stroke-width="3" fill="none"/><path d="M-499.2-429.87h-1.54v-2.95h1.54zM-432.25-429.87h-1.54v-2.95h1.55z" stroke="#979ea8" stroke-width=".05" fill="#979ea8"/><path d="M-463.97-420c-3.82 0-6.9-10.38-6.9-23.18 0-12.8 3.08-23.18 6.9-23.18 3.82 0 6.9 10.37 6.9 23.18 0 12.8-3.08 23.18-6.9 23.18zM-1108.86 283c-3.82 0-6.9-10.36-6.9-23.17 0-12.8 3.08-23.18 6.9-23.18 3.8 0 6.9 10.38 6.9 23.18 0 12.8-3.1 23.18-6.9 23.18z" stroke="#979ea8" stroke-width="2" fill-opacity="0"/><path d="M-1297.42 292.92a.5.5 0 0 1 .5-.5h130.5a.5.5 0 0 1 .5.5v22.97a.5.5 0 0 1-.5.5h-130.5a.5.5 0 0 1-.5-.5z" fill="#fff" fill-opacity="0"/><path d="M-1296.92 293.4a.5.5 0 0 0-.5.5v21.02a.5.5 0 0 0 .5.5h130.5a.5.5 0 0 0 .5-.5V293.9a.5.5 0 0 0-.5-.5z" stroke="#5e5e5e" fill="#fff"/><use xlink:href="#n" transform="matrix(1,0,0,1,-1247.5793964498398,292.42187319894106) translate(-0.2369791666666643 16.444444444444443)"/><path d="M-1053.2 292.92a.5.5 0 0 1 .5-.5h130.53a.5.5 0 0 1 .5.5v22.97a.5.5 0 0 1-.5.5h-130.52a.5.5 0 0 1-.5-.5z" fill="#fff" fill-opacity="0"/><path d="M-1052.7 293.4a.5.5 0 0 0-.5.5v21.02a.5.5 0 0 0 .5.5h130.53a.5.5 0 0 0 .5-.5V293.9a.5.5 0 0 0-.5-.5z" stroke="#5e5e5e" fill="#fff"/><use xlink:href="#n" transform="matrix(1,0,0,1,-1003.3420646655089,292.42187319894106) translate(-0.2369791666666643 16.444444444444443)"/><g filter="url(#o)"><path d="M-691.32 172.3a.5.5 0 0 1 .5-.5h168.63a.5.5 0 0 1 .5.5V368a.5.5 0 0 1-.5.5H-690.8a.5.5 0 0 1-.5-.5z" fill="#fff" fill-opacity="0"/><path d="M-690.82 171.8a.5.5 0 0 0-.5.5V368a.5.5 0 0 0 .5.5h168.63a.5.5 0 0 0 .5-.5V172.3a.5.5 0 0 0-.5-.5z" stroke="#315796" stroke-width="3" fill="#315796"/><use xlink:href="#p" transform="matrix(1,0,0,1,-681.485015578691,194.81189587786244) translate(-2.3763020833333286 73.27777777777777)"/><use xlink:href="#q" transform="matrix(1,0,0,1,-681.485015578691,194.81189587786244) translate(43.181423611111114 93.27777777777777)"/></g><path d="M-624.6 158.08l-95.27-535.65" stroke="#979ea8" stroke-width="3" fill="none"/><path d="M-622.85 159.56h-3l-.22-1.26 2.9-.52zM-718.4-377.8l-2.92.52-.3-1.77h2.98z" stroke="#979ea8" stroke-width=".05" fill="#979ea8"/><path d="M-574.4 158.27l325.28-536.04" stroke="#979ea8" stroke-width="3" fill="none"/><path d="M-573.1 159l-.35.56h-3.45l1.26-2.08zM-247.88-376.97l-2.52-1.53.33-.55h3.45z" stroke="#979ea8" stroke-width=".05" fill="#979ea8"/><path d="M-672.26 359a.5.5 0 0 1 .5-.5h130.5a.5.5 0 0 1 .5.5V382a.5.5 0 0 1-.5.5h-130.5a.5.5 0 0 1-.5-.5z" fill="#fff" fill-opacity="0"/><path d="M-671.76 359.48a.5.5 0 0 0-.5.5V381a.5.5 0 0 0 .5.5h130.5a.5.5 0 0 0 .5-.5V360a.5.5 0 0 0-.5-.5z" stroke="#5e5e5e" fill="#fff"/><use xlink:href="#r" transform="matrix(1,0,0,1,-622.4178968486057,358.51037069712606) translate(-15.788194444444436 16.444444444444443)"/><path d="M-641.27 160.06a.5.5 0 0 1 .5-.5h37a.5.5 0 0 1 .5.5v22.97a.5.5 0 0 1-.5.5h-37a.5.5 0 0 1-.5-.5z" fill="#fff" fill-opacity="0"/><path d="M-640.77 160.53a.5.5 0 0 0-.5.5v21.03a.5.5 0 0 0 .5.5h37a.5.5 0 0 0 .5-.5v-21.03a.5.5 0 0 0-.5-.5z" stroke="#5e5e5e" fill="#fff"/><use xlink:href="#s" transform="matrix(1,0,0,1,-626.8644800084237,159.55609465495866) translate(-7.829861111111111 16.444444444444443)"/><path d="M-601.27 160.06a.5.5 0 0 1 .5-.5h37a.5.5 0 0 1 .5.5v22.97a.5.5 0 0 1-.5.5h-37a.5.5 0 0 1-.5-.5z" fill="#fff" fill-opacity="0"/><path d="M-600.77 160.53a.5.5 0 0 0-.5.5v21.03a.5.5 0 0 0 .5.5h37a.5.5 0 0 0 .5-.5v-21.03a.5.5 0 0 0-.5-.5z" stroke="#5e5e5e" fill="#fff"/><use xlink:href="#t" transform="matrix(1,0,0,1,-586.8660540438275,159.55609465495866) translate(-7.829861111111111 16.444444444444443)"/><g filter="url(#d)"><path d="M-187.9 92.7a.5.5 0 0 1 .5-.5h168.65a.5.5 0 0 1 .5.5v93.4a.5.5 0 0 1-.5.5H-187.4a.5.5 0 0 1-.5-.5z" fill="#fff" fill-opacity="0"/><path d="M-187.4 92.2a.5.5 0 0 0-.5.5v93.4a.5.5 0 0 0 .5.5h168.65a.5.5 0 0 0 .5-.5V92.7a.5.5 0 0 0-.5-.5z" stroke="#315796" stroke-width="3" fill="#315796"/><use xlink:href="#u" transform="matrix(1,0,0,1,-178.0497664720545,103.24024438983379) translate(10.5197482638889 42.05555555555556)"/></g><g filter="url(#d)"><path d="M52.1 92.7a.5.5 0 0 1 .5-.5h168.65a.5.5 0 0 1 .5.5v93.4a.5.5 0 0 1-.5.5H52.6a.5.5 0 0 1-.5-.5z" fill="#fff" fill-opacity="0"/><path d="M52.6 92.2a.5.5 0 0 0-.5.5v93.4a.5.5 0 0 0 .5.5h168.65a.5.5 0 0 0 .5-.5V92.7a.5.5 0 0 0-.5-.5z" stroke="#315796" stroke-width="3" fill="#315796"/><use xlink:href="#v" transform="matrix(1,0,0,1,61.9502335279455,103.24024438983379) translate(11.024305555555571 42.05555555555556)"/></g><path d="M-35.9 115.4a.5.5 0 0 1 .5-.5h37a.5.5 0 0 1 .5.5v22.97a.5.5 0 0 1-.5.5h-37a.5.5 0 0 1-.5-.5z" fill="#fff" fill-opacity="0"/><path d="M-35.4 115.87a.5.5 0 0 0-.5.5v21.03a.5.5 0 0 0 .5.5h37a.5.5 0 0 0 .5-.5v-21.03a.5.5 0 0 0-.5-.5z" stroke="#5e5e5e" fill="#fff"/><use xlink:href="#w" transform="matrix(1,0,0,1,-21.4873972531402,114.90225953821323) translate(-12.335069444444443 16.444444444444443)"/><path d="M-35.9 140.43a.5.5 0 0 1 .5-.5h37a.5.5 0 0 1 .5.5v22.97a.5.5 0 0 1-.5.5h-37a.5.5 0 0 1-.5-.5z" fill="#fff" fill-opacity="0"/><path d="M-35.4 140.9a.5.5 0 0 0-.5.5v21.03a.5.5 0 0 0 .5.5h37a.5.5 0 0 0 .5-.5V141.4a.5.5 0 0 0-.5-.5z" stroke="#5e5e5e" fill="#fff"/><use xlink:href="#x" transform="matrix(1,0,0,1,-21.4873972531402,139.93350953821312) translate(-12.335069444444443 16.444444444444443)"/><path d="M32.1 115.4a.5.5 0 0 1 .5-.5h37a.5.5 0 0 1 .5.5v22.97a.5.5 0 0 1-.5.5h-37a.5.5 0 0 1-.5-.5z" fill="#fff" fill-opacity="0"/><path d="M32.6 115.87a.5.5 0 0 0-.5.5v21.03a.5.5 0 0 0 .5.5h37a.5.5 0 0 0 .5-.5v-21.03a.5.5 0 0 0-.5-.5z" stroke="#5e5e5e" fill="#fff"/><use xlink:href="#w" transform="matrix(1,0,0,1,46.5126027468598,114.90225953821323) translate(-12.335069444444443 16.444444444444443)"/><path d="M32.1 140.43a.5.5 0 0 1 .5-.5h37a.5.5 0 0 1 .5.5v22.97a.5.5 0 0 1-.5.5h-37a.5.5 0 0 1-.5-.5z" fill="#fff" fill-opacity="0"/><path d="M32.6 140.9a.5.5 0 0 0-.5.5v21.03a.5.5 0 0 0 .5.5h37a.5.5 0 0 0 .5-.5V141.4a.5.5 0 0 0-.5-.5z" stroke="#5e5e5e" fill="#fff"/><use xlink:href="#x" transform="matrix(1,0,0,1,46.5126027468598,139.93350953821312) translate(-12.335069444444443 16.444444444444443)"/><path d="M4.1 126.9h26" stroke="#979ea8" stroke-width="3" fill="none"/><path d="M4.15 128.36H2.6v-2.95h1.55zM31.6 128.36h-1.53v-2.95h1.54z" stroke="#979ea8" stroke-width=".05" fill="#979ea8"/><path d="M4.1 151.92h26" stroke="#979ea8" stroke-width="3" fill="none"/><path d="M4.15 153.4H2.6v-2.96h1.55zM31.6 153.4h-1.53v-2.96h1.54z" stroke="#979ea8" stroke-width=".05" fill="#979ea8"/><path d="M-137.52 78.98L-674.4-378.08" stroke="#979ea8" stroke-width="3" fill="none"/><path d="M-134.1 79.95h-4.3l1.8-2.12zM-675.33-376.93l-2.5-2.12h4.3z" stroke="#979ea8" stroke-width=".05" fill="#979ea8"/><path d="M148.13 78.7L-160.9-377.8" stroke="#979ea8" stroke-width="3" fill="none"/><path d="M150.76 79.95h-3.56l-.3-.44 2.44-1.65zM-159.66-378.6l-2.45 1.65-1.43-2.1h3.56z" stroke="#979ea8" stroke-width=".05" fill="#979ea8"/><path d="M16.76 161.83c-3.82 0-6.9-10.38-6.9-23.18 0-12.8 3.08-23.18 6.9-23.18 3.8 0 6.9 10.38 6.9 23.18 0 12.8-3.1 23.18-6.9 23.18z" stroke="#979ea8" stroke-width="2" fill-opacity="0"/><g filter="url(#d)"><path d="M-307.9 347a.5.5 0 0 1 .5-.5h168.65a.5.5 0 0 1 .5.5v93.4a.5.5 0 0 1-.5.5H-307.4a.5.5 0 0 1-.5-.5z" fill="#fff" fill-opacity="0"/><path d="M-307.4 346.5a.5.5 0 0 0-.5.5v93.4a.5.5 0 0 0 .5.5h168.65a.5.5 0 0 0 .5-.5V347a.5.5 0 0 0-.5-.5z" stroke="#315796" stroke-width="3" fill="#315796"/><use xlink:href="#y" transform="matrix(1,0,0,1,-298.0497664720545,357.5372532334122) translate(-1.3541666666666714 43.166666666666664)"/></g><g filter="url(#d)"><path d="M-67.9 347a.5.5 0 0 1 .5-.5h168.65a.5.5 0 0 1 .5.5v93.4a.5.5 0 0 1-.5.5H-67.4a.5.5 0 0 1-.5-.5z" fill="#fff" fill-opacity="0"/><path d="M-67.4 346.5a.5.5 0 0 0-.5.5v93.4a.5.5 0 0 0 .5.5h168.65a.5.5 0 0 0 .5-.5V347a.5.5 0 0 0-.5-.5z" stroke="#315796" stroke-width="3" fill="#315796"/><use xlink:href="#z" transform="matrix(1,0,0,1,-58.0497664720545,357.5372532334122) translate(-2.7018229166666714 43.166666666666664)"/></g><path d="M-232.43 333.06l101-130.66" stroke="#979ea8" stroke-width="3" fill="none"/><path d="M-231.24 333.94l-.25.3h-3.7l1.63-2.1zM-130.3 203.33l-2.33-1.8.24-.32h3.74z" stroke="#979ea8" stroke-width=".05" fill="#979ea8"/><path d="M-182.66 336.12l298.82-134.3" stroke="#979ea8" stroke-width="3" fill="none"/><path d="M-182.02 337.45l-2 .9v-2.67l-.05-.27-.1-.2.94-.44zM120.87 201.32l-4.14 1.87-.9-2h5z" stroke="#979ea8" stroke-width=".05" fill="#979ea8"/><path d="M-9.7 332.9l-64.95-130.35" stroke="#979ea8" stroke-width="3" fill="none"/><path d="M-7.4 334.25h-3.3l-.35-.72 2.65-1.3zM-73.3 201.93l-2.65 1.3-1.02-2.02h3.3z" stroke="#979ea8" stroke-width=".05" fill="#979ea8"/><path d="M47.18 333.1l107.67-130.73" stroke="#979ea8" stroke-width="3" fill="none"/><path d="M48.34 334l-.2.25H44.3l1.77-2.13zM155.97 203.34l-2.28-1.88.2-.25h3.82z" stroke="#979ea8" stroke-width=".05" fill="#979ea8"/><path d="M-141.6 80.45a.5.5 0 0 1 .5-.5h37a.5.5 0 0 1 .5.5v22.97a.5.5 0 0 1-.5.5h-37a.5.5 0 0 1-.5-.5z" fill="#fff" fill-opacity="0"/><path d="M-141.1 80.92a.5.5 0 0 0-.5.5v21.03a.5.5 0 0 0 .5.5h37a.5.5 0 0 0 .5-.5V81.42a.5.5 0 0 0-.5-.5z" stroke="#5e5e5e" fill="#fff"/><use xlink:href="#A" transform="matrix(1,0,0,1,-127.20911989033651,79.95321541711826) translate(-12.335069444444443 16.444444444444443)"/><path d="M-102.53 80.45a.5.5 0 0 1 .5-.5h37a.5.5 0 0 1 .5.5v22.97a.5.5 0 0 1-.5.5h-37a.5.5 0 0 1-.5-.5z" fill="#fff" fill-opacity="0"/><path d="M-102.03 80.92a.5.5 0 0 0-.5.5v21.03a.5.5 0 0 0 .5.5h37a.5.5 0 0 0 .5-.5V81.42a.5.5 0 0 0-.5-.5z" stroke="#5e5e5e" fill="#fff"/><use xlink:href="#B" transform="matrix(1,0,0,1,-88.12557951730308,79.95321541711826) translate(-12.335069444444443 16.444444444444443)"/><path d="M-261.6 334.75a.5.5 0 0 1 .5-.5h37a.5.5 0 0 1 .5.5v22.97a.5.5 0 0 1-.5.5h-37a.5.5 0 0 1-.5-.5z" fill="#fff" fill-opacity="0"/><path d="M-261.1 335.22a.5.5 0 0 0-.5.5v21.03a.5.5 0 0 0 .5.5h37a.5.5 0 0 0 .5-.5v-21.03a.5.5 0 0 0-.5-.5z" stroke="#5e5e5e" fill="#fff"/><use xlink:href="#A" transform="matrix(1,0,0,1,-247.2091198903365,334.2502242606977) translate(-12.335069444444443 16.444444444444443)"/><path d="M-222.53 334.75a.5.5 0 0 1 .5-.5h37a.5.5 0 0 1 .5.5v22.97a.5.5 0 0 1-.5.5h-37a.5.5 0 0 1-.5-.5z" fill="#fff" fill-opacity="0"/><path d="M-222.03 335.22a.5.5 0 0 0-.5.5v21.03a.5.5 0 0 0 .5.5h37a.5.5 0 0 0 .5-.5v-21.03a.5.5 0 0 0-.5-.5z" stroke="#5e5e5e" fill="#fff"/><use xlink:href="#B" transform="matrix(1,0,0,1,-208.12557951730307,334.2502242606977) translate(-12.335069444444443 16.444444444444443)"/><path d="M97.93 80.45a.5.5 0 0 1 .5-.5h37a.5.5 0 0 1 .5.5v22.97a.5.5 0 0 1-.5.5h-37a.5.5 0 0 1-.5-.5z" fill="#fff" fill-opacity="0"/><path d="M98.43 80.92a.5.5 0 0 0-.5.5v21.03a.5.5 0 0 0 .5.5h37a.5.5 0 0 0 .5-.5V81.42a.5.5 0 0 0-.5-.5z" stroke="#5e5e5e" fill="#fff"/><use xlink:href="#A" transform="matrix(1,0,0,1,112.33343731388165,79.95321541711826) translate(-12.335069444444443 16.444444444444443)"/><path d="M137.93 80.45a.5.5 0 0 1 .5-.5h37a.5.5 0 0 1 .5.5v22.97a.5.5 0 0 1-.5.5h-37a.5.5 0 0 1-.5-.5z" fill="#fff" fill-opacity="0"/><path d="M138.43 80.92a.5.5 0 0 0-.5.5v21.03a.5.5 0 0 0 .5.5h37a.5.5 0 0 0 .5-.5V81.42a.5.5 0 0 0-.5-.5z" stroke="#5e5e5e" fill="#fff"/><use xlink:href="#B" transform="matrix(1,0,0,1,152.33186327847787,79.95321541711826) translate(-12.335069444444443 16.444444444444443)"/><path d="M-288.83 427.04a.5.5 0 0 1 .5-.5h131.94a.5.5 0 0 1 .5.5V450a.5.5 0 0 1-.5.5h-131.93a.5.5 0 0 1-.5-.5z" fill="#fff" fill-opacity="0"/><path d="M-288.33 427.5a.5.5 0 0 0-.5.5v21.04a.5.5 0 0 0 .5.5h131.94a.5.5 0 0 0 .5-.5V428a.5.5 0 0 0-.5-.5z" stroke="#5e5e5e" fill="#fff"/><use xlink:href="#C" transform="matrix(1,0,0,1,-238.4429151395223,426.53783363619823) translate(0.2630208333333357 16.444444444444443)"/><path d="M-49.9 427.04a.5.5 0 0 1 .5-.5H82.2a.5.5 0 0 1 .5.5V450a.5.5 0 0 1-.5.5H-49.4a.5.5 0 0 1-.5-.5z" fill="#fff" fill-opacity="0"/><path d="M-49.4 427.5a.5.5 0 0 0-.5.5v21.04a.5.5 0 0 0 .5.5H82.2a.5.5 0 0 0 .5-.5V428a.5.5 0 0 0-.5-.5z" stroke="#5e5e5e" fill="#fff"/><use xlink:href="#C" transform="matrix(1,0,0,1,0.35648922784606185,426.53783363619823) translate(0.2630208333333357 16.444444444444443)"/><path d="M-94.97 483.27h240v60h-240z" fill="none"/><use xlink:href="#D" transform="matrix(1,0,0,1,-94.96674793351076,483.2709557512612) translate(91.18518518518519 21.999999999999996)"/><use xlink:href="#E" transform="matrix(1,0,0,1,-94.96674793351076,483.2709557512612) translate(69.44444444444444 50.44444444444444)"/><use xlink:href="#F" transform="matrix(1,0,0,1,-94.96674793351076,483.2709557512612) translate(112.65432098765433 50.44444444444444)"/><path d="M-1228.68 483.27h240v60h-240z" fill="none"/><use xlink:href="#G" transform="matrix(1,0,0,1,-1228.6776513244022,483.2709557512612) translate(91.18518518518519 21.999999999999996)"/><use xlink:href="#H" transform="matrix(1,0,0,1,-1228.6776513244022,483.2709557512612) translate(75.61728395061729 50.44444444444444)"/><use xlink:href="#F" transform="matrix(1,0,0,1,-1228.6776513244022,483.2709557512612) translate(106.4814814814815 50.44444444444444)"/><path d="M-722.37 483.27h240v60h-240z" fill="none"/><use xlink:href="#I" transform="matrix(1,0,0,1,-722.3688759921661,483.2709557512612) translate(91.18518518518519 21.999999999999996)"/><use xlink:href="#J" transform="matrix(1,0,0,1,-722.3688759921661,483.2709557512612) translate(69.44444444444444 50.44444444444444)"/><use xlink:href="#F" transform="matrix(1,0,0,1,-722.3688759921661,483.2709557512612) translate(112.65432098765433 50.44444444444444)"/><path d="M-1250.67 200.63a.5.5 0 0 1 .5-.5h37a.5.5 0 0 1 .5.5v22.97a.5.5 0 0 1-.5.5h-37a.5.5 0 0 1-.5-.5z" fill="#fff" fill-opacity="0"/><path d="M-1250.17 201.1a.5.5 0 0 0-.5.5v21.03a.5.5 0 0 0 .5.5h37a.5.5 0 0 0 .5-.5V201.6a.5.5 0 0 0-.5-.5z" stroke="#5e5e5e" fill="#fff"/><use xlink:href="#K" transform="matrix(1,0,0,1,-1236.26409841169,200.13426382344028) translate(-4.010416666666666 16.444444444444443)"/><path d="M-1006.43 200.63a.5.5 0 0 1 .5-.5h37a.5.5 0 0 1 .5.5v22.97a.5.5 0 0 1-.5.5h-37a.5.5 0 0 1-.5-.5z" fill="#fff" fill-opacity="0"/><path d="M-1005.93 201.1a.5.5 0 0 0-.5.5v21.03a.5.5 0 0 0 .5.5h37a.5.5 0 0 0 .5-.5V201.6a.5.5 0 0 0-.5-.5z" stroke="#5e5e5e" fill="#fff"/><use xlink:href="#K" transform="matrix(1,0,0,1,-992.0267666273596,200.13426382344028) translate(-4.010416666666666 16.444444444444443)"/><path d="M-94.23 300.5c0 6.6-28.26 11.98-63.12 11.98-34.87 0-63.13-5.37-63.13-11.98 0-6.62 28.26-12 63.13-12 34.86 0 63.12 5.38 63.12 12zM-729.4-3.75c0 6.67-78.08 12.1-174.42 12.1-96.33 0-174.43-5.42-174.43-12.1s78.1-12.1 174.43-12.1c96.34 0 174.43 5.42 174.43 12.1zM107.75-3.75c0 6.67-81.22 12.1-181.42 12.1-100.2 0-181.4-5.42-181.4-12.1s81.2-12.1 181.4-12.1 181.42 5.42 181.42 12.1zM-463.08-3.75c0 6.67-45.43 12.1-101.48 12.1-56.05 0-101.5-5.42-101.5-12.1s45.45-12.1 101.5-12.1 101.48 5.42 101.48 12.1z" stroke="#979ea8" stroke-width="2" fill-opacity="0"/><g filter="url(#d)"><path d="M172.1 347a.5.5 0 0 1 .5-.5h168.65a.5.5 0 0 1 .5.5v93.4a.5.5 0 0 1-.5.5H172.6a.5.5 0 0 1-.5-.5z" fill="#fff" fill-opacity="0"/><path d="M172.6 346.5a.5.5 0 0 0-.5.5v93.4a.5.5 0 0 0 .5.5h168.65a.5.5 0 0 0 .5-.5V347a.5.5 0 0 0-.5-.5z" stroke="#315796" stroke-width="3" fill="#315796"/><use xlink:href="#L" transform="matrix(1,0,0,1,181.9502335279455,357.5372532334122) translate(-0.80078125 43.166666666666664)"/></g><path d="M216.2 334.6L-41.7 201.9" stroke="#979ea8" stroke-width="3" fill="none"/><path d="M218.74 334.25h-.3l-.16.02-.14.08-.1.1-.08.15-.03.15v.1l-.1.06-.2.23-.16.28-.04.28v1.2l-1.94-.98 1.34-2.63zM-42.34 203.22l-3.92-2h4.95z" stroke="#979ea8" stroke-width=".05" fill="#979ea8"/><path d="M270.24 332.94l-71.5-130.4" stroke="#979ea8" stroke-width="3" fill="none"/><path d="M272.64 334.25h-3.36l-.35-.64 2.58-1.4zM200.06 201.85l-2.58 1.42-1.13-2.06h3.36z" stroke="#979ea8" stroke-width=".05" fill="#979ea8"/><path d="M-22.07 334.75a.5.5 0 0 1 .5-.5h37a.5.5 0 0 1 .5.5v22.97a.5.5 0 0 1-.5.5h-37a.5.5 0 0 1-.5-.5z" fill="#fff" fill-opacity="0"/><path d="M-21.57 335.22a.5.5 0 0 0-.5.5v21.03a.5.5 0 0 0 .5.5h37a.5.5 0 0 0 .5-.5v-21.03a.5.5 0 0 0-.5-.5z" stroke="#5e5e5e" fill="#fff"/><use xlink:href="#A" transform="matrix(1,0,0,1,-7.666562686118807,334.2502242606977) translate(-12.335069444444443 16.444444444444443)"/><path d="M17.93 334.75a.5.5 0 0 1 .5-.5h37a.5.5 0 0 1 .5.5v22.97a.5.5 0 0 1-.5.5h-37a.5.5 0 0 1-.5-.5z" fill="#fff" fill-opacity="0"/><path d="M18.43 335.22a.5.5 0 0 0-.5.5v21.03a.5.5 0 0 0 .5.5h37a.5.5 0 0 0 .5-.5v-21.03a.5.5 0 0 0-.5-.5z" stroke="#5e5e5e" fill="#fff"/><use xlink:href="#B" transform="matrix(1,0,0,1,32.3318632784774,334.2502242606977) translate(-12.335069444444443 16.444444444444443)"/><path d="M217.93 334.75a.5.5 0 0 1 .5-.5h37a.5.5 0 0 1 .5.5v22.97a.5.5 0 0 1-.5.5h-37a.5.5 0 0 1-.5-.5z" fill="#fff" fill-opacity="0"/><path d="M218.43 335.22a.5.5 0 0 0-.5.5v21.03a.5.5 0 0 0 .5.5h37a.5.5 0 0 0 .5-.5v-21.03a.5.5 0 0 0-.5-.5z" stroke="#5e5e5e" fill="#fff"/><use xlink:href="#A" transform="matrix(1,0,0,1,232.33343731388075,334.2502242606977) translate(-12.335069444444443 16.444444444444443)"/><path d="M257.93 334.75a.5.5 0 0 1 .5-.5h37a.5.5 0 0 1 .5.5v22.97a.5.5 0 0 1-.5.5h-37a.5.5 0 0 1-.5-.5z" fill="#fff" fill-opacity="0"/><path d="M258.43 335.22a.5.5 0 0 0-.5.5v21.03a.5.5 0 0 0 .5.5h37a.5.5 0 0 0 .5-.5v-21.03a.5.5 0 0 0-.5-.5z" stroke="#5e5e5e" fill="#fff"/><use xlink:href="#B" transform="matrix(1,0,0,1,272.33186327847693,334.2502242606977) translate(-12.335069444444443 16.444444444444443)"/><path d="M190.1 427.04a.5.5 0 0 1 .5-.5h131.6a.5.5 0 0 1 .5.5V450a.5.5 0 0 1-.5.5H190.6a.5.5 0 0 1-.5-.5z" fill="#fff" fill-opacity="0"/><path d="M190.6 427.5a.5.5 0 0 0-.5.5v21.04a.5.5 0 0 0 .5.5h131.6a.5.5 0 0 0 .5-.5V428a.5.5 0 0 0-.5-.5z" stroke="#5e5e5e" fill="#fff"/><use xlink:href="#C" transform="matrix(1,0,0,1,240.35648922784605,426.53783363619823) translate(0.2630208333333357 16.444444444444443)"/><path d="M-183.88 177.74a.5.5 0 0 1 .5-.5h40.26a.5.5 0 0 1 .5.5v22.97a.5.5 0 0 1-.5.5h-40.25a.5.5 0 0 1-.5-.5z" fill="#fff" fill-opacity="0"/><path d="M-183.38 178.2a.5.5 0 0 0-.5.5v21.04a.5.5 0 0 0 .5.5h40.26a.5.5 0 0 0 .5-.5V178.7a.5.5 0 0 0-.5-.5z" stroke="#5e5e5e" fill="#fff"/><use xlink:href="#C" transform="matrix(1,0,0,1,-168.2410035591776,177.24082479261926) translate(-11.236979166666664 16.444444444444443)"/><path d="M-140.26 177.74a.5.5 0 0 1 .5-.5h37a.5.5 0 0 1 .5.5v22.97a.5.5 0 0 1-.5.5h-37a.5.5 0 0 1-.5-.5z" fill="#fff" fill-opacity="0"/><path d="M-139.76 178.2a.5.5 0 0 0-.5.5v21.04a.5.5 0 0 0 .5.5h37a.5.5 0 0 0 .5-.5V178.7a.5.5 0 0 0-.5-.5z" stroke="#5e5e5e" fill="#fff"/><use xlink:href="#M" transform="matrix(1,0,0,1,-125.86263657850371,177.24082479261926) translate(-12.335069444444443 16.444444444444443)"/><path d="M-100.3 177.74a.5.5 0 0 1 .5-.5h37a.5.5 0 0 1 .5.5v22.97a.5.5 0 0 1-.5.5h-37a.5.5 0 0 1-.5-.5z" fill="#fff" fill-opacity="0"/><path d="M-99.8 178.2a.5.5 0 0 0-.5.5v21.04a.5.5 0 0 0 .5.5h37a.5.5 0 0 0 .5-.5V178.7a.5.5 0 0 0-.5-.5z" stroke="#5e5e5e" fill="#fff"/><use xlink:href="#N" transform="matrix(1,0,0,1,-85.88858332030371,177.24082479261926) translate(-12.335069444444443 16.444444444444443)"/><path d="M-60.26 177.74a.5.5 0 0 1 .5-.5h37a.5.5 0 0 1 .5.5v22.97a.5.5 0 0 1-.5.5h-37a.5.5 0 0 1-.5-.5z" fill="#fff" fill-opacity="0"/><path d="M-59.76 178.2a.5.5 0 0 0-.5.5v21.04a.5.5 0 0 0 .5.5h37a.5.5 0 0 0 .5-.5V178.7a.5.5 0 0 0-.5-.5z" stroke="#5e5e5e" fill="#fff"/><use xlink:href="#O" transform="matrix(1,0,0,1,-45.86106254309992,177.24082479261926) translate(-12.335069444444443 16.444444444444443)"/><path d="M56.13 177.74a.5.5 0 0 1 .5-.5h40.25a.5.5 0 0 1 .5.5v22.97a.5.5 0 0 1-.5.5H56.63a.5.5 0 0 1-.5-.5z" fill="#fff" fill-opacity="0"/><path d="M56.63 178.2a.5.5 0 0 0-.5.5v21.04a.5.5 0 0 0 .5.5h40.25a.5.5 0 0 0 .5-.5V178.7a.5.5 0 0 0-.5-.5z" stroke="#5e5e5e" fill="#fff"/><use xlink:href="#C" transform="matrix(1,0,0,1,71.75899644082146,177.24082479261926) translate(-11.236979166666664 16.444444444444443)"/><path d="M99.74 177.74a.5.5 0 0 1 .5-.5h37a.5.5 0 0 1 .5.5v22.97a.5.5 0 0 1-.5.5h-37a.5.5 0 0 1-.5-.5z" fill="#fff" fill-opacity="0"/><path d="M100.24 178.2a.5.5 0 0 0-.5.5v21.04a.5.5 0 0 0 .5.5h37a.5.5 0 0 0 .5-.5V178.7a.5.5 0 0 0-.5-.5z" stroke="#5e5e5e" fill="#fff"/><use xlink:href="#M" transform="matrix(1,0,0,1,114.13736342149538,177.24082479261926) translate(-12.335069444444443 16.444444444444443)"/><path d="M139.7 177.74a.5.5 0 0 1 .5-.5h37a.5.5 0 0 1 .5.5v22.97a.5.5 0 0 1-.5.5h-37a.5.5 0 0 1-.5-.5z" fill="#fff" fill-opacity="0"/><path d="M140.2 178.2a.5.5 0 0 0-.5.5v21.04a.5.5 0 0 0 .5.5h37a.5.5 0 0 0 .5-.5V178.7a.5.5 0 0 0-.5-.5z" stroke="#5e5e5e" fill="#fff"/><use xlink:href="#N" transform="matrix(1,0,0,1,154.11141667969585,177.24082479261926) translate(-12.335069444444443 16.444444444444443)"/><path d="M179.74 177.74a.5.5 0 0 1 .5-.5h37a.5.5 0 0 1 .5.5v22.97a.5.5 0 0 1-.5.5h-37a.5.5 0 0 1-.5-.5z" fill="#fff" fill-opacity="0"/><path d="M180.24 178.2a.5.5 0 0 0-.5.5v21.04a.5.5 0 0 0 .5.5h37a.5.5 0 0 0 .5-.5V178.7a.5.5 0 0 0-.5-.5z" stroke="#5e5e5e" fill="#fff"/><use xlink:href="#O" transform="matrix(1,0,0,1,194.13893745689919,177.24082479261926) translate(-12.335069444444443 16.444444444444443)"/><path d="M85.77 300.5c0 6.6-28.26 11.98-63.12 11.98-34.87 0-63.13-5.37-63.13-11.98 0-6.62 28.26-12 63.13-12 34.86 0 63.12 5.38 63.12 12zM265.77 300.5c0 6.6-28.26 11.98-63.12 11.98-34.87 0-63.13-5.37-63.13-11.98 0-6.62 28.26-12 63.13-12 34.86 0 63.12 5.38 63.12 12z" stroke="#979ea8" stroke-width="2" fill-opacity="0"/><path d="M-86.96 78.5l-116.36-456.1" stroke="#979ea8" stroke-width="3" fill="none"/><path d="M-85.06 79.95h-3.05l-.3-1.12 2.86-.73zM-201.9-377.92l-2.84.73-.48-1.85h3.05z" stroke="#979ea8" stroke-width=".05" fill="#979ea8"/><path d="M111.66 79.17l-743.8-457.43" stroke="#979ea8" stroke-width="3" fill="none"/><path d="M115.75 79.95h-4.62l1.27-2.06zM-632.9-377l-3.34-2.05h4.62z" stroke="#979ea8" stroke-width=".05" fill="#979ea8"/><path d="M-779.8-402.52a.5.5 0 0 1 .5-.5h37a.5.5 0 0 1 .5.5v22.97a.5.5 0 0 1-.5.5h-37a.5.5 0 0 1-.5-.5z" fill="#fff" fill-opacity="0"/><path d="M-779.3-402.05a.5.5 0 0 0-.5.5v21.03a.5.5 0 0 0 .5.5h37a.5.5 0 0 0 .5-.5v-21.03a.5.5 0 0 0-.5-.5z" stroke="#5e5e5e" fill="#fff"/><use xlink:href="#P" transform="matrix(1,0,0,1,-765.4085081363808,-403.0183419613615) translate(0.49479166666666696 16.444444444444443)"/><path d="M-738.8-402.52a.5.5 0 0 1 .5-.5h37a.5.5 0 0 1 .5.5v22.97a.5.5 0 0 1-.5.5h-37a.5.5 0 0 1-.5-.5z" fill="#fff" fill-opacity="0"/><path d="M-738.3-402.05a.5.5 0 0 0-.5.5v21.03a.5.5 0 0 0 .5.5h37a.5.5 0 0 0 .5-.5v-21.03a.5.5 0 0 0-.5-.5z" stroke="#5e5e5e" fill="#fff"/><use xlink:href="#Q" transform="matrix(1,0,0,1,-724.4085081363808,-403.0183419613615) translate(-12.335069444444443 16.444444444444443)"/><path d="M-696.42-402.52a.5.5 0 0 1 .5-.5h37a.5.5 0 0 1 .5.5v22.97a.5.5 0 0 1-.5.5h-37a.5.5 0 0 1-.5-.5z" fill="#fff" fill-opacity="0"/><path d="M-695.92-402.05a.5.5 0 0 0-.5.5v21.03a.5.5 0 0 0 .5.5h37a.5.5 0 0 0 .5-.5v-21.03a.5.5 0 0 0-.5-.5z" stroke="#5e5e5e" fill="#fff"/><use xlink:href="#R" transform="matrix(1,0,0,1,-682.0179413766398,-403.0183419613615) translate(-12.335069444444443 16.444444444444443)"/><path d="M-653.28-402.52a.5.5 0 0 1 .5-.5h37a.5.5 0 0 1 .5.5v22.97a.5.5 0 0 1-.5.5h-37a.5.5 0 0 1-.5-.5z" fill="#fff" fill-opacity="0"/><path d="M-652.78-402.05a.5.5 0 0 0-.5.5v21.03a.5.5 0 0 0 .5.5h37a.5.5 0 0 0 .5-.5v-21.03a.5.5 0 0 0-.5-.5z" stroke="#5e5e5e" fill="#fff"/><use xlink:href="#S" transform="matrix(1,0,0,1,-638.8790856553967,-403.0183419613615) translate(-12.335069444444443 16.444444444444443)"/><path d="M-309.14-402.52a.5.5 0 0 1 .5-.5h37a.5.5 0 0 1 .5.5v22.97a.5.5 0 0 1-.5.5h-37a.5.5 0 0 1-.5-.5z" fill="#fff" fill-opacity="0"/><path d="M-308.64-402.05a.5.5 0 0 0-.5.5v21.03a.5.5 0 0 0 .5.5h37a.5.5 0 0 0 .5-.5v-21.03a.5.5 0 0 0-.5-.5z" stroke="#5e5e5e" fill="#fff"/><use xlink:href="#P" transform="matrix(1,0,0,1,-294.7418414697138,-403.0183419613615) translate(0.49479166666666696 16.444444444444443)"/><path d="M-268.14-402.52a.5.5 0 0 1 .5-.5h37a.5.5 0 0 1 .5.5v22.97a.5.5 0 0 1-.5.5h-37a.5.5 0 0 1-.5-.5z" fill="#fff" fill-opacity="0"/><path d="M-267.64-402.05a.5.5 0 0 0-.5.5v21.03a.5.5 0 0 0 .5.5h37a.5.5 0 0 0 .5-.5v-21.03a.5.5 0 0 0-.5-.5z" stroke="#5e5e5e" fill="#fff"/><use xlink:href="#Q" transform="matrix(1,0,0,1,-253.74184146971376,-403.0183419613615) translate(-12.335069444444443 16.444444444444443)"/><path d="M-225.75-402.52a.5.5 0 0 1 .5-.5h37a.5.5 0 0 1 .5.5v22.97a.5.5 0 0 1-.5.5h-37a.5.5 0 0 1-.5-.5z" fill="#fff" fill-opacity="0"/><path d="M-225.25-402.05a.5.5 0 0 0-.5.5v21.03a.5.5 0 0 0 .5.5h37a.5.5 0 0 0 .5-.5v-21.03a.5.5 0 0 0-.5-.5z" stroke="#5e5e5e" fill="#fff"/><use xlink:href="#R" transform="matrix(1,0,0,1,-211.35127470997233,-403.0183419613615) translate(-12.335069444444443 16.444444444444443)"/><path d="M-182.6-402.52a.5.5 0 0 1 .5-.5h36.98a.5.5 0 0 1 .5.5v22.97a.5.5 0 0 1-.5.5h-37a.5.5 0 0 1-.5-.5z" fill="#fff" fill-opacity="0"/><path d="M-182.1-402.05a.5.5 0 0 0-.5.5v21.03a.5.5 0 0 0 .5.5h36.98a.5.5 0 0 0 .5-.5v-21.03a.5.5 0 0 0-.5-.5z" stroke="#5e5e5e" fill="#fff"/><use xlink:href="#S" transform="matrix(1,0,0,1,-168.21241898872924,-403.0183419613615) translate(-12.335069444444443 16.444444444444443)"/><path d="M17.93-459.28h104.82v60H17.93z" fill="none"/><use xlink:href="#T" transform="matrix(1,0,0,1,17.93045983789534,-459.2794596552131) translate(0 35.33333333333333)"/><path d="M-716.54-499.27a.5.5 0 0 1 .5-.5h37a.5.5 0 0 1 .5.5v22.97a.5.5 0 0 1-.5.5h-37a.5.5 0 0 1-.5-.5z" fill="#fff" fill-opacity="0"/><path d="M-716.04-498.8a.5.5 0 0 0-.5.5v21.03a.5.5 0 0 0 .5.5h37a.5.5 0 0 0 .5-.5v-21.03a.5.5 0 0 0-.5-.5z" stroke="#5e5e5e" fill="#fff"/><use xlink:href="#U" transform="matrix(1,0,0,1,-702.1437968958887,-499.772692467177) translate(-12.335069444444443 16.444444444444443)"/><path d="M-245.88-499.27a.5.5 0 0 1 .5-.5h37a.5.5 0 0 1 .5.5v22.97a.5.5 0 0 1-.5.5h-37a.5.5 0 0 1-.5-.5z" fill="#fff" fill-opacity="0"/><path d="M-245.38-498.8a.5.5 0 0 0-.5.5v21.03a.5.5 0 0 0 .5.5h37a.5.5 0 0 0 .5-.5v-21.03a.5.5 0 0 0-.5-.5z" stroke="#5e5e5e" fill="#fff"/><use xlink:href="#U" transform="matrix(1,0,0,1,-231.47713022922173,-499.772692467177) translate(-12.335069444444443 16.444444444444443)"/><path d="M-540.3-612.4l-140.92 111.7" stroke="#5e5e5e" stroke-width="3" fill="none"/><path d="M-539.13-613.33l.13.23.7 1-1.12.9-1.83-2.33 1.2-.95zM-680.43-499.77h-4.34l2.67-2.1z" stroke="#5e5e5e" stroke-width=".05" fill="#5e5e5e"/><path d="M-387.5-603.1l142.83 102.45" stroke="#5e5e5e" stroke-width="3" fill="none"/><path d="M-386.6-604.27l-1.72 2.4-1.87-1.35.54-.23 2.37-1.32zM-240.92-499.77h-4.42l1.5-2.1z" stroke="#5e5e5e" stroke-width=".05" fill="#5e5e5e"/><path d="M-543.4-635.3c-16.73 0-30.3-13.57-30.3-30.3 0-13.37 8.2-24.66 20.94-28.8-.74-39.34 49.74-46.9 69.93-31.77 10.1-22.7 60.57-15.14 60.57 7.58 30.3-7.57 60.58 22.72 40.4 60.58 20.18 30.28 0 68.14-40.4 53-10.1 19.68-50.47 19.68-60.57 0-20.2 15.14-60.57 7.57-60.57-30.3z" stroke="#5e5e5e" stroke-width="3" fill="#fff"/><g><use xlink:href="#V" transform="matrix(1,0,0,1,-568.68654070212,-736.3086139700632) translate(40.938271604938265 75.46527777777777)"/></g><defs><path fill="#979ea8" d="M24 0v-248h195v40H76v63h132v40H76v65h150V0H24" id="W"/><path fill="#979ea8" d="M144 0l-44-69L55 0H2l70-98-66-92h53l41 62 40-62h54l-67 91 71 99h-54" id="X"/><path fill="#979ea8" d="M133-34C117-15 103 5 69 4 32 3 11-16 11-54c-1-60 55-63 116-61 1-26-3-47-28-47-18 1-26 9-28 27l-52-2c7-38 36-58 82-57s74 22 75 68l1 82c-1 14 12 18 25 15v27c-30 8-71 5-69-32zm-48 3c29 0 43-24 42-57-32 0-66-3-65 30 0 17 8 27 23 27" id="Y"/><path fill="#979ea8" d="M220-157c-53 9-28 100-34 157h-49v-107c1-27-5-49-29-50C55-147 81-57 75 0H25l-1-190h47c2 12-1 28 3 38 10-53 101-56 108 0 13-22 24-43 59-42 82 1 51 116 57 194h-49v-107c-1-25-5-48-29-50" id="Z"/><path fill="#979ea8" d="M135-194c53 0 70 44 70 98 0 56-19 98-73 100-31 1-45-17-59-34 3 33 2 69 2 105H25l-1-265h48c2 10 0 23 3 31 11-24 29-35 60-35zM114-30c33 0 39-31 40-66 0-38-9-64-40-64-56 0-55 130 0 130" id="aa"/><path fill="#979ea8" d="M25 0v-261h50V0H25" id="ab"/><path fill="#979ea8" d="M185-48c-13 30-37 53-82 52C43 2 14-33 14-96s30-98 90-98c62 0 83 45 84 108H66c0 31 8 55 39 56 18 0 30-7 34-22zm-45-69c5-46-57-63-70-21-2 6-4 13-4 21h74" id="ac"/><g id="a"><use transform="matrix(0.12962962962962957,0,0,0.12962962962962957,0,0)" xlink:href="#W"/><use transform="matrix(0.12962962962962957,0,0,0.12962962962962957,31.111111111111097,0)" xlink:href="#X"/><use transform="matrix(0.12962962962962957,0,0,0.12962962962962957,57.03703703703701,0)" xlink:href="#Y"/><use transform="matrix(0.12962962962962957,0,0,0.12962962962962957,82.96296296296292,0)" xlink:href="#Z"/><use transform="matrix(0.12962962962962957,0,0,0.12962962962962957,124.44444444444437,0)" xlink:href="#aa"/><use transform="matrix(0.12962962962962957,0,0,0.12962962962962957,152.83333333333326,0)" xlink:href="#ab"/><use transform="matrix(0.12962962962962957,0,0,0.12962962962962957,165.79629629629622,0)" xlink:href="#ac"/></g><path fill="#979ea8" d="M67-125c0 53 21 87 73 88 37 1 54-22 65-47l45 17C233-25 199 4 140 4 58 4 20-42 15-125 8-235 124-281 211-232c18 10 29 29 36 50l-46 12c-8-25-30-41-62-41-52 0-71 34-72 86" id="ad"/><path fill="#979ea8" d="M85 4C-2 5 27-109 22-190h50c7 57-23 150 33 157 60-5 35-97 40-157h50l1 190h-47c-2-12 1-28-3-38-12 25-28 42-61 42" id="ae"/><path fill="#979ea8" d="M137-138c1-29-70-34-71-4 15 46 118 7 119 86 1 83-164 76-172 9l43-7c4 19 20 25 44 25 33 8 57-30 24-41C81-84 22-81 20-136c-2-80 154-74 161-7" id="af"/><g id="b"><use transform="matrix(0.12962962962962957,0,0,0.12962962962962957,0,0)" xlink:href="#ad"/><use transform="matrix(0.12962962962962957,0,0,0.12962962962962957,33.574074074074055,0)" xlink:href="#Y"/><use transform="matrix(0.12962962962962957,0,0,0.12962962962962957,59.49999999999997,0)" xlink:href="#Z"/><use transform="matrix(0.12962962962962957,0,0,0.12962962962962957,100.98148148148144,0)" xlink:href="#aa"/><use transform="matrix(0.12962962962962957,0,0,0.12962962962962957,129.37037037037032,0)" xlink:href="#ae"/><use transform="matrix(0.12962962962962957,0,0,0.12962962962962957,157.7592592592592,0)" xlink:href="#af"/></g><path fill="#979ea8" d="M76-208v77h127v40H76V0H24v-248h183v40H76" id="ag"/><path fill="#979ea8" d="M135-194c52 0 70 43 70 98 0 56-19 99-73 100-30 1-46-15-58-35L72 0H24l1-261h50v104c11-23 29-37 60-37zM114-30c31 0 40-27 40-66 0-37-7-63-39-63s-41 28-41 65c0 36 8 64 40 64" id="ah"/><path fill="#979ea8" d="M135-150c-39-12-60 13-60 57V0H25l-1-190h47c2 13-1 29 3 40 6-28 27-53 61-41v41" id="ai"/><path fill="#979ea8" d="M25-224v-37h50v37H25zM25 0v-190h50V0H25" id="aj"/><path fill="#979ea8" d="M190-63c-7 42-38 67-86 67-59 0-84-38-90-98-12-110 154-137 174-36l-49 2c-2-19-15-32-35-32-30 0-35 28-38 64-6 74 65 87 74 30" id="ak"/><g id="c"><use transform="matrix(0.12962962962962957,0,0,0.12962962962962957,0,0)" xlink:href="#ag"/><use transform="matrix(0.12962962962962957,0,0,0.12962962962962957,28.388888888888875,0)" xlink:href="#Y"/><use transform="matrix(0.12962962962962957,0,0,0.12962962962962957,54.31481481481479,0)" xlink:href="#ah"/><use transform="matrix(0.12962962962962957,0,0,0.12962962962962957,82.70370370370367,0)" xlink:href="#ai"/><use transform="matrix(0.12962962962962957,0,0,0.12962962962962957,100.8518518518518,0)" xlink:href="#aj"/><use transform="matrix(0.12962962962962957,0,0,0.12962962962962957,113.81481481481475,0)" xlink:href="#ak"/></g><path fill="#fff" d="M469-200c119 0 194-62 190-182-5-155-165-165-285-207C212-646 83-736 88-958c4-182 105-295 242-352 113-48 278-41 392 4 65 25 120 59 166 104l-67 124c-13 37-61 47-98 23-55-35-117-75-210-75-111 0-181 57-181 159 0 146 173 155 287 201 153 61 292 138 287 351-7 273-167 433-444 433-190 0-326-77-424-175l78-125c18-34 71-42 108-14 63 47 132 100 245 100" id="al"/><path fill="#fff" d="M405 0H141v-1328h264V0" id="am"/><path fill="#fff" d="M996-1328v214H638V0H376v-1114H18v-214h978" id="an"/><path fill="#fff" d="M928-1328v209H382v351h425v201H382v358h547L928 0H118v-1328h810" id="ao"/><path fill="#fff" d="M236-180h257c2-279-3-565 3-840L323-871c-27 30-91 18-110-9l-76-104 399-346h198v1150h227V0H236v-180" id="ap"/><path fill="#fff" d="M1020 122v164H0V122h1020" id="aq"/><path fill="#fff" d="M371-216h461V0H108v-1328h263v1112" id="ar"/><path fill="#fff" d="M1240 0h-202c-47 1-76-24-87-58l-84-261H378L295-59c-11 29-44 59-86 59H4l484-1328h268zM437-503h370c-61-196-127-384-186-583-56 202-123 386-184 583" id="as"/><path fill="#fff" d="M890-1328v209H373v376h433v209H373V0H109v-1328h781" id="at"/><g id="e"><use transform="matrix(0.010850694444444444,0,0,0.010850694444444444,0,0)" xlink:href="#al"/><use transform="matrix(0.010850694444444444,0,0,0.010850694444444444,10.503472222222221,0)" xlink:href="#am"/><use transform="matrix(0.010850694444444444,0,0,0.010850694444444444,16.427951388888886,0)" xlink:href="#an"/><use transform="matrix(0.010850694444444444,0,0,0.010850694444444444,27.43055555555555,0)" xlink:href="#ao"/><use transform="matrix(0.010850694444444444,0,0,0.010850694444444444,38.27039930555555,0)" xlink:href="#ap"/><use transform="matrix(0.010850694444444444,0,0,0.010850694444444444,49.533420138888886,0)" xlink:href="#aq"/><use transform="matrix(0.010850694444444444,0,0,0.010850694444444444,60.60112847222221,0)" xlink:href="#ar"/><use transform="matrix(0.010850694444444444,0,0,0.010850694444444444,69.9978298611111,0)" xlink:href="#ao"/><use transform="matrix(0.010850694444444444,0,0,0.010850694444444444,80.56640624999999,0)" xlink:href="#as"/><use transform="matrix(0.010850694444444444,0,0,0.010850694444444444,94.03211805555556,0)" xlink:href="#at"/><use transform="matrix(0.010850694444444444,0,0,0.010850694444444444,104.23177083333331,0)" xlink:href="#ap"/><use transform="matrix(0.010850694444444444,0,0,0.010850694444444444,115.49479166666664,0)" xlink:href="#as"/></g><filter id="d" filterUnits="objectBoundingBox" x="-.06" y="-.04" width="1.12" height="1.21"><feOffset result="offOut" in="SourceAlpha" dy="6"/><feGaussianBlur result="blurOut" in="offOut" stdDeviation="5"/><feColorMatrix result="colorOut" in="blurOut" values="0 0 0 0 0 0 0 0 0 0 0 0 0 0 0 0 0 0 0.5019607843137255 0"/><feBlend in="SourceGraphic" in2="colorOut"/></filter><path fill="#fff" d="M1048-974c0 163-99 241-224 288 171 41 257 139 257 293C1081-125 889 0 612 0H119v-1328h451c279 2 478 84 478 354zM823-399c0-131-83-178-217-178H382v373h225c139 0 216-61 216-195zm-37-542c0-143-71-185-216-185H382v368h173c140-1 231-45 231-183" id="au"/><g id="f"><use transform="matrix(0.010850694444444444,0,0,0.010850694444444444,0,0)" xlink:href="#al"/><use transform="matrix(0.010850694444444444,0,0,0.010850694444444444,10.503472222222221,0)" xlink:href="#am"/><use transform="matrix(0.010850694444444444,0,0,0.010850694444444444,16.427951388888886,0)" xlink:href="#an"/><use transform="matrix(0.010850694444444444,0,0,0.010850694444444444,27.43055555555555,0)" xlink:href="#ao"/><use transform="matrix(0.010850694444444444,0,0,0.010850694444444444,38.27039930555555,0)" xlink:href="#ap"/><use transform="matrix(0.010850694444444444,0,0,0.010850694444444444,49.533420138888886,0)" xlink:href="#aq"/><use transform="matrix(0.010850694444444444,0,0,0.010850694444444444,60.60112847222221,0)" xlink:href="#ar"/><use transform="matrix(0.010850694444444444,0,0,0.010850694444444444,69.9978298611111,0)" xlink:href="#ao"/><use transform="matrix(0.010850694444444444,0,0,0.010850694444444444,80.56640624999999,0)" xlink:href="#as"/><use transform="matrix(0.010850694444444444,0,0,0.010850694444444444,94.03211805555556,0)" xlink:href="#at"/><use transform="matrix(0.010850694444444444,0,0,0.010850694444444444,104.23177083333331,0)" xlink:href="#ap"/><use transform="matrix(0.010850694444444444,0,0,0.010850694444444444,115.49479166666664,0)" xlink:href="#au"/></g><path fill="#4c535d" d="M463-670c-69 0-128 14-183 34l-149-41 108-651h650v101c-3 78-52 116-142 116H407l-44 261c53-11 103-16 152-16 263 0 419 147 419 406 0 232-122 371-292 440-125 51-309 39-418-14-62-30-119-68-165-112l74-102c44-65 117-14 161 14 42 27 94 49 166 47 158-4 231-103 233-261 2-143-84-223-230-222" id="av"/><path fill="#4c535d" d="M113-955c38-239 181-388 448-388 186 0 310 81 369 209 18 42 27 87 27 134 1 168-77 256-203 297 151 51 227 154 227 307C981-126 800 8 532 14 260 20 143-131 76-338c63-25 186-102 236-14 46 82 93 164 218 164 130 0 203-76 210-200 9-175-112-206-288-206v-171c158-2 269-37 269-193 0-117-60-182-173-183-99-1-165 67-190 142-19 57-44 79-118 66" id="aw"/><g id="g"><use transform="matrix(0.008680555555555554,0,0,0.008680555555555554,0,0)" xlink:href="#av"/><use transform="matrix(0.008680555555555554,0,0,0.008680555555555554,9.010416666666666,0)" xlink:href="#aw"/></g><path fill="#4c535d" d="M1007-505c-9 70 29 185-49 186H854V0H644v-319H105c-83-4-69-108-90-173l609-837h230v824h153zm-363 0c3-182-8-376 8-546L269-505h375" id="ax"/><g id="h"><use transform="matrix(0.008680555555555554,0,0,0.008680555555555554,0,0)" xlink:href="#av"/><use transform="matrix(0.008680555555555554,0,0,0.008680555555555554,9.010416666666666,0)" xlink:href="#ax"/></g><path fill="#fff" d="M1037-902c0 300-189 436-495 441H378V0H115v-1328h427c303 4 495 131 495 426zm-263 0c0-143-81-224-232-224H378v461h164c156 2 232-87 232-237" id="ay"/><path fill="#fff" d="M122-1328c70 6 164-16 206 20 6 5 13 12 20 21l654 862c-4-44-6-86-6-125v-778h231V0c-62-4-141 10-187-10-14-6-27-18-40-35L348-902c4 41 6 80 6 115V0H122v-1328" id="az"/><g id="j"><use transform="matrix(0.013020833333333334,0,0,0.013020833333333334,0,0)" xlink:href="#al"/><use transform="matrix(0.013020833333333334,0,0,0.013020833333333334,12.604166666666668,0)" xlink:href="#am"/><use transform="matrix(0.013020833333333334,0,0,0.013020833333333334,19.713541666666668,0)" xlink:href="#an"/><use transform="matrix(0.013020833333333334,0,0,0.013020833333333334,32.91666666666667,0)" xlink:href="#ao"/><use transform="matrix(0.013020833333333334,0,0,0.013020833333333334,45.92447916666667,0)" xlink:href="#ap"/><use transform="matrix(0.013020833333333334,0,0,0.013020833333333334,59.44010416666667,0)" xlink:href="#aq"/><use transform="matrix(0.013020833333333334,0,0,0.013020833333333334,72.72135416666667,0)" xlink:href="#al"/><use transform="matrix(0.013020833333333334,0,0,0.013020833333333334,85.32552083333334,0)" xlink:href="#ay"/><use transform="matrix(0.013020833333333334,0,0,0.013020833333333334,99.51822916666667,0)" xlink:href="#am"/><use transform="matrix(0.013020833333333334,0,0,0.013020833333333334,106.62760416666667,0)" xlink:href="#az"/><use transform="matrix(0.013020833333333334,0,0,0.013020833333333334,124.19270833333334,0)" xlink:href="#ao"/><use transform="matrix(0.013020833333333334,0,0,0.013020833333333334,137.20052083333334,0)" xlink:href="#ap"/></g><filter id="i" filterUnits="objectBoundingBox" x="-.03" y="-.04" width="1.06" height="1.21"><feOffset result="offOut" in="SourceAlpha" dy="6"/><feGaussianBlur result="blurOut" in="offOut" stdDeviation="5"/><feColorMatrix result="colorOut" in="blurOut" values="0 0 0 0 0 0 0 0 0 0 0 0 0 0 0 0 0 0 0.5019607843137255 0"/><feBlend in="SourceGraphic" in2="colorOut"/></filter><path fill="#fff" d="M89-955c40-238 181-388 449-388 250 0 409 134 409 381 0 232-139 347-258 472L407-195c126-46 310-24 475-29 49-1 86 32 85 80V0H69c-2-76 0-138 43-180 161-160 326-321 472-494 63-74 110-153 115-281 6-143-107-217-242-175-61 19-100 69-121 131-19 56-46 79-119 66" id="aA"/><g id="k"><use transform="matrix(0.013020833333333334,0,0,0.013020833333333334,0,0)" xlink:href="#al"/><use transform="matrix(0.013020833333333334,0,0,0.013020833333333334,12.604166666666668,0)" xlink:href="#am"/><use transform="matrix(0.013020833333333334,0,0,0.013020833333333334,19.713541666666668,0)" xlink:href="#an"/><use transform="matrix(0.013020833333333334,0,0,0.013020833333333334,32.91666666666667,0)" xlink:href="#ao"/><use transform="matrix(0.013020833333333334,0,0,0.013020833333333334,45.92447916666667,0)" xlink:href="#ap"/><use transform="matrix(0.013020833333333334,0,0,0.013020833333333334,59.44010416666667,0)" xlink:href="#aq"/><use transform="matrix(0.013020833333333334,0,0,0.013020833333333334,72.72135416666667,0)" xlink:href="#al"/><use transform="matrix(0.013020833333333334,0,0,0.013020833333333334,85.32552083333334,0)" xlink:href="#ay"/><use transform="matrix(0.013020833333333334,0,0,0.013020833333333334,99.51822916666667,0)" xlink:href="#am"/><use transform="matrix(0.013020833333333334,0,0,0.013020833333333334,106.62760416666667,0)" xlink:href="#az"/><use transform="matrix(0.013020833333333334,0,0,0.013020833333333334,124.19270833333334,0)" xlink:href="#ao"/><use transform="matrix(0.013020833333333334,0,0,0.013020833333333334,137.20052083333334,0)" xlink:href="#aA"/></g><path fill="#4c535d" d="M225-1c-20 54-71 94-136 94H-18l680-1441c20-52 64-88 131-89h107" id="aB"/><path fill="#4c535d" d="M236-180h257c2-279-3-565 3-840L323-871c-27 30-91 18-110-9l-76-104 399-346h198v1150h227V0H236v-180" id="aC"/><g id="l"><use transform="matrix(0.008680555555555554,0,0,0.008680555555555554,0,0)" xlink:href="#av"/><use transform="matrix(0.008680555555555554,0,0,0.008680555555555554,9.010416666666666,0)" xlink:href="#av"/><use transform="matrix(0.008680555555555554,0,0,0.008680555555555554,18.020833333333332,0)" xlink:href="#aB"/><use transform="matrix(0.008680555555555554,0,0,0.008680555555555554,25.65972222222222,0)" xlink:href="#aC"/></g><path fill="#4c535d" d="M456-845c80-38 203-43 294-6 146 60 243 188 243 393 0 223-117 364-277 436-109 49-273 49-382 1C168-93 67-246 67-479c0-175 67-295 150-418l300-442c25-33 77-59 136-59h226c-141 184-282 368-423 553zm64 158c-139 0-209 104-209 247 0 149 63 249 209 249 141 0 219-103 219-248 0-149-72-248-219-248" id="aD"/><g id="m"><use transform="matrix(0.008680555555555554,0,0,0.008680555555555554,0,0)" xlink:href="#av"/><use transform="matrix(0.008680555555555554,0,0,0.008680555555555554,9.010416666666666,0)" xlink:href="#aD"/><use transform="matrix(0.008680555555555554,0,0,0.008680555555555554,18.020833333333332,0)" xlink:href="#aB"/><use transform="matrix(0.008680555555555554,0,0,0.008680555555555554,25.65972222222222,0)" xlink:href="#aC"/></g><path fill="#4c535d" d="M61-690h505v212H61v-212" id="aE"/><path fill="#4c535d" d="M977-395c0 272-183 410-458 410S61-123 61-395c0-179 82-285 228-334-115-51-185-151-185-308 0-185 109-293 248-348 99-39 235-39 334 0 140 55 248 162 248 348 0 158-70 257-186 308 146 49 229 155 229 334zm-654-4c0 133 63 217 196 217s196-84 196-217c0-142-55-224-196-224-140 0-196 84-196 224zm28-633c0 123 44 210 168 210 123 0 168-87 168-210 0-114-53-191-168-191s-168 77-168 191" id="aF"/><g id="n"><use transform="matrix(0.008680555555555554,0,0,0.008680555555555554,0,0)" xlink:href="#aC"/><use transform="matrix(0.008680555555555554,0,0,0.008680555555555554,9.010416666666666,0)" xlink:href="#aE"/><use transform="matrix(0.008680555555555554,0,0,0.008680555555555554,14.453124999999998,0)" xlink:href="#ax"/><use transform="matrix(0.008680555555555554,0,0,0.008680555555555554,23.463541666666664,0)" xlink:href="#aF"/></g><g id="p"><use transform="matrix(0.013020833333333334,0,0,0.013020833333333334,0,0)" xlink:href="#al"/><use transform="matrix(0.013020833333333334,0,0,0.013020833333333334,12.604166666666668,0)" xlink:href="#am"/><use transform="matrix(0.013020833333333334,0,0,0.013020833333333334,19.713541666666668,0)" xlink:href="#an"/><use transform="matrix(0.013020833333333334,0,0,0.013020833333333334,32.91666666666667,0)" xlink:href="#ao"/><use transform="matrix(0.013020833333333334,0,0,0.013020833333333334,45.92447916666667,0)" xlink:href="#ap"/><use transform="matrix(0.013020833333333334,0,0,0.013020833333333334,59.44010416666667,0)" xlink:href="#aq"/><use transform="matrix(0.013020833333333334,0,0,0.013020833333333334,72.72135416666667,0)" xlink:href="#ar"/><use transform="matrix(0.013020833333333334,0,0,0.013020833333333334,83.99739583333334,0)" xlink:href="#ao"/><use transform="matrix(0.013020833333333334,0,0,0.013020833333333334,96.67968750000001,0)" xlink:href="#as"/><use transform="matrix(0.013020833333333334,0,0,0.013020833333333334,112.8385416666667,0)" xlink:href="#at"/><use transform="matrix(0.013020833333333334,0,0,0.013020833333333334,125.078125,0)" xlink:href="#aA"/><use transform="matrix(0.013020833333333334,0,0,0.013020833333333334,138.59375,0)" xlink:href="#as"/></g><path fill="#fff" d="M363-958c5 40 8 85 8 127V0H139v-1328c83 3 177-6 251 6 17 7 27 17 36 35l412 720c23 42 42 86 59 131 19-46 36-91 59-133l409-718c14-32 40-41 88-41h198V0h-231c1-296-1-596 2-890 1-21 2-42 4-64l-419 742c-28 50-62 58-128 58-41 0-70-20-92-58" id="aG"/><path fill="#fff" d="M352-974c116-47 283-48 399 0 177 72 288 230 288 475 0 247-110 405-288 478-116 48-283 48-399 0C173-94 62-251 62-499c0-246 112-403 290-475zm-28 477c0 189 54 318 228 318 172 0 225-131 225-318s-53-318-225-318c-174 0-228 130-228 318" id="aH"/><path fill="#fff" d="M483-1012c112 0 179 37 238 92v-517h254V0H818c-73 2-64-82-83-135C661-54 570 15 422 15 157 15 63-214 63-494c0-232 92-397 247-478 52-26 110-40 173-40zM325-494c0 166 29 308 186 308 106 0 161-51 210-111v-438c-43-55-93-85-178-85-170 0-218 146-218 326" id="aI"/><path fill="#fff" d="M439 15c-225-4-332-150-332-377v-631h254v631c0 110 48 181 156 180 91-1 152-46 204-95v-716h254V0c-65-5-152 14-197-12-30-17-26-70-39-106C664-46 580 18 439 15" id="aJ"/><path fill="#fff" d="M379-1437V0H125v-1437h254" id="aK"/><path fill="#fff" d="M534-1012c240 0 371 147 371 387V0c-80-7-186 24-201-53l-22-66C598-47 516 18 362 15 183 12 73-75 73-255c0-177 142-239 303-283 75-20 169-31 281-34 9-142-26-239-155-239-97 0-149 37-209 70-49 27-108 2-128-33l-46-80c103-96 231-158 415-158zM316-268c-2 80 48 110 125 110 107 0 156-41 216-100v-160c-111 5-199 15-269 48-43 21-70 49-72 102" id="aL"/><path fill="#fff" d="M545-767c-109 4-148 72-181 151V0H110v-993c66 5 161-12 204 14 28 28 23 102 33 150 53-94 116-183 244-183 43 0 79 10 107 31l-19 190c-6 59-87 22-134 24" id="aM"/><g id="q"><use transform="matrix(0.008680555555555554,0,0,0.008680555555555554,0,0)" xlink:href="#aG"/><use transform="matrix(0.008680555555555554,0,0,0.008680555555555554,15.538194444444443,0)" xlink:href="#aH"/><use transform="matrix(0.008680555555555554,0,0,0.008680555555555554,25.095486111111107,0)" xlink:href="#aI"/><use transform="matrix(0.008680555555555554,0,0,0.008680555555555554,34.63541666666666,0)" xlink:href="#aJ"/><use transform="matrix(0.008680555555555554,0,0,0.008680555555555554,44.175347222222214,0)" xlink:href="#aK"/><use transform="matrix(0.008680555555555554,0,0,0.008680555555555554,48.54166666666666,0)" xlink:href="#aL"/><use transform="matrix(0.008680555555555554,0,0,0.008680555555555554,57.31770833333332,0)" xlink:href="#aM"/></g><filter id="o" filterUnits="objectBoundingBox" x="-.06" y="-.02" width="1.12" height="1.1"><feOffset result="offOut" in="SourceAlpha" dy="6"/><feGaussianBlur result="blurOut" in="offOut" stdDeviation="5"/><feColorMatrix result="colorOut" in="blurOut" values="0 0 0 0 0 0 0 0 0 0 0 0 0 0 0 0 0 0 0.5019607843137255 0"/><feBlend in="SourceGraphic" in2="colorOut"/></filter><path fill="#4c535d" d="M137-1111c-27 1-55-27-55-55v-162h902c1 84-3 171-29 226L478-82C454-38 420 0 351 0H175l488-997c23-44 44-80 76-114H137" id="aN"/><g id="r"><use transform="matrix(0.008680555555555554,0,0,0.008680555555555554,0,0)" xlink:href="#aw"/><use transform="matrix(0.008680555555555554,0,0,0.008680555555555554,9.010416666666666,0)" xlink:href="#aE"/><use transform="matrix(0.008680555555555554,0,0,0.008680555555555554,14.453124999999998,0)" xlink:href="#aN"/><use transform="matrix(0.008680555555555554,0,0,0.008680555555555554,23.463541666666664,0)" xlink:href="#aB"/><use transform="matrix(0.008680555555555554,0,0,0.008680555555555554,31.10243055555555,0)" xlink:href="#aC"/><use transform="matrix(0.008680555555555554,0,0,0.008680555555555554,40.112847222222214,0)" xlink:href="#aE"/><use transform="matrix(0.008680555555555554,0,0,0.008680555555555554,45.55555555555554,0)" xlink:href="#ax"/><use transform="matrix(0.008680555555555554,0,0,0.008680555555555554,54.56597222222221,0)" xlink:href="#aF"/></g><g id="s"><use transform="matrix(0.008680555555555554,0,0,0.008680555555555554,0,0)" xlink:href="#aC"/><use transform="matrix(0.008680555555555554,0,0,0.008680555555555554,9.010416666666666,0)" xlink:href="#aB"/><use transform="matrix(0.008680555555555554,0,0,0.008680555555555554,16.649305555555554,0)" xlink:href="#aC"/></g><g id="t"><use transform="matrix(0.008680555555555554,0,0,0.008680555555555554,0,0)" xlink:href="#aC"/><use transform="matrix(0.008680555555555554,0,0,0.008680555555555554,9.010416666666666,0)" xlink:href="#aB"/><use transform="matrix(0.008680555555555554,0,0,0.008680555555555554,16.649305555555554,0)" xlink:href="#aw"/></g><path fill="#fff" d="M113-955c38-239 181-388 448-388 186 0 310 81 369 209 18 42 27 87 27 134 1 168-77 256-203 297 151 51 227 154 227 307C981-126 800 8 532 14 260 20 143-131 76-338c63-25 186-102 236-14 46 82 93 164 218 164 130 0 203-76 210-200 9-175-112-206-288-206v-171c158-2 269-37 269-193 0-117-60-182-173-183-99-1-165 67-190 142-19 57-44 79-118 66" id="aO"/><g id="u"><use transform="matrix(0.010850694444444444,0,0,0.010850694444444444,0,0)" xlink:href="#al"/><use transform="matrix(0.010850694444444444,0,0,0.010850694444444444,10.503472222222221,0)" xlink:href="#am"/><use transform="matrix(0.010850694444444444,0,0,0.010850694444444444,16.427951388888886,0)" xlink:href="#an"/><use transform="matrix(0.010850694444444444,0,0,0.010850694444444444,27.43055555555555,0)" xlink:href="#ao"/><use transform="matrix(0.010850694444444444,0,0,0.010850694444444444,38.27039930555555,0)" xlink:href="#ap"/><use transform="matrix(0.010850694444444444,0,0,0.010850694444444444,49.533420138888886,0)" xlink:href="#aq"/><use transform="matrix(0.010850694444444444,0,0,0.010850694444444444,60.60112847222221,0)" xlink:href="#ar"/><use transform="matrix(0.010850694444444444,0,0,0.010850694444444444,69.9978298611111,0)" xlink:href="#ao"/><use transform="matrix(0.010850694444444444,0,0,0.010850694444444444,80.56640624999999,0)" xlink:href="#as"/><use transform="matrix(0.010850694444444444,0,0,0.010850694444444444,94.03211805555556,0)" xlink:href="#at"/><use transform="matrix(0.010850694444444444,0,0,0.010850694444444444,104.23177083333331,0)" xlink:href="#aO"/><use transform="matrix(0.010850694444444444,0,0,0.010850694444444444,115.49479166666664,0)" xlink:href="#as"/></g><g id="v"><use transform="matrix(0.010850694444444444,0,0,0.010850694444444444,0,0)" xlink:href="#al"/><use transform="matrix(0.010850694444444444,0,0,0.010850694444444444,10.503472222222221,0)" xlink:href="#am"/><use transform="matrix(0.010850694444444444,0,0,0.010850694444444444,16.427951388888886,0)" xlink:href="#an"/><use transform="matrix(0.010850694444444444,0,0,0.010850694444444444,27.43055555555555,0)" xlink:href="#ao"/><use transform="matrix(0.010850694444444444,0,0,0.010850694444444444,38.27039930555555,0)" xlink:href="#ap"/><use transform="matrix(0.010850694444444444,0,0,0.010850694444444444,49.533420138888886,0)" xlink:href="#aq"/><use transform="matrix(0.010850694444444444,0,0,0.010850694444444444,60.60112847222221,0)" xlink:href="#ar"/><use transform="matrix(0.010850694444444444,0,0,0.010850694444444444,69.9978298611111,0)" xlink:href="#ao"/><use transform="matrix(0.010850694444444444,0,0,0.010850694444444444,80.56640624999999,0)" xlink:href="#as"/><use transform="matrix(0.010850694444444444,0,0,0.010850694444444444,94.03211805555556,0)" xlink:href="#at"/><use transform="matrix(0.010850694444444444,0,0,0.010850694444444444,104.23177083333331,0)" xlink:href="#aO"/><use transform="matrix(0.010850694444444444,0,0,0.010850694444444444,115.49479166666664,0)" xlink:href="#au"/></g><path fill="#4c535d" d="M558-1343c315 4 477 226 426 559-19 123-74 216-134 304L560-55C509 26 342-7 215 0c152-194 307-385 457-581-80 52-225 75-333 30-135-54-228-169-228-358 0-206 113-334 264-399 55-23 116-35 183-35zm-4 636c137 0 210-84 210-219 0-137-73-221-209-221-132 0-201 87-204 219-3 139 67 221 203 221" id="aP"/><g id="w"><use transform="matrix(0.008680555555555554,0,0,0.008680555555555554,0,0)" xlink:href="#aP"/><use transform="matrix(0.008680555555555554,0,0,0.008680555555555554,9.010416666666666,0)" xlink:href="#aF"/><use transform="matrix(0.008680555555555554,0,0,0.008680555555555554,18.020833333333332,0)" xlink:href="#aB"/><use transform="matrix(0.008680555555555554,0,0,0.008680555555555554,25.65972222222222,0)" xlink:href="#aw"/></g><g id="x"><use transform="matrix(0.008680555555555554,0,0,0.008680555555555554,0,0)" xlink:href="#aP"/><use transform="matrix(0.008680555555555554,0,0,0.008680555555555554,9.010416666666666,0)" xlink:href="#aF"/><use transform="matrix(0.008680555555555554,0,0,0.008680555555555554,18.020833333333332,0)" xlink:href="#aB"/><use transform="matrix(0.008680555555555554,0,0,0.008680555555555554,25.65972222222222,0)" xlink:href="#ax"/></g><path fill="#fff" d="M1063-193C972-66 836 14 625 14 325 14 160-160 82-392c-55-162-54-387 4-546 84-230 253-399 553-405 185-4 321 74 409 173-37 47-65 102-108 143-52 29-90-19-122-42-68-49-222-71-314-21-130 72-193 222-193 425 0 205 69 355 201 427 92 51 249 32 318-20 30-23 81-99 128-48" id="aQ"/><g id="y"><use transform="matrix(0.013020833333333334,0,0,0.013020833333333334,0,0)" xlink:href="#al"/><use transform="matrix(0.013020833333333334,0,0,0.013020833333333334,12.604166666666668,0)" xlink:href="#am"/><use transform="matrix(0.013020833333333334,0,0,0.013020833333333334,19.713541666666668,0)" xlink:href="#an"/><use transform="matrix(0.013020833333333334,0,0,0.013020833333333334,32.91666666666667,0)" xlink:href="#ao"/><use transform="matrix(0.013020833333333334,0,0,0.013020833333333334,45.92447916666667,0)" xlink:href="#ap"/><use transform="matrix(0.013020833333333334,0,0,0.013020833333333334,59.44010416666667,0)" xlink:href="#aq"/><use transform="matrix(0.013020833333333334,0,0,0.013020833333333334,72.72135416666667,0)" xlink:href="#ar"/><use transform="matrix(0.013020833333333334,0,0,0.013020833333333334,83.99739583333334,0)" xlink:href="#ao"/><use transform="matrix(0.013020833333333334,0,0,0.013020833333333334,96.67968750000001,0)" xlink:href="#as"/><use transform="matrix(0.013020833333333334,0,0,0.013020833333333334,112.8385416666667,0)" xlink:href="#at"/><use transform="matrix(0.013020833333333334,0,0,0.013020833333333334,125.078125,0)" xlink:href="#aO"/><use transform="matrix(0.013020833333333334,0,0,0.013020833333333334,138.59375,0)" xlink:href="#aQ"/></g><path fill="#fff" d="M1198-932c62 158 61 378 0 536C1107-162 916 0 600 0H116v-1328h484c315 6 507 163 598 396zM600-209c264-9 377-187 377-456 0-268-114-446-377-455H380v911h220" id="aR"/><g id="z"><use transform="matrix(0.013020833333333334,0,0,0.013020833333333334,0,0)" xlink:href="#al"/><use transform="matrix(0.013020833333333334,0,0,0.013020833333333334,12.604166666666668,0)" xlink:href="#am"/><use transform="matrix(0.013020833333333334,0,0,0.013020833333333334,19.713541666666668,0)" xlink:href="#an"/><use transform="matrix(0.013020833333333334,0,0,0.013020833333333334,32.91666666666667,0)" xlink:href="#ao"/><use transform="matrix(0.013020833333333334,0,0,0.013020833333333334,45.92447916666667,0)" xlink:href="#ap"/><use transform="matrix(0.013020833333333334,0,0,0.013020833333333334,59.44010416666667,0)" xlink:href="#aq"/><use transform="matrix(0.013020833333333334,0,0,0.013020833333333334,72.72135416666667,0)" xlink:href="#ar"/><use transform="matrix(0.013020833333333334,0,0,0.013020833333333334,83.99739583333334,0)" xlink:href="#ao"/><use transform="matrix(0.013020833333333334,0,0,0.013020833333333334,96.67968750000001,0)" xlink:href="#as"/><use transform="matrix(0.013020833333333334,0,0,0.013020833333333334,112.8385416666667,0)" xlink:href="#at"/><use transform="matrix(0.013020833333333334,0,0,0.013020833333333334,125.078125,0)" xlink:href="#aO"/><use transform="matrix(0.013020833333333334,0,0,0.013020833333333334,138.59375,0)" xlink:href="#aR"/></g><g id="A"><use transform="matrix(0.008680555555555554,0,0,0.008680555555555554,0,0)" xlink:href="#aP"/><use transform="matrix(0.008680555555555554,0,0,0.008680555555555554,9.010416666666666,0)" xlink:href="#aN"/><use transform="matrix(0.008680555555555554,0,0,0.008680555555555554,18.020833333333332,0)" xlink:href="#aB"/><use transform="matrix(0.008680555555555554,0,0,0.008680555555555554,25.65972222222222,0)" xlink:href="#aC"/></g><path fill="#4c535d" d="M89-955c40-238 181-388 449-388 250 0 409 134 409 381 0 232-139 347-258 472L407-195c126-46 310-24 475-29 49-1 86 32 85 80V0H69c-2-76 0-138 43-180 161-160 326-321 472-494 63-74 110-153 115-281 6-143-107-217-242-175-61 19-100 69-121 131-19 56-46 79-119 66" id="aS"/><g id="B"><use transform="matrix(0.008680555555555554,0,0,0.008680555555555554,0,0)" xlink:href="#aP"/><use transform="matrix(0.008680555555555554,0,0,0.008680555555555554,9.010416666666666,0)" xlink:href="#aN"/><use transform="matrix(0.008680555555555554,0,0,0.008680555555555554,18.020833333333332,0)" xlink:href="#aB"/><use transform="matrix(0.008680555555555554,0,0,0.008680555555555554,25.65972222222222,0)" xlink:href="#aS"/></g><g id="C"><use transform="matrix(0.008680555555555554,0,0,0.008680555555555554,0,0)" xlink:href="#aC"/><use transform="matrix(0.008680555555555554,0,0,0.008680555555555554,9.010416666666666,0)" xlink:href="#aE"/><use transform="matrix(0.008680555555555554,0,0,0.008680555555555554,14.453124999999998,0)" xlink:href="#aP"/><use transform="matrix(0.008680555555555554,0,0,0.008680555555555554,23.463541666666664,0)" xlink:href="#aD"/></g><path fill="#979ea8" d="M24 0v-248h52V0H24" id="aT"/><path fill="#979ea8" d="M24-248c120-7 223 5 221 122C244-46 201 0 124 0H24v-248zM76-40c74 7 117-18 117-86 0-67-45-88-117-82v168" id="aU"/><path fill="#979ea8" d="M128-127c34 4 56 21 59 58 7 91-148 94-172 28-4-9-6-17-7-26l51-5c1 24 16 35 40 36 23 0 39-12 38-36-1-31-31-36-65-34v-40c32 2 59-3 59-33 0-20-13-33-34-33s-33 13-35 32l-50-3c6-44 37-68 86-68 50 0 83 20 83 66 0 35-22 52-53 58" id="aV"/><g id="D"><use transform="matrix(0.07407407407407407,0,0,0.07407407407407407,0,0)" xlink:href="#aT"/><use transform="matrix(0.07407407407407407,0,0,0.07407407407407407,7.4074074074074066,0)" xlink:href="#aU"/><use transform="matrix(0.07407407407407407,0,0,0.07407407407407407,26.592592592592588,0)" xlink:href="#ag"/><use transform="matrix(0.07407407407407407,0,0,0.07407407407407407,42.81481481481481,0)" xlink:href="#aV"/></g><path fill="#333" d="M155-56V0h-30v-56H8v-25l114-167h33v167h35v25h-35zm-30-156c-27 46-58 90-88 131h88v-131" id="aW"/><path fill="#333" d="M134-131c28 9 52 24 51 62-1 50-34 73-85 73S17-19 16-69c0-36 21-54 49-61-75-25-45-126 34-121 46 3 78 18 79 63 0 33-17 51-44 57zm-34-11c31 1 46-15 46-44 0-28-17-43-47-42-29 0-46 13-45 42 1 28 16 44 46 44zm1 122c35 0 51-18 51-52 0-30-18-46-53-46-33 0-51 17-51 47 0 34 19 51 53 51" id="aX"/><path fill="#333" d="M101-251c68 0 85 55 85 127S166 4 100 4C33 4 14-52 14-124c0-73 17-127 87-127zm-1 229c47 0 54-49 54-102s-4-102-53-102c-51 0-55 48-55 102 0 53 5 102 54 102" id="aY"/><g id="E"><use transform="matrix(0.06172839506172839,0,0,0.06172839506172839,0,0)" xlink:href="#aW"/><use transform="matrix(0.06172839506172839,0,0,0.06172839506172839,12.345679012345679,0)" xlink:href="#aX"/><use transform="matrix(0.06172839506172839,0,0,0.06172839506172839,24.691358024691358,0)" xlink:href="#aY"/></g><path fill="#333" d="M232-93c-1 65-40 97-104 97C67 4 28-28 28-90v-158h33c8 89-33 224 67 224 102 0 64-133 71-224h33v155" id="aZ"/><path fill="#333" d="M135-143c-3-34-86-38-87 0 15 53 115 12 119 90S17 21 10-45l28-5c4 36 97 45 98 0-10-56-113-15-118-90-4-57 82-63 122-42 12 7 21 19 24 35" id="ba"/><path fill="#333" d="M100-194c63 0 86 42 84 106H49c0 40 14 67 53 68 26 1 43-12 49-29l28 8c-11 28-37 45-77 45C44 4 14-33 15-96c1-61 26-98 85-98zm52 81c6-60-76-77-97-28-3 7-6 17-6 28h103" id="bb"/><path fill="#333" d="M114-163C36-179 61-72 57 0H25l-1-190h30c1 12-1 29 2 39 6-27 23-49 58-41v29" id="bc"/><g id="F"><use transform="matrix(0.06172839506172839,0,0,0.06172839506172839,0,0)" xlink:href="#aZ"/><use transform="matrix(0.06172839506172839,0,0,0.06172839506172839,15.987654320987653,0)" xlink:href="#ba"/><use transform="matrix(0.06172839506172839,0,0,0.06172839506172839,27.098765432098766,0)" xlink:href="#bb"/><use transform="matrix(0.06172839506172839,0,0,0.06172839506172839,39.44444444444444,0)" xlink:href="#bc"/><use transform="matrix(0.06172839506172839,0,0,0.06172839506172839,46.79012345679012,0)" xlink:href="#ba"/></g><path fill="#979ea8" d="M23 0v-37h61v-169l-59 37v-38l62-41h46v211h57V0H23" id="bd"/><g id="G"><use transform="matrix(0.07407407407407407,0,0,0.07407407407407407,0,0)" xlink:href="#aT"/><use transform="matrix(0.07407407407407407,0,0,0.07407407407407407,7.4074074074074066,0)" xlink:href="#aU"/><use transform="matrix(0.07407407407407407,0,0,0.07407407407407407,26.592592592592588,0)" xlink:href="#ag"/><use transform="matrix(0.07407407407407407,0,0,0.07407407407407407,42.81481481481481,0)" xlink:href="#bd"/></g><path fill="#333" d="M99-251c64 0 84 50 84 122C183-37 130 33 47-8c-14-7-20-23-25-40l30-5c6 39 69 39 84 7 9-19 16-44 16-74-10 22-31 35-62 35-49 0-73-33-73-83 0-54 28-83 82-83zm-1 141c31-1 51-18 51-49 0-36-14-67-51-67-34 0-49 23-49 58 0 34 15 58 49 58" id="be"/><path fill="#333" d="M110-160c48 1 74 30 74 79 0 53-28 85-80 85-65 0-83-55-86-122-5-90 50-162 133-122 14 7 22 21 27 39l-31 6c-5-40-67-38-82-6-9 19-15 44-15 74 11-20 30-34 60-33zm-7 138c34 0 49-23 49-58s-16-56-50-56c-29 0-50 16-49 49 1 36 15 65 50 65" id="bf"/><g id="H"><use transform="matrix(0.06172839506172839,0,0,0.06172839506172839,0,0)" xlink:href="#be"/><use transform="matrix(0.06172839506172839,0,0,0.06172839506172839,12.345679012345679,0)" xlink:href="#bf"/></g><path fill="#979ea8" d="M182-182c0 78-84 86-111 141h115V0H12c-6-101 99-100 120-180 1-22-12-31-33-32-23 0-32 14-35 34l-49-3c5-45 32-70 84-70 51 0 83 22 83 69" id="bg"/><g id="I"><use transform="matrix(0.07407407407407407,0,0,0.07407407407407407,0,0)" xlink:href="#aT"/><use transform="matrix(0.07407407407407407,0,0,0.07407407407407407,7.4074074074074066,0)" xlink:href="#aU"/><use transform="matrix(0.07407407407407407,0,0,0.07407407407407407,26.592592592592588,0)" xlink:href="#ag"/><use transform="matrix(0.07407407407407407,0,0,0.07407407407407407,42.81481481481481,0)" xlink:href="#bg"/></g><path fill="#333" d="M101-251c82-7 93 87 43 132L82-64C71-53 59-42 53-27h129V0H18c2-99 128-94 128-182 0-28-16-43-45-43s-46 15-49 41l-32-3c6-41 34-60 81-64" id="bh"/><g id="J"><use transform="matrix(0.06172839506172839,0,0,0.06172839506172839,0,0)" xlink:href="#bh"/><use transform="matrix(0.06172839506172839,0,0,0.06172839506172839,12.345679012345679,0)" xlink:href="#aW"/><use transform="matrix(0.06172839506172839,0,0,0.06172839506172839,24.691358024691358,0)" xlink:href="#aY"/></g><g id="K"><use transform="matrix(0.008680555555555554,0,0,0.008680555555555554,0,0)" xlink:href="#av"/><use transform="matrix(0.008680555555555554,0,0,0.008680555555555554,9.010416666666666,0)" xlink:href="#aC"/></g><g id="L"><use transform="matrix(0.013020833333333334,0,0,0.013020833333333334,0,0)" xlink:href="#al"/><use transform="matrix(0.013020833333333334,0,0,0.013020833333333334,12.604166666666668,0)" xlink:href="#am"/><use transform="matrix(0.013020833333333334,0,0,0.013020833333333334,19.713541666666668,0)" xlink:href="#an"/><use transform="matrix(0.013020833333333334,0,0,0.013020833333333334,32.91666666666667,0)" xlink:href="#ao"/><use transform="matrix(0.013020833333333334,0,0,0.013020833333333334,45.92447916666667,0)" xlink:href="#ap"/><use transform="matrix(0.013020833333333334,0,0,0.013020833333333334,59.44010416666667,0)" xlink:href="#aq"/><use transform="matrix(0.013020833333333334,0,0,0.013020833333333334,72.72135416666667,0)" xlink:href="#ar"/><use transform="matrix(0.013020833333333334,0,0,0.013020833333333334,83.99739583333334,0)" xlink:href="#ao"/><use transform="matrix(0.013020833333333334,0,0,0.013020833333333334,96.67968750000001,0)" xlink:href="#as"/><use transform="matrix(0.013020833333333334,0,0,0.013020833333333334,112.8385416666667,0)" xlink:href="#at"/><use transform="matrix(0.013020833333333334,0,0,0.013020833333333334,125.078125,0)" xlink:href="#aO"/><use transform="matrix(0.013020833333333334,0,0,0.013020833333333334,138.59375,0)" xlink:href="#ao"/></g><g id="M"><use transform="matrix(0.008680555555555554,0,0,0.008680555555555554,0,0)" xlink:href="#aP"/><use transform="matrix(0.008680555555555554,0,0,0.008680555555555554,9.010416666666666,0)" xlink:href="#aN"/><use transform="matrix(0.008680555555555554,0,0,0.008680555555555554,18.020833333333332,0)" xlink:href="#aB"/><use transform="matrix(0.008680555555555554,0,0,0.008680555555555554,25.65972222222222,0)" xlink:href="#aw"/></g><g id="N"><use transform="matrix(0.008680555555555554,0,0,0.008680555555555554,0,0)" xlink:href="#aP"/><use transform="matrix(0.008680555555555554,0,0,0.008680555555555554,9.010416666666666,0)" xlink:href="#aN"/><use transform="matrix(0.008680555555555554,0,0,0.008680555555555554,18.020833333333332,0)" xlink:href="#aB"/><use transform="matrix(0.008680555555555554,0,0,0.008680555555555554,25.65972222222222,0)" xlink:href="#ax"/></g><g id="O"><use transform="matrix(0.008680555555555554,0,0,0.008680555555555554,0,0)" xlink:href="#aP"/><use transform="matrix(0.008680555555555554,0,0,0.008680555555555554,9.010416666666666,0)" xlink:href="#aF"/><use transform="matrix(0.008680555555555554,0,0,0.008680555555555554,18.020833333333332,0)" xlink:href="#aB"/><use transform="matrix(0.008680555555555554,0,0,0.008680555555555554,25.65972222222222,0)" xlink:href="#aC"/></g><use transform="matrix(0.008680555555555554,0,0,0.008680555555555554,0,0)" xlink:href="#aC" id="P"/><g id="Q"><use transform="matrix(0.008680555555555554,0,0,0.008680555555555554,0,0)" xlink:href="#ax"/><use transform="matrix(0.008680555555555554,0,0,0.008680555555555554,9.010416666666666,0)" xlink:href="#aP"/><use transform="matrix(0.008680555555555554,0,0,0.008680555555555554,18.020833333333332,0)" xlink:href="#aB"/><use transform="matrix(0.008680555555555554,0,0,0.008680555555555554,25.65972222222222,0)" xlink:href="#aC"/></g><path fill="#4c535d" d="M960-966c48 161 48 442 0 603C896-149 775 14 517 14 261 14 140-150 78-363c-47-161-48-443 0-603 63-213 183-377 439-377s380 165 443 377zM602-206c161-87 169-454 126-694-24-133-71-244-211-244-138 0-184 113-207 244-41 238-36 607 122 694 54 29 116 28 170 0" id="bi"/><g id="R"><use transform="matrix(0.008680555555555554,0,0,0.008680555555555554,0,0)" xlink:href="#av"/><use transform="matrix(0.008680555555555554,0,0,0.008680555555555554,9.010416666666666,0)" xlink:href="#bi"/><use transform="matrix(0.008680555555555554,0,0,0.008680555555555554,18.020833333333332,0)" xlink:href="#aB"/><use transform="matrix(0.008680555555555554,0,0,0.008680555555555554,25.65972222222222,0)" xlink:href="#aC"/></g><g id="S"><use transform="matrix(0.008680555555555554,0,0,0.008680555555555554,0,0)" xlink:href="#av"/><use transform="matrix(0.008680555555555554,0,0,0.008680555555555554,9.010416666666666,0)" xlink:href="#aC"/><use transform="matrix(0.008680555555555554,0,0,0.008680555555555554,18.020833333333332,0)" xlink:href="#aB"/><use transform="matrix(0.008680555555555554,0,0,0.008680555555555554,25.65972222222222,0)" xlink:href="#aC"/></g><path fill="#979ea8" d="M230 0l2-204L168 0h-37L68-204 70 0H24v-248h70l56 185 57-185h69V0h-46" id="bj"/><g id="T"><use transform="matrix(0.07407407407407407,0,0,0.07407407407407407,0,0)" xlink:href="#bj"/><use transform="matrix(0.07407407407407407,0,0,0.07407407407407407,22.148148148148145,0)" xlink:href="#aU"/><use transform="matrix(0.07407407407407407,0,0,0.07407407407407407,41.33333333333333,0)" xlink:href="#ag"/></g><g id="U"><use transform="matrix(0.008680555555555554,0,0,0.008680555555555554,0,0)" xlink:href="#av"/><use transform="matrix(0.008680555555555554,0,0,0.008680555555555554,9.010416666666666,0)" xlink:href="#aS"/><use transform="matrix(0.008680555555555554,0,0,0.008680555555555554,18.020833333333332,0)" xlink:href="#aB"/><use transform="matrix(0.008680555555555554,0,0,0.008680555555555554,25.65972222222222,0)" xlink:href="#aC"/></g><path fill="#333" d="M266 0h-40l-56-210L115 0H75L2-248h35L96-30l15-64 43-154h32l59 218 59-218h35" id="bk"/><path fill="#333" d="M205 0l-28-72H64L36 0H1l101-248h38L239 0h-34zm-38-99l-47-123c-12 45-31 82-46 123h93" id="bl"/><path fill="#333" d="M190 0L58-211 59 0H30v-248h39L202-35l-2-213h31V0h-41" id="bm"/><path fill="#333" d="M0 4l72-265h28L28 4H0" id="bn"/><path fill="#333" d="M212-179c-10-28-35-45-73-45-59 0-87 40-87 99 0 60 29 101 89 101 43 0 62-24 78-52l27 14C228-24 195 4 139 4 59 4 22-46 18-125c-6-104 99-153 187-111 19 9 31 26 39 46" id="bo"/><path fill="#333" d="M100-194c62-1 85 37 85 99 1 63-27 99-86 99S16-35 15-95c0-66 28-99 85-99zM99-20c44 1 53-31 53-75 0-43-8-75-51-75s-53 32-53 75 10 74 51 75" id="bp"/><g id="V"><use transform="matrix(0.06172839506172839,0,0,0.06172839506172839,0,0)" xlink:href="#bk"/><use transform="matrix(0.06172839506172839,0,0,0.06172839506172839,20.123456790123456,0)" xlink:href="#bl"/><use transform="matrix(0.06172839506172839,0,0,0.06172839506172839,34.938271604938265,0)" xlink:href="#bm"/><use transform="matrix(0.06172839506172839,0,0,0.06172839506172839,50.92592592592592,0)" xlink:href="#bn"/><use transform="matrix(0.06172839506172839,0,0,0.06172839506172839,57.09876543209876,0)" xlink:href="#bo"/><use transform="matrix(0.06172839506172839,0,0,0.06172839506172839,73.08641975308642,0)" xlink:href="#bp"/><use transform="matrix(0.06172839506172839,0,0,0.06172839506172839,85.4320987654321,0)" xlink:href="#bc"/><use transform="matrix(0.06172839506172839,0,0,0.06172839506172839,92.77777777777779,0)" xlink:href="#bb"/></g></defs></g></svg>